%TF.GenerationSoftware,KiCad,Pcbnew,8.0.8*%
%TF.CreationDate,2025-04-09T15:43:05-07:00*%
%TF.ProjectId,hackboard,6861636b-626f-4617-9264-2e6b69636164,rev?*%
%TF.SameCoordinates,Original*%
%TF.FileFunction,Paste,Bot*%
%TF.FilePolarity,Positive*%
%FSLAX46Y46*%
G04 Gerber Fmt 4.6, Leading zero omitted, Abs format (unit mm)*
G04 Created by KiCad (PCBNEW 8.0.8) date 2025-04-09 15:43:05*
%MOMM*%
%LPD*%
G01*
G04 APERTURE LIST*
G04 Aperture macros list*
%AMRoundRect*
0 Rectangle with rounded corners*
0 $1 Rounding radius*
0 $2 $3 $4 $5 $6 $7 $8 $9 X,Y pos of 4 corners*
0 Add a 4 corners polygon primitive as box body*
4,1,4,$2,$3,$4,$5,$6,$7,$8,$9,$2,$3,0*
0 Add four circle primitives for the rounded corners*
1,1,$1+$1,$2,$3*
1,1,$1+$1,$4,$5*
1,1,$1+$1,$6,$7*
1,1,$1+$1,$8,$9*
0 Add four rect primitives between the rounded corners*
20,1,$1+$1,$2,$3,$4,$5,0*
20,1,$1+$1,$4,$5,$6,$7,0*
20,1,$1+$1,$6,$7,$8,$9,0*
20,1,$1+$1,$8,$9,$2,$3,0*%
G04 Aperture macros list end*
%ADD10RoundRect,0.225000X0.375000X-0.225000X0.375000X0.225000X-0.375000X0.225000X-0.375000X-0.225000X0*%
G04 APERTURE END LIST*
D10*
%TO.C,D31*%
X390921875Y-111918750D03*
X390921875Y-108618750D03*
%TD*%
%TO.C,D21*%
X200421875Y-111918750D03*
X200421875Y-108618750D03*
%TD*%
%TO.C,D8*%
X238521875Y-92868750D03*
X238521875Y-89568750D03*
%TD*%
%TO.C,D23*%
X238521875Y-111918750D03*
X238521875Y-108618750D03*
%TD*%
%TO.C,D45*%
X362346875Y-130968750D03*
X362346875Y-127668750D03*
%TD*%
%TO.C,D1*%
X467121875Y-97234375D03*
X467121875Y-93934375D03*
%TD*%
%TO.C,D71*%
X243284375Y-169068750D03*
X243284375Y-165768750D03*
%TD*%
%TO.C,D74*%
X300434375Y-169068750D03*
X300434375Y-165768750D03*
%TD*%
%TO.C,D57*%
X271859375Y-150018750D03*
X271859375Y-146718750D03*
%TD*%
%TO.C,D41*%
X286146875Y-130968750D03*
X286146875Y-127668750D03*
%TD*%
%TO.C,D81*%
X79596875Y-191118750D03*
X79596875Y-187818750D03*
%TD*%
%TO.C,D84*%
X133746875Y-178593750D03*
X133746875Y-175293750D03*
%TD*%
%TO.C,D90*%
X362346875Y-188118750D03*
X362346875Y-184818750D03*
%TD*%
%TO.C,D35*%
X162321875Y-130968750D03*
X162321875Y-127668750D03*
%TD*%
%TO.C,D51*%
X133746875Y-140493750D03*
X133746875Y-137193750D03*
%TD*%
%TO.C,D17*%
X114696875Y-111918750D03*
X114696875Y-108618750D03*
%TD*%
%TO.C,D44*%
X343296875Y-130968750D03*
X343296875Y-127668750D03*
%TD*%
%TO.C,D26*%
X295671875Y-111918750D03*
X295671875Y-108618750D03*
%TD*%
%TO.C,D6*%
X200421875Y-92868750D03*
X200421875Y-89568750D03*
%TD*%
%TO.C,D3*%
X95646875Y-111584375D03*
X95646875Y-108284375D03*
%TD*%
%TO.C,D65*%
X79596875Y-153018750D03*
X79596875Y-149718750D03*
%TD*%
%TO.C,D11*%
X295671875Y-92868750D03*
X295671875Y-89568750D03*
%TD*%
%TO.C,D87*%
X205184375Y-188118750D03*
X205184375Y-184818750D03*
%TD*%
%TO.C,D73*%
X281384375Y-169068750D03*
X281384375Y-165768750D03*
%TD*%
%TO.C,D19*%
X162321875Y-111918750D03*
X162321875Y-108618750D03*
%TD*%
%TO.C,D28*%
X333771875Y-111918750D03*
X333771875Y-108618750D03*
%TD*%
%TO.C,D56*%
X252809375Y-150018750D03*
X252809375Y-146718750D03*
%TD*%
%TO.C,D24*%
X257571875Y-111918750D03*
X257571875Y-108618750D03*
%TD*%
%TO.C,D89*%
X243284375Y-188118750D03*
X243284375Y-184818750D03*
%TD*%
%TO.C,D76*%
X338534375Y-169068750D03*
X338534375Y-165768750D03*
%TD*%
%TO.C,D58*%
X290909375Y-150018750D03*
X290909375Y-146718750D03*
%TD*%
%TO.C,D91*%
X386159375Y-188118750D03*
X386159375Y-184818750D03*
%TD*%
%TO.C,D42*%
X305196875Y-130968750D03*
X305196875Y-127668750D03*
%TD*%
%TO.C,D5*%
X181371875Y-92868750D03*
X181371875Y-89568750D03*
%TD*%
%TO.C,D77*%
X357584375Y-169068750D03*
X357584375Y-165768750D03*
%TD*%
%TO.C,D39*%
X248046875Y-130968750D03*
X248046875Y-127668750D03*
%TD*%
%TO.C,D61*%
X348059375Y-150018750D03*
X348059375Y-146718750D03*
%TD*%
%TO.C,D12*%
X314721875Y-92868750D03*
X314721875Y-89568750D03*
%TD*%
%TO.C,D30*%
X371871875Y-111918750D03*
X371871875Y-108618750D03*
%TD*%
%TO.C,D34*%
X95646875Y-130968750D03*
X95646875Y-127668750D03*
%TD*%
%TO.C,D27*%
X314721875Y-111918750D03*
X314721875Y-108618750D03*
%TD*%
%TO.C,D69*%
X205184375Y-169068750D03*
X205184375Y-165768750D03*
%TD*%
%TO.C,D82*%
X114696875Y-169068750D03*
X114696875Y-165768750D03*
%TD*%
%TO.C,D47*%
X400446875Y-130968750D03*
X400446875Y-127668750D03*
%TD*%
%TO.C,D32*%
X409971875Y-111918750D03*
X409971875Y-108618750D03*
%TD*%
%TO.C,D49*%
X95646875Y-150018750D03*
X95646875Y-146718750D03*
%TD*%
%TO.C,D83*%
X114696875Y-188118750D03*
X114696875Y-184818750D03*
%TD*%
%TO.C,D79*%
X395684375Y-169068750D03*
X395684375Y-165768750D03*
%TD*%
%TO.C,D10*%
X276621875Y-92868750D03*
X276621875Y-89568750D03*
%TD*%
%TO.C,D18*%
X114696875Y-130968750D03*
X114696875Y-127668750D03*
%TD*%
%TO.C,D67*%
X95646875Y-169068750D03*
X95646875Y-165768750D03*
%TD*%
%TO.C,D78*%
X376634375Y-169068750D03*
X376634375Y-165768750D03*
%TD*%
%TO.C,D14*%
X352821875Y-92868750D03*
X352821875Y-89568750D03*
%TD*%
%TO.C,D93*%
X429021875Y-188118750D03*
X429021875Y-184818750D03*
%TD*%
%TO.C,D80*%
X429021875Y-169068750D03*
X429021875Y-165768750D03*
%TD*%
%TO.C,D16*%
X390921875Y-92868750D03*
X390921875Y-89568750D03*
%TD*%
%TO.C,D20*%
X181371875Y-111918750D03*
X181371875Y-108618750D03*
%TD*%
%TO.C,D53*%
X195659375Y-150018750D03*
X195659375Y-146718750D03*
%TD*%
%TO.C,D43*%
X324246875Y-130968750D03*
X324246875Y-127668750D03*
%TD*%
%TO.C,D25*%
X276621875Y-111918750D03*
X276621875Y-108618750D03*
%TD*%
%TO.C,D13*%
X333771875Y-92868750D03*
X333771875Y-89568750D03*
%TD*%
%TO.C,D85*%
X162321875Y-188118750D03*
X162321875Y-184818750D03*
%TD*%
%TO.C,D86*%
X186134375Y-188118750D03*
X186134375Y-184818750D03*
%TD*%
%TO.C,D22*%
X219471875Y-111918750D03*
X219471875Y-108618750D03*
%TD*%
%TO.C,D33*%
X79596875Y-133968750D03*
X79596875Y-130668750D03*
%TD*%
%TO.C,D2*%
X79596875Y-114584375D03*
X79596875Y-111284375D03*
%TD*%
%TO.C,D62*%
X367109375Y-150018750D03*
X367109375Y-146718750D03*
%TD*%
%TO.C,D88*%
X224234375Y-188118750D03*
X224234375Y-184818750D03*
%TD*%
%TO.C,D55*%
X233759375Y-150018750D03*
X233759375Y-146718750D03*
%TD*%
%TO.C,D75*%
X319484375Y-169068750D03*
X319484375Y-165768750D03*
%TD*%
%TO.C,D72*%
X262334375Y-169068750D03*
X262334375Y-165768750D03*
%TD*%
%TO.C,D70*%
X224234375Y-169068750D03*
X224234375Y-165768750D03*
%TD*%
%TO.C,D36*%
X190896875Y-130968750D03*
X190896875Y-127668750D03*
%TD*%
%TO.C,D29*%
X352821875Y-111918750D03*
X352821875Y-108618750D03*
%TD*%
%TO.C,D9*%
X257571875Y-92868750D03*
X257571875Y-89568750D03*
%TD*%
%TO.C,D63*%
X386159375Y-150018750D03*
X386159375Y-146718750D03*
%TD*%
%TO.C,D40*%
X267096875Y-130968750D03*
X267096875Y-127668750D03*
%TD*%
%TO.C,D60*%
X329009375Y-150018750D03*
X329009375Y-146718750D03*
%TD*%
%TO.C,D54*%
X214709375Y-150018750D03*
X214709375Y-146718750D03*
%TD*%
%TO.C,D46*%
X381396875Y-130968750D03*
X381396875Y-127668750D03*
%TD*%
%TO.C,D50*%
X114696875Y-150018750D03*
X114696875Y-146718750D03*
%TD*%
%TO.C,D38*%
X228996875Y-130968750D03*
X228996875Y-127668750D03*
%TD*%
%TO.C,D66*%
X79596875Y-172068750D03*
X79596875Y-168768750D03*
%TD*%
%TO.C,D59*%
X309959375Y-150018750D03*
X309959375Y-146718750D03*
%TD*%
%TO.C,D94*%
X448071875Y-188118750D03*
X448071875Y-184818750D03*
%TD*%
%TO.C,D95*%
X448071875Y-169068750D03*
X448071875Y-165768750D03*
%TD*%
%TO.C,D7*%
X219471875Y-92868750D03*
X219471875Y-89568750D03*
%TD*%
%TO.C,D64*%
X405209375Y-150018750D03*
X405209375Y-146718750D03*
%TD*%
%TO.C,D48*%
X419496875Y-130968750D03*
X419496875Y-127668750D03*
%TD*%
%TO.C,D15*%
X371871875Y-92868750D03*
X371871875Y-89568750D03*
%TD*%
%TO.C,D4*%
X162321875Y-92868750D03*
X162321875Y-89568750D03*
%TD*%
%TO.C,D52*%
X162321875Y-150018750D03*
X162321875Y-146718750D03*
%TD*%
%TO.C,D92*%
X409971875Y-188118750D03*
X409971875Y-184818750D03*
%TD*%
%TO.C,D37*%
X209946875Y-130968750D03*
X209946875Y-127668750D03*
%TD*%
%TO.C,D68*%
X162321875Y-169068750D03*
X162321875Y-165768750D03*
%TD*%
M02*
