%TF.GenerationSoftware,KiCad,Pcbnew,8.0.8*%
%TF.CreationDate,2025-04-09T15:43:05-07:00*%
%TF.ProjectId,hackboard,6861636b-626f-4617-9264-2e6b69636164,rev?*%
%TF.SameCoordinates,Original*%
%TF.FileFunction,Legend,Bot*%
%TF.FilePolarity,Positive*%
%FSLAX46Y46*%
G04 Gerber Fmt 4.6, Leading zero omitted, Abs format (unit mm)*
G04 Created by KiCad (PCBNEW 8.0.8) date 2025-04-09 15:43:05*
%MOMM*%
%LPD*%
G01*
G04 APERTURE LIST*
%ADD10C,0.150000*%
%ADD11C,0.120000*%
G04 APERTURE END LIST*
D10*
X355276694Y-90004464D02*
X354276694Y-90004464D01*
X354276694Y-90004464D02*
X354276694Y-90242559D01*
X354276694Y-90242559D02*
X354324313Y-90385416D01*
X354324313Y-90385416D02*
X354419551Y-90480654D01*
X354419551Y-90480654D02*
X354514789Y-90528273D01*
X354514789Y-90528273D02*
X354705265Y-90575892D01*
X354705265Y-90575892D02*
X354848122Y-90575892D01*
X354848122Y-90575892D02*
X355038598Y-90528273D01*
X355038598Y-90528273D02*
X355133836Y-90480654D01*
X355133836Y-90480654D02*
X355229075Y-90385416D01*
X355229075Y-90385416D02*
X355276694Y-90242559D01*
X355276694Y-90242559D02*
X355276694Y-90004464D01*
X355276694Y-91528273D02*
X355276694Y-90956845D01*
X355276694Y-91242559D02*
X354276694Y-91242559D01*
X354276694Y-91242559D02*
X354419551Y-91147321D01*
X354419551Y-91147321D02*
X354514789Y-91052083D01*
X354514789Y-91052083D02*
X354562408Y-90956845D01*
X354610027Y-92385416D02*
X355276694Y-92385416D01*
X354229075Y-92147321D02*
X354943360Y-91909226D01*
X354943360Y-91909226D02*
X354943360Y-92528273D01*
X393376694Y-90004464D02*
X392376694Y-90004464D01*
X392376694Y-90004464D02*
X392376694Y-90242559D01*
X392376694Y-90242559D02*
X392424313Y-90385416D01*
X392424313Y-90385416D02*
X392519551Y-90480654D01*
X392519551Y-90480654D02*
X392614789Y-90528273D01*
X392614789Y-90528273D02*
X392805265Y-90575892D01*
X392805265Y-90575892D02*
X392948122Y-90575892D01*
X392948122Y-90575892D02*
X393138598Y-90528273D01*
X393138598Y-90528273D02*
X393233836Y-90480654D01*
X393233836Y-90480654D02*
X393329075Y-90385416D01*
X393329075Y-90385416D02*
X393376694Y-90242559D01*
X393376694Y-90242559D02*
X393376694Y-90004464D01*
X393376694Y-91528273D02*
X393376694Y-90956845D01*
X393376694Y-91242559D02*
X392376694Y-91242559D01*
X392376694Y-91242559D02*
X392519551Y-91147321D01*
X392519551Y-91147321D02*
X392614789Y-91052083D01*
X392614789Y-91052083D02*
X392662408Y-90956845D01*
X392376694Y-92385416D02*
X392376694Y-92194940D01*
X392376694Y-92194940D02*
X392424313Y-92099702D01*
X392424313Y-92099702D02*
X392471932Y-92052083D01*
X392471932Y-92052083D02*
X392614789Y-91956845D01*
X392614789Y-91956845D02*
X392805265Y-91909226D01*
X392805265Y-91909226D02*
X393186217Y-91909226D01*
X393186217Y-91909226D02*
X393281455Y-91956845D01*
X393281455Y-91956845D02*
X393329075Y-92004464D01*
X393329075Y-92004464D02*
X393376694Y-92099702D01*
X393376694Y-92099702D02*
X393376694Y-92290178D01*
X393376694Y-92290178D02*
X393329075Y-92385416D01*
X393329075Y-92385416D02*
X393281455Y-92433035D01*
X393281455Y-92433035D02*
X393186217Y-92480654D01*
X393186217Y-92480654D02*
X392948122Y-92480654D01*
X392948122Y-92480654D02*
X392852884Y-92433035D01*
X392852884Y-92433035D02*
X392805265Y-92385416D01*
X392805265Y-92385416D02*
X392757646Y-92290178D01*
X392757646Y-92290178D02*
X392757646Y-92099702D01*
X392757646Y-92099702D02*
X392805265Y-92004464D01*
X392805265Y-92004464D02*
X392852884Y-91956845D01*
X392852884Y-91956845D02*
X392948122Y-91909226D01*
X450526694Y-166204464D02*
X449526694Y-166204464D01*
X449526694Y-166204464D02*
X449526694Y-166442559D01*
X449526694Y-166442559D02*
X449574313Y-166585416D01*
X449574313Y-166585416D02*
X449669551Y-166680654D01*
X449669551Y-166680654D02*
X449764789Y-166728273D01*
X449764789Y-166728273D02*
X449955265Y-166775892D01*
X449955265Y-166775892D02*
X450098122Y-166775892D01*
X450098122Y-166775892D02*
X450288598Y-166728273D01*
X450288598Y-166728273D02*
X450383836Y-166680654D01*
X450383836Y-166680654D02*
X450479075Y-166585416D01*
X450479075Y-166585416D02*
X450526694Y-166442559D01*
X450526694Y-166442559D02*
X450526694Y-166204464D01*
X450526694Y-167252083D02*
X450526694Y-167442559D01*
X450526694Y-167442559D02*
X450479075Y-167537797D01*
X450479075Y-167537797D02*
X450431455Y-167585416D01*
X450431455Y-167585416D02*
X450288598Y-167680654D01*
X450288598Y-167680654D02*
X450098122Y-167728273D01*
X450098122Y-167728273D02*
X449717170Y-167728273D01*
X449717170Y-167728273D02*
X449621932Y-167680654D01*
X449621932Y-167680654D02*
X449574313Y-167633035D01*
X449574313Y-167633035D02*
X449526694Y-167537797D01*
X449526694Y-167537797D02*
X449526694Y-167347321D01*
X449526694Y-167347321D02*
X449574313Y-167252083D01*
X449574313Y-167252083D02*
X449621932Y-167204464D01*
X449621932Y-167204464D02*
X449717170Y-167156845D01*
X449717170Y-167156845D02*
X449955265Y-167156845D01*
X449955265Y-167156845D02*
X450050503Y-167204464D01*
X450050503Y-167204464D02*
X450098122Y-167252083D01*
X450098122Y-167252083D02*
X450145741Y-167347321D01*
X450145741Y-167347321D02*
X450145741Y-167537797D01*
X450145741Y-167537797D02*
X450098122Y-167633035D01*
X450098122Y-167633035D02*
X450050503Y-167680654D01*
X450050503Y-167680654D02*
X449955265Y-167728273D01*
X449526694Y-168633035D02*
X449526694Y-168156845D01*
X449526694Y-168156845D02*
X450002884Y-168109226D01*
X450002884Y-168109226D02*
X449955265Y-168156845D01*
X449955265Y-168156845D02*
X449907646Y-168252083D01*
X449907646Y-168252083D02*
X449907646Y-168490178D01*
X449907646Y-168490178D02*
X449955265Y-168585416D01*
X449955265Y-168585416D02*
X450002884Y-168633035D01*
X450002884Y-168633035D02*
X450098122Y-168680654D01*
X450098122Y-168680654D02*
X450336217Y-168680654D01*
X450336217Y-168680654D02*
X450431455Y-168633035D01*
X450431455Y-168633035D02*
X450479075Y-168585416D01*
X450479075Y-168585416D02*
X450526694Y-168490178D01*
X450526694Y-168490178D02*
X450526694Y-168252083D01*
X450526694Y-168252083D02*
X450479075Y-168156845D01*
X450479075Y-168156845D02*
X450431455Y-168109226D01*
X374326694Y-90004464D02*
X373326694Y-90004464D01*
X373326694Y-90004464D02*
X373326694Y-90242559D01*
X373326694Y-90242559D02*
X373374313Y-90385416D01*
X373374313Y-90385416D02*
X373469551Y-90480654D01*
X373469551Y-90480654D02*
X373564789Y-90528273D01*
X373564789Y-90528273D02*
X373755265Y-90575892D01*
X373755265Y-90575892D02*
X373898122Y-90575892D01*
X373898122Y-90575892D02*
X374088598Y-90528273D01*
X374088598Y-90528273D02*
X374183836Y-90480654D01*
X374183836Y-90480654D02*
X374279075Y-90385416D01*
X374279075Y-90385416D02*
X374326694Y-90242559D01*
X374326694Y-90242559D02*
X374326694Y-90004464D01*
X374326694Y-91528273D02*
X374326694Y-90956845D01*
X374326694Y-91242559D02*
X373326694Y-91242559D01*
X373326694Y-91242559D02*
X373469551Y-91147321D01*
X373469551Y-91147321D02*
X373564789Y-91052083D01*
X373564789Y-91052083D02*
X373612408Y-90956845D01*
X373326694Y-92433035D02*
X373326694Y-91956845D01*
X373326694Y-91956845D02*
X373802884Y-91909226D01*
X373802884Y-91909226D02*
X373755265Y-91956845D01*
X373755265Y-91956845D02*
X373707646Y-92052083D01*
X373707646Y-92052083D02*
X373707646Y-92290178D01*
X373707646Y-92290178D02*
X373755265Y-92385416D01*
X373755265Y-92385416D02*
X373802884Y-92433035D01*
X373802884Y-92433035D02*
X373898122Y-92480654D01*
X373898122Y-92480654D02*
X374136217Y-92480654D01*
X374136217Y-92480654D02*
X374231455Y-92433035D01*
X374231455Y-92433035D02*
X374279075Y-92385416D01*
X374279075Y-92385416D02*
X374326694Y-92290178D01*
X374326694Y-92290178D02*
X374326694Y-92052083D01*
X374326694Y-92052083D02*
X374279075Y-91956845D01*
X374279075Y-91956845D02*
X374231455Y-91909226D01*
D11*
%TO.C,D31*%
X389921875Y-108618750D02*
X389921875Y-112628750D01*
X389921875Y-112628750D02*
X391921875Y-112628750D01*
X391921875Y-108618750D02*
X391921875Y-112628750D01*
%TO.C,D21*%
X199421875Y-108618750D02*
X199421875Y-112628750D01*
X199421875Y-112628750D02*
X201421875Y-112628750D01*
X201421875Y-108618750D02*
X201421875Y-112628750D01*
%TO.C,D8*%
X237521875Y-89568750D02*
X237521875Y-93578750D01*
X237521875Y-93578750D02*
X239521875Y-93578750D01*
X239521875Y-89568750D02*
X239521875Y-93578750D01*
%TO.C,D23*%
X237521875Y-108618750D02*
X237521875Y-112628750D01*
X237521875Y-112628750D02*
X239521875Y-112628750D01*
X239521875Y-108618750D02*
X239521875Y-112628750D01*
%TO.C,D45*%
X361346875Y-127668750D02*
X361346875Y-131678750D01*
X361346875Y-131678750D02*
X363346875Y-131678750D01*
X363346875Y-127668750D02*
X363346875Y-131678750D01*
%TO.C,D1*%
X466121875Y-93934375D02*
X466121875Y-97944375D01*
X466121875Y-97944375D02*
X468121875Y-97944375D01*
X468121875Y-93934375D02*
X468121875Y-97944375D01*
%TO.C,D71*%
X242284375Y-165768750D02*
X242284375Y-169778750D01*
X242284375Y-169778750D02*
X244284375Y-169778750D01*
X244284375Y-165768750D02*
X244284375Y-169778750D01*
%TO.C,D74*%
X299434375Y-165768750D02*
X299434375Y-169778750D01*
X299434375Y-169778750D02*
X301434375Y-169778750D01*
X301434375Y-165768750D02*
X301434375Y-169778750D01*
%TO.C,D57*%
X270859375Y-146718750D02*
X270859375Y-150728750D01*
X270859375Y-150728750D02*
X272859375Y-150728750D01*
X272859375Y-146718750D02*
X272859375Y-150728750D01*
%TO.C,D41*%
X285146875Y-127668750D02*
X285146875Y-131678750D01*
X285146875Y-131678750D02*
X287146875Y-131678750D01*
X287146875Y-127668750D02*
X287146875Y-131678750D01*
%TO.C,D81*%
X78596875Y-187818750D02*
X78596875Y-191828750D01*
X78596875Y-191828750D02*
X80596875Y-191828750D01*
X80596875Y-187818750D02*
X80596875Y-191828750D01*
%TO.C,D84*%
X132746875Y-175293750D02*
X132746875Y-179303750D01*
X132746875Y-179303750D02*
X134746875Y-179303750D01*
X134746875Y-175293750D02*
X134746875Y-179303750D01*
%TO.C,D90*%
X361346875Y-184818750D02*
X361346875Y-188828750D01*
X361346875Y-188828750D02*
X363346875Y-188828750D01*
X363346875Y-184818750D02*
X363346875Y-188828750D01*
%TO.C,D35*%
X161321875Y-127668750D02*
X161321875Y-131678750D01*
X161321875Y-131678750D02*
X163321875Y-131678750D01*
X163321875Y-127668750D02*
X163321875Y-131678750D01*
%TO.C,D51*%
X132746875Y-137193750D02*
X132746875Y-141203750D01*
X132746875Y-141203750D02*
X134746875Y-141203750D01*
X134746875Y-137193750D02*
X134746875Y-141203750D01*
%TO.C,D17*%
X113696875Y-108618750D02*
X113696875Y-112628750D01*
X113696875Y-112628750D02*
X115696875Y-112628750D01*
X115696875Y-108618750D02*
X115696875Y-112628750D01*
%TO.C,D44*%
X342296875Y-127668750D02*
X342296875Y-131678750D01*
X342296875Y-131678750D02*
X344296875Y-131678750D01*
X344296875Y-127668750D02*
X344296875Y-131678750D01*
%TO.C,D26*%
X294671875Y-108618750D02*
X294671875Y-112628750D01*
X294671875Y-112628750D02*
X296671875Y-112628750D01*
X296671875Y-108618750D02*
X296671875Y-112628750D01*
%TO.C,D6*%
X199421875Y-89568750D02*
X199421875Y-93578750D01*
X199421875Y-93578750D02*
X201421875Y-93578750D01*
X201421875Y-89568750D02*
X201421875Y-93578750D01*
%TO.C,D3*%
X94646875Y-108284375D02*
X94646875Y-112294375D01*
X94646875Y-112294375D02*
X96646875Y-112294375D01*
X96646875Y-108284375D02*
X96646875Y-112294375D01*
%TO.C,D65*%
X78596875Y-149718750D02*
X78596875Y-153728750D01*
X78596875Y-153728750D02*
X80596875Y-153728750D01*
X80596875Y-149718750D02*
X80596875Y-153728750D01*
%TO.C,D11*%
X294671875Y-89568750D02*
X294671875Y-93578750D01*
X294671875Y-93578750D02*
X296671875Y-93578750D01*
X296671875Y-89568750D02*
X296671875Y-93578750D01*
%TO.C,D87*%
X204184375Y-184818750D02*
X204184375Y-188828750D01*
X204184375Y-188828750D02*
X206184375Y-188828750D01*
X206184375Y-184818750D02*
X206184375Y-188828750D01*
%TO.C,D73*%
X280384375Y-165768750D02*
X280384375Y-169778750D01*
X280384375Y-169778750D02*
X282384375Y-169778750D01*
X282384375Y-165768750D02*
X282384375Y-169778750D01*
%TO.C,D19*%
X161321875Y-108618750D02*
X161321875Y-112628750D01*
X161321875Y-112628750D02*
X163321875Y-112628750D01*
X163321875Y-108618750D02*
X163321875Y-112628750D01*
%TO.C,D28*%
X332771875Y-108618750D02*
X332771875Y-112628750D01*
X332771875Y-112628750D02*
X334771875Y-112628750D01*
X334771875Y-108618750D02*
X334771875Y-112628750D01*
%TO.C,D56*%
X251809375Y-146718750D02*
X251809375Y-150728750D01*
X251809375Y-150728750D02*
X253809375Y-150728750D01*
X253809375Y-146718750D02*
X253809375Y-150728750D01*
%TO.C,D24*%
X256571875Y-108618750D02*
X256571875Y-112628750D01*
X256571875Y-112628750D02*
X258571875Y-112628750D01*
X258571875Y-108618750D02*
X258571875Y-112628750D01*
%TO.C,D89*%
X242284375Y-184818750D02*
X242284375Y-188828750D01*
X242284375Y-188828750D02*
X244284375Y-188828750D01*
X244284375Y-184818750D02*
X244284375Y-188828750D01*
%TO.C,D76*%
X337534375Y-165768750D02*
X337534375Y-169778750D01*
X337534375Y-169778750D02*
X339534375Y-169778750D01*
X339534375Y-165768750D02*
X339534375Y-169778750D01*
%TO.C,D58*%
X289909375Y-146718750D02*
X289909375Y-150728750D01*
X289909375Y-150728750D02*
X291909375Y-150728750D01*
X291909375Y-146718750D02*
X291909375Y-150728750D01*
%TO.C,D91*%
X385159375Y-184818750D02*
X385159375Y-188828750D01*
X385159375Y-188828750D02*
X387159375Y-188828750D01*
X387159375Y-184818750D02*
X387159375Y-188828750D01*
%TO.C,D42*%
X304196875Y-127668750D02*
X304196875Y-131678750D01*
X304196875Y-131678750D02*
X306196875Y-131678750D01*
X306196875Y-127668750D02*
X306196875Y-131678750D01*
%TO.C,D5*%
X180371875Y-89568750D02*
X180371875Y-93578750D01*
X180371875Y-93578750D02*
X182371875Y-93578750D01*
X182371875Y-89568750D02*
X182371875Y-93578750D01*
%TO.C,D77*%
X356584375Y-165768750D02*
X356584375Y-169778750D01*
X356584375Y-169778750D02*
X358584375Y-169778750D01*
X358584375Y-165768750D02*
X358584375Y-169778750D01*
%TO.C,D39*%
X247046875Y-127668750D02*
X247046875Y-131678750D01*
X247046875Y-131678750D02*
X249046875Y-131678750D01*
X249046875Y-127668750D02*
X249046875Y-131678750D01*
%TO.C,D61*%
X347059375Y-146718750D02*
X347059375Y-150728750D01*
X347059375Y-150728750D02*
X349059375Y-150728750D01*
X349059375Y-146718750D02*
X349059375Y-150728750D01*
%TO.C,D12*%
X313721875Y-89568750D02*
X313721875Y-93578750D01*
X313721875Y-93578750D02*
X315721875Y-93578750D01*
X315721875Y-89568750D02*
X315721875Y-93578750D01*
%TO.C,D30*%
X370871875Y-108618750D02*
X370871875Y-112628750D01*
X370871875Y-112628750D02*
X372871875Y-112628750D01*
X372871875Y-108618750D02*
X372871875Y-112628750D01*
%TO.C,D34*%
X94646875Y-127668750D02*
X94646875Y-131678750D01*
X94646875Y-131678750D02*
X96646875Y-131678750D01*
X96646875Y-127668750D02*
X96646875Y-131678750D01*
%TO.C,D27*%
X313721875Y-108618750D02*
X313721875Y-112628750D01*
X313721875Y-112628750D02*
X315721875Y-112628750D01*
X315721875Y-108618750D02*
X315721875Y-112628750D01*
%TO.C,D69*%
X204184375Y-165768750D02*
X204184375Y-169778750D01*
X204184375Y-169778750D02*
X206184375Y-169778750D01*
X206184375Y-165768750D02*
X206184375Y-169778750D01*
%TO.C,D82*%
X113696875Y-165768750D02*
X113696875Y-169778750D01*
X113696875Y-169778750D02*
X115696875Y-169778750D01*
X115696875Y-165768750D02*
X115696875Y-169778750D01*
%TO.C,D47*%
X399446875Y-127668750D02*
X399446875Y-131678750D01*
X399446875Y-131678750D02*
X401446875Y-131678750D01*
X401446875Y-127668750D02*
X401446875Y-131678750D01*
%TO.C,D32*%
X408971875Y-108618750D02*
X408971875Y-112628750D01*
X408971875Y-112628750D02*
X410971875Y-112628750D01*
X410971875Y-108618750D02*
X410971875Y-112628750D01*
%TO.C,D49*%
X94646875Y-146718750D02*
X94646875Y-150728750D01*
X94646875Y-150728750D02*
X96646875Y-150728750D01*
X96646875Y-146718750D02*
X96646875Y-150728750D01*
%TO.C,D83*%
X113696875Y-184818750D02*
X113696875Y-188828750D01*
X113696875Y-188828750D02*
X115696875Y-188828750D01*
X115696875Y-184818750D02*
X115696875Y-188828750D01*
%TO.C,D79*%
X394684375Y-165768750D02*
X394684375Y-169778750D01*
X394684375Y-169778750D02*
X396684375Y-169778750D01*
X396684375Y-165768750D02*
X396684375Y-169778750D01*
%TO.C,D10*%
X275621875Y-89568750D02*
X275621875Y-93578750D01*
X275621875Y-93578750D02*
X277621875Y-93578750D01*
X277621875Y-89568750D02*
X277621875Y-93578750D01*
%TO.C,D18*%
X113696875Y-127668750D02*
X113696875Y-131678750D01*
X113696875Y-131678750D02*
X115696875Y-131678750D01*
X115696875Y-127668750D02*
X115696875Y-131678750D01*
%TO.C,D67*%
X94646875Y-165768750D02*
X94646875Y-169778750D01*
X94646875Y-169778750D02*
X96646875Y-169778750D01*
X96646875Y-165768750D02*
X96646875Y-169778750D01*
%TO.C,D78*%
X375634375Y-165768750D02*
X375634375Y-169778750D01*
X375634375Y-169778750D02*
X377634375Y-169778750D01*
X377634375Y-165768750D02*
X377634375Y-169778750D01*
%TO.C,D14*%
X351821875Y-89568750D02*
X351821875Y-93578750D01*
X351821875Y-93578750D02*
X353821875Y-93578750D01*
X353821875Y-89568750D02*
X353821875Y-93578750D01*
%TO.C,D93*%
X428021875Y-184818750D02*
X428021875Y-188828750D01*
X428021875Y-188828750D02*
X430021875Y-188828750D01*
X430021875Y-184818750D02*
X430021875Y-188828750D01*
%TO.C,D80*%
X428021875Y-165768750D02*
X428021875Y-169778750D01*
X428021875Y-169778750D02*
X430021875Y-169778750D01*
X430021875Y-165768750D02*
X430021875Y-169778750D01*
%TO.C,D16*%
X389921875Y-89568750D02*
X389921875Y-93578750D01*
X389921875Y-93578750D02*
X391921875Y-93578750D01*
X391921875Y-89568750D02*
X391921875Y-93578750D01*
%TO.C,D20*%
X180371875Y-108618750D02*
X180371875Y-112628750D01*
X180371875Y-112628750D02*
X182371875Y-112628750D01*
X182371875Y-108618750D02*
X182371875Y-112628750D01*
%TO.C,D53*%
X194659375Y-146718750D02*
X194659375Y-150728750D01*
X194659375Y-150728750D02*
X196659375Y-150728750D01*
X196659375Y-146718750D02*
X196659375Y-150728750D01*
%TO.C,D43*%
X323246875Y-127668750D02*
X323246875Y-131678750D01*
X323246875Y-131678750D02*
X325246875Y-131678750D01*
X325246875Y-127668750D02*
X325246875Y-131678750D01*
%TO.C,D25*%
X275621875Y-108618750D02*
X275621875Y-112628750D01*
X275621875Y-112628750D02*
X277621875Y-112628750D01*
X277621875Y-108618750D02*
X277621875Y-112628750D01*
%TO.C,D13*%
X332771875Y-89568750D02*
X332771875Y-93578750D01*
X332771875Y-93578750D02*
X334771875Y-93578750D01*
X334771875Y-89568750D02*
X334771875Y-93578750D01*
%TO.C,D85*%
X161321875Y-184818750D02*
X161321875Y-188828750D01*
X161321875Y-188828750D02*
X163321875Y-188828750D01*
X163321875Y-184818750D02*
X163321875Y-188828750D01*
%TO.C,D86*%
X185134375Y-184818750D02*
X185134375Y-188828750D01*
X185134375Y-188828750D02*
X187134375Y-188828750D01*
X187134375Y-184818750D02*
X187134375Y-188828750D01*
%TO.C,D22*%
X218471875Y-108618750D02*
X218471875Y-112628750D01*
X218471875Y-112628750D02*
X220471875Y-112628750D01*
X220471875Y-108618750D02*
X220471875Y-112628750D01*
%TO.C,D33*%
X78596875Y-130668750D02*
X78596875Y-134678750D01*
X78596875Y-134678750D02*
X80596875Y-134678750D01*
X80596875Y-130668750D02*
X80596875Y-134678750D01*
%TO.C,D2*%
X78596875Y-111284375D02*
X78596875Y-115294375D01*
X78596875Y-115294375D02*
X80596875Y-115294375D01*
X80596875Y-111284375D02*
X80596875Y-115294375D01*
%TO.C,D62*%
X366109375Y-146718750D02*
X366109375Y-150728750D01*
X366109375Y-150728750D02*
X368109375Y-150728750D01*
X368109375Y-146718750D02*
X368109375Y-150728750D01*
%TO.C,D88*%
X223234375Y-184818750D02*
X223234375Y-188828750D01*
X223234375Y-188828750D02*
X225234375Y-188828750D01*
X225234375Y-184818750D02*
X225234375Y-188828750D01*
%TO.C,D55*%
X232759375Y-146718750D02*
X232759375Y-150728750D01*
X232759375Y-150728750D02*
X234759375Y-150728750D01*
X234759375Y-146718750D02*
X234759375Y-150728750D01*
%TO.C,D75*%
X318484375Y-165768750D02*
X318484375Y-169778750D01*
X318484375Y-169778750D02*
X320484375Y-169778750D01*
X320484375Y-165768750D02*
X320484375Y-169778750D01*
%TO.C,D72*%
X261334375Y-165768750D02*
X261334375Y-169778750D01*
X261334375Y-169778750D02*
X263334375Y-169778750D01*
X263334375Y-165768750D02*
X263334375Y-169778750D01*
%TO.C,D70*%
X223234375Y-165768750D02*
X223234375Y-169778750D01*
X223234375Y-169778750D02*
X225234375Y-169778750D01*
X225234375Y-165768750D02*
X225234375Y-169778750D01*
%TO.C,D36*%
X189896875Y-127668750D02*
X189896875Y-131678750D01*
X189896875Y-131678750D02*
X191896875Y-131678750D01*
X191896875Y-127668750D02*
X191896875Y-131678750D01*
%TO.C,D29*%
X351821875Y-108618750D02*
X351821875Y-112628750D01*
X351821875Y-112628750D02*
X353821875Y-112628750D01*
X353821875Y-108618750D02*
X353821875Y-112628750D01*
%TO.C,D9*%
X256571875Y-89568750D02*
X256571875Y-93578750D01*
X256571875Y-93578750D02*
X258571875Y-93578750D01*
X258571875Y-89568750D02*
X258571875Y-93578750D01*
%TO.C,D63*%
X385159375Y-146718750D02*
X385159375Y-150728750D01*
X385159375Y-150728750D02*
X387159375Y-150728750D01*
X387159375Y-146718750D02*
X387159375Y-150728750D01*
%TO.C,D40*%
X266096875Y-127668750D02*
X266096875Y-131678750D01*
X266096875Y-131678750D02*
X268096875Y-131678750D01*
X268096875Y-127668750D02*
X268096875Y-131678750D01*
%TO.C,D60*%
X328009375Y-146718750D02*
X328009375Y-150728750D01*
X328009375Y-150728750D02*
X330009375Y-150728750D01*
X330009375Y-146718750D02*
X330009375Y-150728750D01*
%TO.C,D54*%
X213709375Y-146718750D02*
X213709375Y-150728750D01*
X213709375Y-150728750D02*
X215709375Y-150728750D01*
X215709375Y-146718750D02*
X215709375Y-150728750D01*
%TO.C,D46*%
X380396875Y-127668750D02*
X380396875Y-131678750D01*
X380396875Y-131678750D02*
X382396875Y-131678750D01*
X382396875Y-127668750D02*
X382396875Y-131678750D01*
%TO.C,D50*%
X113696875Y-146718750D02*
X113696875Y-150728750D01*
X113696875Y-150728750D02*
X115696875Y-150728750D01*
X115696875Y-146718750D02*
X115696875Y-150728750D01*
%TO.C,D38*%
X227996875Y-127668750D02*
X227996875Y-131678750D01*
X227996875Y-131678750D02*
X229996875Y-131678750D01*
X229996875Y-127668750D02*
X229996875Y-131678750D01*
%TO.C,D66*%
X78596875Y-168768750D02*
X78596875Y-172778750D01*
X78596875Y-172778750D02*
X80596875Y-172778750D01*
X80596875Y-168768750D02*
X80596875Y-172778750D01*
%TO.C,D59*%
X308959375Y-146718750D02*
X308959375Y-150728750D01*
X308959375Y-150728750D02*
X310959375Y-150728750D01*
X310959375Y-146718750D02*
X310959375Y-150728750D01*
%TO.C,D94*%
X447071875Y-184818750D02*
X447071875Y-188828750D01*
X447071875Y-188828750D02*
X449071875Y-188828750D01*
X449071875Y-184818750D02*
X449071875Y-188828750D01*
%TO.C,D95*%
X447071875Y-165768750D02*
X447071875Y-169778750D01*
X447071875Y-169778750D02*
X449071875Y-169778750D01*
X449071875Y-165768750D02*
X449071875Y-169778750D01*
%TO.C,D7*%
X218471875Y-89568750D02*
X218471875Y-93578750D01*
X218471875Y-93578750D02*
X220471875Y-93578750D01*
X220471875Y-89568750D02*
X220471875Y-93578750D01*
%TO.C,D64*%
X404209375Y-146718750D02*
X404209375Y-150728750D01*
X404209375Y-150728750D02*
X406209375Y-150728750D01*
X406209375Y-146718750D02*
X406209375Y-150728750D01*
%TO.C,D48*%
X418496875Y-127668750D02*
X418496875Y-131678750D01*
X418496875Y-131678750D02*
X420496875Y-131678750D01*
X420496875Y-127668750D02*
X420496875Y-131678750D01*
%TO.C,D15*%
X370871875Y-89568750D02*
X370871875Y-93578750D01*
X370871875Y-93578750D02*
X372871875Y-93578750D01*
X372871875Y-89568750D02*
X372871875Y-93578750D01*
%TO.C,D4*%
X161321875Y-89568750D02*
X161321875Y-93578750D01*
X161321875Y-93578750D02*
X163321875Y-93578750D01*
X163321875Y-89568750D02*
X163321875Y-93578750D01*
%TO.C,D52*%
X161321875Y-146718750D02*
X161321875Y-150728750D01*
X161321875Y-150728750D02*
X163321875Y-150728750D01*
X163321875Y-146718750D02*
X163321875Y-150728750D01*
%TO.C,D92*%
X408971875Y-184818750D02*
X408971875Y-188828750D01*
X408971875Y-188828750D02*
X410971875Y-188828750D01*
X410971875Y-184818750D02*
X410971875Y-188828750D01*
%TO.C,D37*%
X208946875Y-127668750D02*
X208946875Y-131678750D01*
X208946875Y-131678750D02*
X210946875Y-131678750D01*
X210946875Y-127668750D02*
X210946875Y-131678750D01*
%TO.C,D68*%
X161321875Y-165768750D02*
X161321875Y-169778750D01*
X161321875Y-169778750D02*
X163321875Y-169778750D01*
X163321875Y-165768750D02*
X163321875Y-169778750D01*
%TD*%
M02*
