%TF.GenerationSoftware,KiCad,Pcbnew,8.0.8*%
%TF.CreationDate,2025-04-09T15:43:05-07:00*%
%TF.ProjectId,hackboard,6861636b-626f-4617-9264-2e6b69636164,rev?*%
%TF.SameCoordinates,Original*%
%TF.FileFunction,Copper,L1,Top*%
%TF.FilePolarity,Positive*%
%FSLAX46Y46*%
G04 Gerber Fmt 4.6, Leading zero omitted, Abs format (unit mm)*
G04 Created by KiCad (PCBNEW 8.0.8) date 2025-04-09 15:43:05*
%MOMM*%
%LPD*%
G01*
G04 APERTURE LIST*
G04 Aperture macros list*
%AMRoundRect*
0 Rectangle with rounded corners*
0 $1 Rounding radius*
0 $2 $3 $4 $5 $6 $7 $8 $9 X,Y pos of 4 corners*
0 Add a 4 corners polygon primitive as box body*
4,1,4,$2,$3,$4,$5,$6,$7,$8,$9,$2,$3,0*
0 Add four circle primitives for the rounded corners*
1,1,$1+$1,$2,$3*
1,1,$1+$1,$4,$5*
1,1,$1+$1,$6,$7*
1,1,$1+$1,$8,$9*
0 Add four rect primitives between the rounded corners*
20,1,$1+$1,$2,$3,$4,$5,0*
20,1,$1+$1,$4,$5,$6,$7,0*
20,1,$1+$1,$6,$7,$8,$9,0*
20,1,$1+$1,$8,$9,$2,$3,0*%
%AMFreePoly0*
4,1,28,0.605014,0.794986,0.644504,0.794986,0.724698,0.756366,0.780194,0.686777,0.800000,0.600000,0.800000,-0.600000,0.780194,-0.686777,0.724698,-0.756366,0.644504,-0.794986,0.605014,-0.794986,0.600000,-0.800000,0.000000,-0.800000,-0.178017,-0.779942,-0.347107,-0.720775,-0.498792,-0.625465,-0.625465,-0.498792,-0.720775,-0.347107,-0.779942,-0.178017,-0.800000,0.000000,-0.779942,0.178017,
-0.720775,0.347107,-0.625465,0.498792,-0.498792,0.625465,-0.347107,0.720775,-0.178017,0.779942,0.000000,0.800000,0.600000,0.800000,0.605014,0.794986,0.605014,0.794986,$1*%
%AMFreePoly1*
4,1,28,0.178017,0.779942,0.347107,0.720775,0.498792,0.625465,0.625465,0.498792,0.720775,0.347107,0.779942,0.178017,0.800000,0.000000,0.779942,-0.178017,0.720775,-0.347107,0.625465,-0.498792,0.498792,-0.625465,0.347107,-0.720775,0.178017,-0.779942,0.000000,-0.800000,-0.600000,-0.800000,-0.605014,-0.794986,-0.644504,-0.794986,-0.724698,-0.756366,-0.780194,-0.686777,-0.800000,-0.600000,
-0.800000,0.600000,-0.780194,0.686777,-0.724698,0.756366,-0.644504,0.794986,-0.605014,0.794986,-0.600000,0.800000,0.000000,0.800000,0.178017,0.779942,0.178017,0.779942,$1*%
G04 Aperture macros list end*
%TA.AperFunction,ComponentPad*%
%ADD10C,2.200000*%
%TD*%
%TA.AperFunction,ComponentPad*%
%ADD11R,1.700000X1.700000*%
%TD*%
%TA.AperFunction,ComponentPad*%
%ADD12O,1.700000X1.700000*%
%TD*%
%TA.AperFunction,ComponentPad*%
%ADD13RoundRect,0.200000X0.600000X-0.600000X0.600000X0.600000X-0.600000X0.600000X-0.600000X-0.600000X0*%
%TD*%
%TA.AperFunction,ComponentPad*%
%ADD14C,1.600000*%
%TD*%
%TA.AperFunction,ComponentPad*%
%ADD15FreePoly0,90.000000*%
%TD*%
%TA.AperFunction,ComponentPad*%
%ADD16FreePoly1,90.000000*%
%TD*%
%TA.AperFunction,ComponentPad*%
%ADD17R,2.000000X2.000000*%
%TD*%
%TA.AperFunction,ComponentPad*%
%ADD18C,2.000000*%
%TD*%
%TA.AperFunction,ComponentPad*%
%ADD19R,3.200000X2.000000*%
%TD*%
%TA.AperFunction,ViaPad*%
%ADD20C,0.600000*%
%TD*%
%TA.AperFunction,Conductor*%
%ADD21C,0.250000*%
%TD*%
%TA.AperFunction,Conductor*%
%ADD22C,0.400000*%
%TD*%
%TA.AperFunction,Conductor*%
%ADD23C,0.500000*%
%TD*%
%TA.AperFunction,Conductor*%
%ADD24C,0.300000*%
%TD*%
G04 APERTURE END LIST*
D10*
%TO.P,SW74,1,1*%
%TO.N,col 10*%
X312181875Y-160813750D03*
%TO.P,SW74,2,2*%
%TO.N,Net-(D74-A)*%
X305831875Y-163353750D03*
%TD*%
%TO.P,SW13,1,1*%
%TO.N,col 12*%
X345519375Y-84613750D03*
%TO.P,SW13,2,2*%
%TO.N,Net-(D13-A)*%
X339169375Y-87153750D03*
%TD*%
%TO.P,SW53,1,1*%
%TO.N,col 5*%
X207406875Y-141763750D03*
%TO.P,SW53,2,2*%
%TO.N,Net-(D53-A)*%
X201056875Y-144303750D03*
%TD*%
%TO.P,SW72,1,1*%
%TO.N,col 8*%
X274081875Y-160813750D03*
%TO.P,SW72,2,2*%
%TO.N,Net-(D72-A)*%
X267731875Y-163353750D03*
%TD*%
%TO.P,SW3,1,1*%
%TO.N,col 2*%
X107394375Y-103663750D03*
%TO.P,SW3,2,2*%
%TO.N,Net-(D3-A)*%
X101044375Y-106203750D03*
%TD*%
%TO.P,SW50,1,1*%
%TO.N,col 2*%
X126444375Y-141763750D03*
%TO.P,SW50,2,2*%
%TO.N,Net-(D50-A)*%
X120094375Y-144303750D03*
%TD*%
%TO.P,SW75,1,1*%
%TO.N,col 11*%
X331231875Y-160813750D03*
%TO.P,SW75,2,2*%
%TO.N,Net-(D75-A)*%
X324881875Y-163353750D03*
%TD*%
%TO.P,SW61,1,1*%
%TO.N,col 13*%
X359806875Y-141763750D03*
%TO.P,SW61,2,2*%
%TO.N,Net-(D61-A)*%
X353456875Y-144303750D03*
%TD*%
%TO.P,SW14,1,1*%
%TO.N,col 13*%
X364569375Y-84613750D03*
%TO.P,SW14,2,2*%
%TO.N,Net-(D14-A)*%
X358219375Y-87153750D03*
%TD*%
%TO.P,SW47,1,1*%
%TO.N,col 15*%
X412194375Y-122713750D03*
%TO.P,SW47,2,2*%
%TO.N,Net-(D47-A)*%
X405844375Y-125253750D03*
%TD*%
%TO.P,SW25,1,1*%
%TO.N,col 9*%
X288369375Y-103663750D03*
%TO.P,SW25,2,2*%
%TO.N,Net-(D25-A)*%
X282019375Y-106203750D03*
%TD*%
%TO.P,SW79,1,1*%
%TO.N,col 15*%
X414575625Y-160813750D03*
%TO.P,SW79,2,2*%
%TO.N,Net-(D79-A)*%
X408225625Y-163353750D03*
%TD*%
D11*
%TO.P,Brd1,1,GND*%
%TO.N,GND*%
X411803750Y-92991875D03*
D12*
%TO.P,Brd1,2,VCC*%
%TO.N,+5V*%
X411803750Y-90451875D03*
%TO.P,Brd1,3,SCL*%
%TO.N,clock*%
X411803750Y-87911875D03*
%TO.P,Brd1,4,SDA*%
%TO.N,data*%
X411803750Y-85371875D03*
%TD*%
D10*
%TO.P,SW32,1,1*%
%TO.N,col 16*%
X431244375Y-103663750D03*
%TO.P,SW32,2,2*%
%TO.N,Net-(D32-A)*%
X424894375Y-106203750D03*
%TD*%
%TO.P,SW90,1,1*%
%TO.N,col 11*%
X376475625Y-179863750D03*
%TO.P,SW90,2,2*%
%TO.N,Net-(D90-A)*%
X370125625Y-182403750D03*
%TD*%
%TO.P,SW68,1,1*%
%TO.N,col 4*%
X185975625Y-160813750D03*
%TO.P,SW68,2,2*%
%TO.N,Net-(D68-A)*%
X179625625Y-163353750D03*
%TD*%
%TO.P,SW49,1,1*%
%TO.N,col 1*%
X107394375Y-141763750D03*
%TO.P,SW49,2,2*%
%TO.N,Net-(D49-A)*%
X101044375Y-144303750D03*
%TD*%
%TO.P,SW11,1,1*%
%TO.N,col 10*%
X307419375Y-84613750D03*
%TO.P,SW11,2,2*%
%TO.N,Net-(D11-A)*%
X301069375Y-87153750D03*
%TD*%
%TO.P,SW81,1,1*%
%TO.N,col 1*%
X97869375Y-179863750D03*
%TO.P,SW81,2,2*%
%TO.N,Net-(D81-A)*%
X91519375Y-182403750D03*
%TD*%
%TO.P,SW58,1,1*%
%TO.N,col 10*%
X302656875Y-141763750D03*
%TO.P,SW58,2,2*%
%TO.N,Net-(D58-A)*%
X296306875Y-144303750D03*
%TD*%
%TO.P,SW56,1,1*%
%TO.N,col 8*%
X264556875Y-141763750D03*
%TO.P,SW56,2,2*%
%TO.N,Net-(D56-A)*%
X258206875Y-144303750D03*
%TD*%
%TO.P,SW80,1,1*%
%TO.N,col 16*%
X440769375Y-160813750D03*
%TO.P,SW80,2,2*%
%TO.N,Net-(D80-A)*%
X434419375Y-163353750D03*
%TD*%
%TO.P,SW7,1,1*%
%TO.N,col 6*%
X231219375Y-84613750D03*
%TO.P,SW7,2,2*%
%TO.N,Net-(D7-A)*%
X224869375Y-87153750D03*
%TD*%
%TO.P,SW51,1,1*%
%TO.N,col 3*%
X145494375Y-132238750D03*
%TO.P,SW51,2,2*%
%TO.N,Net-(D51-A)*%
X139144375Y-134778750D03*
%TD*%
%TO.P,SW54,1,1*%
%TO.N,col 6*%
X226456875Y-141763750D03*
%TO.P,SW54,2,2*%
%TO.N,Net-(D54-A)*%
X220106875Y-144303750D03*
%TD*%
%TO.P,SW30,1,1*%
%TO.N,col 14*%
X383619375Y-103663750D03*
%TO.P,SW30,2,2*%
%TO.N,Net-(D30-A)*%
X377269375Y-106203750D03*
%TD*%
%TO.P,SW40,1,1*%
%TO.N,col 8*%
X278844375Y-122713750D03*
%TO.P,SW40,2,2*%
%TO.N,Net-(D40-A)*%
X272494375Y-125253750D03*
%TD*%
%TO.P,SW27,1,1*%
%TO.N,col 11*%
X326469375Y-103663750D03*
%TO.P,SW27,2,2*%
%TO.N,Net-(D27-A)*%
X320119375Y-106203750D03*
%TD*%
%TO.P,SW83,1,1*%
%TO.N,col 3*%
X126444375Y-179863750D03*
%TO.P,SW83,2,2*%
%TO.N,Net-(D83-A)*%
X120094375Y-182403750D03*
%TD*%
%TO.P,SW38,1,1*%
%TO.N,col 6*%
X240744375Y-122713750D03*
%TO.P,SW38,2,2*%
%TO.N,Net-(D38-A)*%
X234394375Y-125253750D03*
%TD*%
%TO.P,SW85,1,1*%
%TO.N,col 5*%
X176450625Y-179863750D03*
%TO.P,SW85,2,2*%
%TO.N,Net-(D85-A)*%
X170100625Y-182403750D03*
%TD*%
%TO.P,SW8,1,1*%
%TO.N,col 7*%
X250269375Y-84613750D03*
%TO.P,SW8,2,2*%
%TO.N,Net-(D8-A)*%
X243919375Y-87153750D03*
%TD*%
%TO.P,SW93,1,1*%
%TO.N,col 14*%
X440769375Y-179863750D03*
%TO.P,SW93,2,2*%
%TO.N,Net-(D93-A)*%
X434419375Y-182403750D03*
%TD*%
%TO.P,SW22,1,1*%
%TO.N,col 6*%
X231219375Y-103663750D03*
%TO.P,SW22,2,2*%
%TO.N,Net-(D22-A)*%
X224869375Y-106203750D03*
%TD*%
%TO.P,SW62,1,1*%
%TO.N,col 14*%
X378856875Y-141763750D03*
%TO.P,SW62,2,2*%
%TO.N,Net-(D62-A)*%
X372506875Y-144303750D03*
%TD*%
%TO.P,SW67,1,1*%
%TO.N,col 3*%
X107394375Y-160813750D03*
%TO.P,SW67,2,2*%
%TO.N,Net-(D67-A)*%
X101044375Y-163353750D03*
%TD*%
%TO.P,SW59,1,1*%
%TO.N,col 11*%
X321706875Y-141763750D03*
%TO.P,SW59,2,2*%
%TO.N,Net-(D59-A)*%
X315356875Y-144303750D03*
%TD*%
%TO.P,SW44,1,1*%
%TO.N,col 12*%
X355044375Y-122713750D03*
%TO.P,SW44,2,2*%
%TO.N,Net-(D44-A)*%
X348694375Y-125253750D03*
%TD*%
%TO.P,SW37,1,1*%
%TO.N,col 5*%
X221694375Y-122713750D03*
%TO.P,SW37,2,2*%
%TO.N,Net-(D37-A)*%
X215344375Y-125253750D03*
%TD*%
%TO.P,SW26,1,1*%
%TO.N,col 10*%
X307419375Y-103663750D03*
%TO.P,SW26,2,2*%
%TO.N,Net-(D26-A)*%
X301069375Y-106203750D03*
%TD*%
%TO.P,SW94,1,1*%
%TO.N,col 15*%
X459819375Y-179863750D03*
%TO.P,SW94,2,2*%
%TO.N,Net-(D94-A)*%
X453469375Y-182403750D03*
%TD*%
%TO.P,SW55,1,1*%
%TO.N,col 7*%
X245506875Y-141763750D03*
%TO.P,SW55,2,2*%
%TO.N,Net-(D55-A)*%
X239156875Y-144303750D03*
%TD*%
D13*
%TO.P,U1,1,GPIO0*%
%TO.N,row 6*%
X76180000Y-96330000D03*
D14*
%TO.P,U1,2,GPIO1*%
%TO.N,col 1*%
X78720000Y-96330000D03*
D15*
%TO.P,U1,3,GND*%
%TO.N,unconnected-(U1-GND-Pad3)*%
X81260000Y-96330000D03*
D14*
%TO.P,U1,4,GPIO2*%
%TO.N,row 1*%
X83800000Y-96330000D03*
%TO.P,U1,5,GPIO3*%
%TO.N,row 2*%
X86340000Y-96330000D03*
%TO.P,U1,6,GPIO4*%
%TO.N,row 3*%
X88880000Y-96330000D03*
%TO.P,U1,7,GPIO5*%
%TO.N,row 4*%
X91420000Y-96330000D03*
D15*
%TO.P,U1,8,GND*%
%TO.N,unconnected-(U1-GND-Pad8)*%
X93960000Y-96330000D03*
D14*
%TO.P,U1,9,GPIO6*%
%TO.N,row 5*%
X96500000Y-96330000D03*
%TO.P,U1,10,GPIO7*%
%TO.N,col 2*%
X99040000Y-96330000D03*
%TO.P,U1,11,GPIO8*%
%TO.N,col 10*%
X101580000Y-96330000D03*
%TO.P,U1,12,GPIO9*%
%TO.N,col 11*%
X104120000Y-96330000D03*
D15*
%TO.P,U1,13,GND*%
%TO.N,unconnected-(U1-GND-Pad13)*%
X106660000Y-96330000D03*
D14*
%TO.P,U1,14,GPIO10*%
%TO.N,col 4*%
X109200000Y-96330000D03*
%TO.P,U1,15,GPIO11*%
%TO.N,col 5*%
X111740000Y-96330000D03*
%TO.P,U1,16,GPIO12*%
%TO.N,col 6*%
X114280000Y-96330000D03*
%TO.P,U1,17,GPIO13*%
%TO.N,col 7*%
X116820000Y-96330000D03*
D15*
%TO.P,U1,18,GND*%
%TO.N,unconnected-(U1-GND-Pad18)*%
X119360000Y-96330000D03*
D14*
%TO.P,U1,19,GPIO14*%
%TO.N,col 8*%
X121900000Y-96330000D03*
%TO.P,U1,20,GPIO15*%
%TO.N,col 9*%
X124440000Y-96330000D03*
%TO.P,U1,21,GPIO16*%
%TO.N,encA*%
X124440000Y-78550000D03*
%TO.P,U1,22,GPIO17*%
%TO.N,encB*%
X121900000Y-78550000D03*
D16*
%TO.P,U1,23,GND*%
%TO.N,GND*%
X119360000Y-78550000D03*
D14*
%TO.P,U1,24,GPIO18*%
%TO.N,col 3*%
X116820000Y-78550000D03*
%TO.P,U1,25,GPIO19*%
%TO.N,col 12*%
X114280000Y-78550000D03*
%TO.P,U1,26,GPIO20*%
%TO.N,col 13*%
X111740000Y-78550000D03*
%TO.P,U1,27,GPIO21*%
%TO.N,col 14*%
X109200000Y-78550000D03*
D16*
%TO.P,U1,28,GND*%
%TO.N,unconnected-(U1-GND-Pad28)*%
X106660000Y-78550000D03*
D14*
%TO.P,U1,29,GPIO22*%
%TO.N,col 15*%
X104120000Y-78550000D03*
%TO.P,U1,30,RUN*%
%TO.N,unconnected-(U1-RUN-Pad30)*%
X101580000Y-78550000D03*
%TO.P,U1,31,GPIO26_ADC0*%
%TO.N,data*%
X99040000Y-78550000D03*
%TO.P,U1,32,GPIO27_ADC1*%
%TO.N,clock*%
X96500000Y-78550000D03*
D16*
%TO.P,U1,33,AGND*%
%TO.N,unconnected-(U1-AGND-Pad33)*%
X93960000Y-78550000D03*
D14*
%TO.P,U1,34,GPIO28_ADC2*%
%TO.N,col 16*%
X91420000Y-78550000D03*
%TO.P,U1,35,ADC_VREF*%
%TO.N,unconnected-(U1-ADC_VREF-Pad35)*%
X88880000Y-78550000D03*
%TO.P,U1,36,3V3*%
%TO.N,unconnected-(U1-3V3-Pad36)*%
X86340000Y-78550000D03*
%TO.P,U1,37,3V3_EN*%
%TO.N,unconnected-(U1-3V3_EN-Pad37)*%
X83800000Y-78550000D03*
D16*
%TO.P,U1,38,GND*%
%TO.N,unconnected-(U1-GND-Pad38)*%
X81260000Y-78550000D03*
D14*
%TO.P,U1,39,VSYS*%
%TO.N,unconnected-(U1-VSYS-Pad39)*%
X78720000Y-78550000D03*
%TO.P,U1,40,VBUS*%
%TO.N,+5V*%
X76180000Y-78550000D03*
%TD*%
D10*
%TO.P,SW63,1,1*%
%TO.N,col 15*%
X397906875Y-141763750D03*
%TO.P,SW63,2,2*%
%TO.N,Net-(D63-A)*%
X391556875Y-144303750D03*
%TD*%
%TO.P,SW9,1,1*%
%TO.N,col 8*%
X269319375Y-84613750D03*
%TO.P,SW9,2,2*%
%TO.N,Net-(D9-A)*%
X262969375Y-87153750D03*
%TD*%
%TO.P,SW5,1,1*%
%TO.N,col 4*%
X193119375Y-84613750D03*
%TO.P,SW5,2,2*%
%TO.N,Net-(D5-A)*%
X186769375Y-87153750D03*
%TD*%
%TO.P,SW2,1,1*%
%TO.N,col 1*%
X88344375Y-103663750D03*
%TO.P,SW2,2,2*%
%TO.N,Net-(D2-A)*%
X81994375Y-106203750D03*
%TD*%
%TO.P,SW84,1,1*%
%TO.N,col 4*%
X145494375Y-170338750D03*
%TO.P,SW84,2,2*%
%TO.N,Net-(D84-A)*%
X139144375Y-172878750D03*
%TD*%
%TO.P,SW18,1,1*%
%TO.N,col 2*%
X126444375Y-122713750D03*
%TO.P,SW18,2,2*%
%TO.N,Net-(D18-A)*%
X120094375Y-125253750D03*
%TD*%
%TO.P,SW41,1,1*%
%TO.N,col 9*%
X297894375Y-122713750D03*
%TO.P,SW41,2,2*%
%TO.N,Net-(D41-A)*%
X291544375Y-125253750D03*
%TD*%
%TO.P,SW21,1,1*%
%TO.N,col 5*%
X212169375Y-103663750D03*
%TO.P,SW21,2,2*%
%TO.N,Net-(D21-A)*%
X205819375Y-106203750D03*
%TD*%
%TO.P,SW28,1,1*%
%TO.N,col 12*%
X345519375Y-103663750D03*
%TO.P,SW28,2,2*%
%TO.N,Net-(D28-A)*%
X339169375Y-106203750D03*
%TD*%
%TO.P,SW45,1,1*%
%TO.N,col 13*%
X374094375Y-122713750D03*
%TO.P,SW45,2,2*%
%TO.N,Net-(D45-A)*%
X367744375Y-125253750D03*
%TD*%
%TO.P,SW6,1,1*%
%TO.N,col 5*%
X212169375Y-84613750D03*
%TO.P,SW6,2,2*%
%TO.N,Net-(D6-A)*%
X205819375Y-87153750D03*
%TD*%
%TO.P,SW91,1,1*%
%TO.N,col 12*%
X400288125Y-179863750D03*
%TO.P,SW91,2,2*%
%TO.N,Net-(D91-A)*%
X393938125Y-182403750D03*
%TD*%
%TO.P,SW92,1,1*%
%TO.N,col 13*%
X421719375Y-179863750D03*
%TO.P,SW92,2,2*%
%TO.N,Net-(D92-A)*%
X415369375Y-182403750D03*
%TD*%
%TO.P,SW73,1,1*%
%TO.N,col 9*%
X293131875Y-160813750D03*
%TO.P,SW73,2,2*%
%TO.N,Net-(D73-A)*%
X286781875Y-163353750D03*
%TD*%
%TO.P,SW29,1,1*%
%TO.N,col 13*%
X364569375Y-103663750D03*
%TO.P,SW29,2,2*%
%TO.N,Net-(D29-A)*%
X358219375Y-106203750D03*
%TD*%
D17*
%TO.P,SW1,A,A*%
%TO.N,encB*%
X449950000Y-86678125D03*
D18*
%TO.P,SW1,B,B*%
%TO.N,encA*%
X449950000Y-91678125D03*
%TO.P,SW1,C,C*%
%TO.N,GND*%
X449950000Y-89178125D03*
D19*
%TO.P,SW1,MP*%
%TO.N,N/C*%
X457450000Y-83578125D03*
X457450000Y-94778125D03*
D18*
%TO.P,SW1,S1,S1*%
%TO.N,Net-(D1-A)*%
X464450000Y-91678125D03*
%TO.P,SW1,S2,S2*%
%TO.N,col 16*%
X464450000Y-86678125D03*
%TD*%
D10*
%TO.P,SW88,1,1*%
%TO.N,col 8*%
X235981875Y-179863750D03*
%TO.P,SW88,2,2*%
%TO.N,Net-(D88-A)*%
X229631875Y-182403750D03*
%TD*%
%TO.P,SW89,1,1*%
%TO.N,col 10*%
X305038125Y-179863750D03*
%TO.P,SW89,2,2*%
%TO.N,Net-(D89-A)*%
X298688125Y-182403750D03*
%TD*%
%TO.P,SW82,1,1*%
%TO.N,col 2*%
X126444375Y-160813750D03*
%TO.P,SW82,2,2*%
%TO.N,Net-(D82-A)*%
X120094375Y-163353750D03*
%TD*%
%TO.P,SW12,1,1*%
%TO.N,col 11*%
X326469375Y-84613750D03*
%TO.P,SW12,2,2*%
%TO.N,Net-(D12-A)*%
X320119375Y-87153750D03*
%TD*%
%TO.P,SW24,1,1*%
%TO.N,col 8*%
X269319375Y-103663750D03*
%TO.P,SW24,2,2*%
%TO.N,Net-(D24-A)*%
X262969375Y-106203750D03*
%TD*%
%TO.P,SW52,1,1*%
%TO.N,col 4*%
X181213125Y-141763750D03*
%TO.P,SW52,2,2*%
%TO.N,Net-(D52-A)*%
X174863125Y-144303750D03*
%TD*%
%TO.P,SW15,1,1*%
%TO.N,col 14*%
X383619375Y-84613750D03*
%TO.P,SW15,2,2*%
%TO.N,Net-(D15-A)*%
X377269375Y-87153750D03*
%TD*%
%TO.P,SW23,1,1*%
%TO.N,col 7*%
X250269375Y-103663750D03*
%TO.P,SW23,2,2*%
%TO.N,Net-(D23-A)*%
X243919375Y-106203750D03*
%TD*%
%TO.P,SW4,1,1*%
%TO.N,col 3*%
X174069375Y-84613750D03*
%TO.P,SW4,2,2*%
%TO.N,Net-(D4-A)*%
X167719375Y-87153750D03*
%TD*%
%TO.P,SW19,1,1*%
%TO.N,col 3*%
X174069375Y-103663750D03*
%TO.P,SW19,2,2*%
%TO.N,Net-(D19-A)*%
X167719375Y-106203750D03*
%TD*%
%TO.P,SW46,1,1*%
%TO.N,col 14*%
X393144375Y-122713750D03*
%TO.P,SW46,2,2*%
%TO.N,Net-(D46-A)*%
X386794375Y-125253750D03*
%TD*%
%TO.P,SW16,1,1*%
%TO.N,col 15*%
X402669370Y-84613750D03*
%TO.P,SW16,2,2*%
%TO.N,Net-(D16-A)*%
X396319370Y-87153750D03*
%TD*%
%TO.P,SW65,1,1*%
%TO.N,col 1*%
X88344375Y-141763750D03*
%TO.P,SW65,2,2*%
%TO.N,Net-(D65-A)*%
X81994375Y-144303750D03*
%TD*%
%TO.P,SW48,1,1*%
%TO.N,col 16*%
X436006875Y-122713750D03*
%TO.P,SW48,2,2*%
%TO.N,Net-(D48-A)*%
X429656875Y-125253750D03*
%TD*%
%TO.P,SW43,1,1*%
%TO.N,col 11*%
X335994375Y-122713750D03*
%TO.P,SW43,2,2*%
%TO.N,Net-(D43-A)*%
X329644375Y-125253750D03*
%TD*%
%TO.P,SW70,1,1*%
%TO.N,col 6*%
X235981875Y-160813750D03*
%TO.P,SW70,2,2*%
%TO.N,Net-(D70-A)*%
X229631875Y-163353750D03*
%TD*%
%TO.P,SW57,1,1*%
%TO.N,col 9*%
X283606875Y-141763750D03*
%TO.P,SW57,2,2*%
%TO.N,Net-(D57-A)*%
X277256875Y-144303750D03*
%TD*%
%TO.P,SW35,1,1*%
%TO.N,col 3*%
X178831875Y-122713750D03*
%TO.P,SW35,2,2*%
%TO.N,Net-(D35-A)*%
X172481875Y-125253750D03*
%TD*%
%TO.P,SW34,1,1*%
%TO.N,col 2*%
X107394375Y-122713750D03*
%TO.P,SW34,2,2*%
%TO.N,Net-(D34-A)*%
X101044375Y-125253750D03*
%TD*%
%TO.P,SW77,1,1*%
%TO.N,col 13*%
X369331875Y-160813750D03*
%TO.P,SW77,2,2*%
%TO.N,Net-(D77-A)*%
X362981875Y-163353750D03*
%TD*%
%TO.P,SW10,1,1*%
%TO.N,col 9*%
X288369375Y-84613750D03*
%TO.P,SW10,2,2*%
%TO.N,Net-(D10-A)*%
X282019375Y-87153750D03*
%TD*%
%TO.P,SW71,1,1*%
%TO.N,col 7*%
X255031875Y-160813750D03*
%TO.P,SW71,2,2*%
%TO.N,Net-(D71-A)*%
X248681875Y-163353750D03*
%TD*%
%TO.P,SW64,1,1*%
%TO.N,col 16*%
X428863125Y-141763750D03*
%TO.P,SW64,2,2*%
%TO.N,Net-(D64-A)*%
X422513125Y-144303750D03*
%TD*%
%TO.P,SW66,1,1*%
%TO.N,col 2*%
X88344375Y-160813750D03*
%TO.P,SW66,2,2*%
%TO.N,Net-(D66-A)*%
X81994375Y-163353750D03*
%TD*%
%TO.P,SW33,1,1*%
%TO.N,col 1*%
X88344375Y-122713750D03*
%TO.P,SW33,2,2*%
%TO.N,Net-(D33-A)*%
X81994375Y-125253750D03*
%TD*%
%TO.P,SW39,1,1*%
%TO.N,col 7*%
X259794375Y-122713750D03*
%TO.P,SW39,2,2*%
%TO.N,Net-(D39-A)*%
X253444375Y-125253750D03*
%TD*%
%TO.P,SW36,1,1*%
%TO.N,col 4*%
X202644375Y-122713750D03*
%TO.P,SW36,2,2*%
%TO.N,Net-(D36-A)*%
X196294375Y-125253750D03*
%TD*%
%TO.P,SW42,1,1*%
%TO.N,col 10*%
X316944375Y-122713750D03*
%TO.P,SW42,2,2*%
%TO.N,Net-(D42-A)*%
X310594375Y-125253750D03*
%TD*%
%TO.P,SW20,1,1*%
%TO.N,col 4*%
X193119375Y-103663750D03*
%TO.P,SW20,2,2*%
%TO.N,Net-(D20-A)*%
X186769375Y-106203750D03*
%TD*%
%TO.P,SW76,1,1*%
%TO.N,col 12*%
X350281875Y-160813750D03*
%TO.P,SW76,2,2*%
%TO.N,Net-(D76-A)*%
X343931875Y-163353750D03*
%TD*%
%TO.P,SW86,1,1*%
%TO.N,col 6*%
X197881875Y-179863750D03*
%TO.P,SW86,2,2*%
%TO.N,Net-(D86-A)*%
X191531875Y-182403750D03*
%TD*%
%TO.P,SW69,1,1*%
%TO.N,col 5*%
X216931875Y-160813750D03*
%TO.P,SW69,2,2*%
%TO.N,Net-(D69-A)*%
X210581875Y-163353750D03*
%TD*%
%TO.P,SW87,1,1*%
%TO.N,col 7*%
X216931875Y-179863750D03*
%TO.P,SW87,2,2*%
%TO.N,Net-(D87-A)*%
X210581875Y-182403750D03*
%TD*%
%TO.P,SW17,1,1*%
%TO.N,col 1*%
X126444375Y-103663750D03*
%TO.P,SW17,2,2*%
%TO.N,Net-(D17-A)*%
X120094375Y-106203750D03*
%TD*%
%TO.P,SW95,1,1*%
%TO.N,col 16*%
X459819375Y-160813750D03*
%TO.P,SW95,2,2*%
%TO.N,Net-(D95-A)*%
X453469375Y-163353750D03*
%TD*%
%TO.P,SW60,1,1*%
%TO.N,col 12*%
X340756875Y-141763750D03*
%TO.P,SW60,2,2*%
%TO.N,Net-(D60-A)*%
X334406875Y-144303750D03*
%TD*%
%TO.P,SW78,1,1*%
%TO.N,col 14*%
X388381875Y-160813750D03*
%TO.P,SW78,2,2*%
%TO.N,Net-(D78-A)*%
X382031875Y-163353750D03*
%TD*%
%TO.P,SW31,1,1*%
%TO.N,col 15*%
X402669375Y-103663750D03*
%TO.P,SW31,2,2*%
%TO.N,Net-(D31-A)*%
X396319375Y-106203750D03*
%TD*%
D20*
%TO.N,row 6*%
X113771875Y-187193750D03*
X113750000Y-170020000D03*
X79596875Y-191118750D03*
%TO.N,col 4*%
X162010000Y-120300000D03*
%TO.N,col 5*%
X217830313Y-118849687D03*
X161960000Y-118910000D03*
%TO.N,col 6*%
X161990000Y-117760000D03*
X240744375Y-117660000D03*
%TO.N,col 7*%
X161920000Y-116240000D03*
X253160313Y-116079687D03*
%TO.N,col 8*%
X270870312Y-114739688D03*
X162000000Y-114770000D03*
%TO.N,col 9*%
X162070000Y-113600000D03*
X288735312Y-113554688D03*
%TO.N,col 15*%
X394320000Y-76990000D03*
%TO.N,row 1*%
X394200000Y-96170000D03*
X118291562Y-103561562D03*
X443880000Y-96560000D03*
X160780000Y-92920000D03*
X391840000Y-93790000D03*
X447680000Y-97180000D03*
X152230000Y-101200000D03*
X120650000Y-101203125D03*
%TO.N,row 2*%
X92450000Y-121820000D03*
%TO.N,row 3*%
X93670000Y-130968750D03*
%TO.N,row 4*%
X95646875Y-150018750D03*
%TO.N,row 5*%
X96670000Y-167880000D03*
%TO.N,encB*%
X433770000Y-98590000D03*
%TD*%
D21*
%TO.N,col 16*%
X435476250Y-103663750D02*
X445500000Y-93640000D01*
X445500000Y-93640000D02*
X450400000Y-93640000D01*
X436006875Y-134620000D02*
X428863125Y-141763750D01*
D22*
X404890000Y-73790000D02*
X96180000Y-73790000D01*
D21*
X428863125Y-141763750D02*
X440769375Y-153670000D01*
X450400000Y-93640000D02*
X457361875Y-86678125D01*
X436006875Y-122713750D02*
X436006875Y-104194375D01*
X436006875Y-104194375D02*
X435476250Y-103663750D01*
X431244375Y-103663750D02*
X435476250Y-103663750D01*
D22*
X96180000Y-73790000D02*
X91420000Y-78550000D01*
D21*
X436006875Y-122713750D02*
X436006875Y-134620000D01*
X457361875Y-86678125D02*
X464450000Y-86678125D01*
X440769375Y-153670000D02*
X440769375Y-160813750D01*
D22*
X431244375Y-103663750D02*
X431244375Y-100144375D01*
X431244375Y-100144375D02*
X404890000Y-73790000D01*
%TO.N,clock*%
X414190000Y-85525625D02*
X411803750Y-87911875D01*
X100180000Y-74870000D02*
X404210000Y-74870000D01*
X404210000Y-74870000D02*
X414190000Y-84850000D01*
X96500000Y-78550000D02*
X100180000Y-74870000D01*
X414190000Y-84850000D02*
X414190000Y-85525625D01*
D23*
%TO.N,+5V*%
X408630000Y-87278125D02*
X411803750Y-90451875D01*
X117206446Y-80090000D02*
X403560000Y-80090000D01*
X408630000Y-85160000D02*
X408630000Y-87278125D01*
X403560000Y-80090000D02*
X408630000Y-85160000D01*
X77520000Y-77210000D02*
X79210000Y-77210000D01*
X79999969Y-79939969D02*
X80900000Y-80840000D01*
X116456446Y-80840000D02*
X117206446Y-80090000D01*
X76180000Y-78550000D02*
X77520000Y-77210000D01*
X79210000Y-77210000D02*
X79999969Y-77999969D01*
X79999969Y-77999969D02*
X79999969Y-79939969D01*
X80900000Y-80840000D02*
X116456446Y-80840000D01*
D21*
%TO.N,row 6*%
X113750000Y-187171875D02*
X113771875Y-187193750D01*
X113750000Y-170020000D02*
X113750000Y-187171875D01*
X76180000Y-98340000D02*
X76180000Y-96330000D01*
X79090000Y-190611875D02*
X79090000Y-101250000D01*
X79596875Y-191118750D02*
X79090000Y-190611875D01*
X79090000Y-101250000D02*
X76180000Y-98340000D01*
%TO.N,col 1*%
X107394375Y-153749375D02*
X97869375Y-163274375D01*
X88344375Y-103663750D02*
X88344375Y-141763750D01*
X107394375Y-141763750D02*
X107394375Y-153749375D01*
D24*
X78720000Y-97800000D02*
X78720000Y-96330000D01*
X88344375Y-103663750D02*
X84583750Y-103663750D01*
D21*
X97869375Y-163274375D02*
X97869375Y-179863750D01*
D24*
X84583750Y-103663750D02*
X78720000Y-97800000D01*
D21*
%TO.N,col 3*%
X174069375Y-84613750D02*
X174069375Y-103663750D01*
X145494375Y-132238750D02*
X159781875Y-132238750D01*
X107394375Y-160813750D02*
X126444375Y-179863750D01*
X174069375Y-117951250D02*
X178831875Y-122713750D01*
X145494375Y-132238750D02*
X145494375Y-160813750D01*
X145494375Y-160813750D02*
X126444375Y-179863750D01*
X174069375Y-103663750D02*
X174069375Y-117951250D01*
X159781875Y-132238750D02*
X174069375Y-117951250D01*
%TO.N,col 4*%
X193119375Y-103663750D02*
X193119375Y-113188750D01*
D24*
X109200000Y-105300000D02*
X124210000Y-120310000D01*
D21*
X193119375Y-84613750D02*
X193119375Y-103663750D01*
X145494375Y-170338750D02*
X166925625Y-170338750D01*
X181213125Y-141763750D02*
X181213125Y-156051250D01*
X181213125Y-156051250D02*
X185975625Y-160813750D01*
D24*
X124210000Y-120310000D02*
X162000000Y-120310000D01*
X109200000Y-96330000D02*
X109200000Y-105300000D01*
D21*
X202644375Y-122713750D02*
X195766250Y-122713750D01*
X195766250Y-122713750D02*
X181213125Y-137266875D01*
D24*
X162000000Y-120310000D02*
X162010000Y-120300000D01*
D21*
X181213125Y-137266875D02*
X181213125Y-141763750D01*
X193119375Y-113188750D02*
X202644375Y-122713750D01*
X166925625Y-170338750D02*
X181213125Y-156051250D01*
%TO.N,col 5*%
X221694375Y-128612507D02*
X208543132Y-141763750D01*
X212169375Y-113188750D02*
X217830313Y-118849687D01*
X178831875Y-179863750D02*
X207406875Y-151288750D01*
X207406875Y-141763750D02*
X207406875Y-151288750D01*
D24*
X124610000Y-118910000D02*
X111740000Y-106040000D01*
D21*
X212169375Y-103663750D02*
X212169375Y-113188750D01*
X208543132Y-141763750D02*
X207406875Y-141763750D01*
X221694375Y-122713750D02*
X221694375Y-128612507D01*
X217830313Y-118849687D02*
X221694375Y-122713750D01*
X212169375Y-84613750D02*
X212169375Y-103663750D01*
D24*
X111740000Y-106040000D02*
X111740000Y-96330000D01*
X161960000Y-118910000D02*
X124610000Y-118910000D01*
D21*
X176450625Y-179863750D02*
X178831875Y-179863750D01*
X207406875Y-151288750D02*
X216931875Y-160813750D01*
%TO.N,col 6*%
X230156620Y-160813750D02*
X235981875Y-160813750D01*
X240744375Y-117660000D02*
X240744375Y-113188750D01*
X240744375Y-129031884D02*
X240744375Y-122713750D01*
X226456875Y-157114005D02*
X230156620Y-160813750D01*
D24*
X114280000Y-97800000D02*
X116790000Y-100310000D01*
D21*
X228012509Y-141763750D02*
X240744375Y-129031884D01*
D24*
X116790000Y-100310000D02*
X120970000Y-100310000D01*
D21*
X240744375Y-113188750D02*
X231219375Y-103663750D01*
X240744375Y-122713750D02*
X240744375Y-117660000D01*
D24*
X122010000Y-101350000D02*
X142820000Y-101350000D01*
D21*
X226456875Y-141763750D02*
X228012509Y-141763750D01*
D24*
X159230000Y-117760000D02*
X161990000Y-117760000D01*
D21*
X231219375Y-103663750D02*
X231219375Y-84613750D01*
X211106620Y-179863750D02*
X230156620Y-160813750D01*
D24*
X114280000Y-96330000D02*
X114280000Y-97800000D01*
D21*
X226456875Y-141763750D02*
X226456875Y-157114005D01*
D24*
X142820000Y-101350000D02*
X159230000Y-117760000D01*
X120970000Y-100310000D02*
X122010000Y-101350000D01*
D21*
X197881875Y-179863750D02*
X211106620Y-179863750D01*
%TO.N,col 7*%
X227226250Y-179863750D02*
X245506875Y-161583125D01*
D24*
X159790000Y-116230000D02*
X143760000Y-100200000D01*
X143760000Y-100200000D02*
X121940000Y-100200000D01*
D21*
X259794375Y-122713750D02*
X259794375Y-128612507D01*
X245506875Y-151288750D02*
X255031875Y-160813750D01*
X245506875Y-141763750D02*
X245506875Y-151288750D01*
X246643132Y-141763750D02*
X245506875Y-141763750D01*
D24*
X161910000Y-116230000D02*
X159790000Y-116230000D01*
D21*
X259794375Y-128612507D02*
X246643132Y-141763750D01*
X250269375Y-84613750D02*
X250269375Y-103663750D01*
X245506875Y-161583125D02*
X245506875Y-151288750D01*
X250269375Y-113188750D02*
X253160313Y-116079687D01*
X216931875Y-179863750D02*
X227226250Y-179863750D01*
D24*
X119930000Y-99440000D02*
X116820000Y-96330000D01*
X121180000Y-99440000D02*
X119930000Y-99440000D01*
X121940000Y-100200000D02*
X121180000Y-99440000D01*
X161920000Y-116240000D02*
X161910000Y-116230000D01*
D21*
X253160313Y-116079687D02*
X259794375Y-122713750D01*
X250269375Y-103663750D02*
X250269375Y-113188750D01*
%TO.N,col 8*%
X266196250Y-160813750D02*
X247146250Y-179863750D01*
X269319375Y-84613750D02*
X269319375Y-103663750D01*
X269319375Y-113188750D02*
X270870312Y-114739688D01*
D24*
X125040000Y-99470000D02*
X121900000Y-96330000D01*
D21*
X247146250Y-179863750D02*
X235981875Y-179863750D01*
D24*
X144880000Y-99470000D02*
X125040000Y-99470000D01*
D21*
X274081875Y-160813750D02*
X266196250Y-160813750D01*
X278844375Y-128612507D02*
X265693132Y-141763750D01*
D24*
X160180000Y-114770000D02*
X144880000Y-99470000D01*
D21*
X270870312Y-114739688D02*
X278844375Y-122713750D01*
X278844375Y-122713750D02*
X278844375Y-128612507D01*
X264556875Y-151288750D02*
X274081875Y-160813750D01*
D24*
X162000000Y-114770000D02*
X160180000Y-114770000D01*
D21*
X265693132Y-141763750D02*
X264556875Y-141763750D01*
X264556875Y-141763750D02*
X264556875Y-151288750D01*
X269319375Y-103663750D02*
X269319375Y-113188750D01*
%TO.N,col 9*%
X288369375Y-84613750D02*
X288369375Y-103663750D01*
D24*
X162070000Y-113600000D02*
X160780000Y-113600000D01*
D21*
X297894375Y-122713750D02*
X297894375Y-130115625D01*
D24*
X143541250Y-96361250D02*
X124471250Y-96361250D01*
D21*
X288369375Y-103663750D02*
X288369375Y-113188750D01*
X293131875Y-148649375D02*
X286246250Y-141763750D01*
D24*
X160780000Y-113600000D02*
X143541250Y-96361250D01*
X124471250Y-96361250D02*
X124440000Y-96330000D01*
D21*
X288735312Y-113554688D02*
X297894375Y-122713750D01*
X297894375Y-130115625D02*
X286246250Y-141763750D01*
X293131875Y-160813750D02*
X293131875Y-148649375D01*
X288369375Y-113188750D02*
X288735312Y-113554688D01*
X286246250Y-141763750D02*
X283606875Y-141763750D01*
%TO.N,col 10*%
X307419375Y-103663750D02*
X307419375Y-113188750D01*
X312181875Y-160813750D02*
X312181875Y-172720000D01*
X307419375Y-113188750D02*
X316944375Y-122713750D01*
X305256250Y-141763750D02*
X302656875Y-141763750D01*
X316944375Y-122713750D02*
X316944375Y-130075625D01*
X316944375Y-130075625D02*
X305256250Y-141763750D01*
X307419375Y-84613750D02*
X307419375Y-103663750D01*
X312181875Y-148689375D02*
X305256250Y-141763750D01*
X312181875Y-160813750D02*
X312181875Y-148689375D01*
X312181875Y-172720000D02*
X305038125Y-179863750D01*
%TO.N,col 11*%
X323596250Y-141763750D02*
X321706875Y-141763750D01*
X335994375Y-129365625D02*
X323596250Y-141763750D01*
X331231875Y-160813750D02*
X334623750Y-160813750D01*
X326469375Y-84613750D02*
X326469375Y-103663750D01*
X342980000Y-169170000D02*
X365781875Y-169170000D01*
X365781875Y-169170000D02*
X376475625Y-179863750D01*
X326469375Y-113188750D02*
X335994375Y-122713750D01*
X335994375Y-122713750D02*
X335994375Y-129365625D01*
X326469375Y-103663750D02*
X326469375Y-113188750D01*
X331231875Y-149399375D02*
X323596250Y-141763750D01*
X334623750Y-160813750D02*
X342980000Y-169170000D01*
X331231875Y-160813750D02*
X331231875Y-149399375D01*
%TO.N,col 12*%
X340756875Y-141763750D02*
X340756875Y-151288750D01*
X355044375Y-122713750D02*
X355044375Y-128612507D01*
X355044375Y-128612507D02*
X341893132Y-141763750D01*
X367880000Y-163140000D02*
X373010000Y-163140000D01*
X340756875Y-151288750D02*
X350281875Y-160813750D01*
X345519375Y-84613750D02*
X345519375Y-103663750D01*
X373010000Y-163140000D02*
X389733750Y-179863750D01*
X345519375Y-113188750D02*
X355044375Y-122713750D01*
X345519375Y-103663750D02*
X345519375Y-113188750D01*
X341893132Y-141763750D02*
X340756875Y-141763750D01*
X350281875Y-160813750D02*
X365553750Y-160813750D01*
X365553750Y-160813750D02*
X367880000Y-163140000D01*
X389733750Y-179863750D02*
X400288125Y-179863750D01*
%TO.N,col 13*%
X361786250Y-141763750D02*
X359806875Y-141763750D01*
X364569375Y-103663750D02*
X364569375Y-113188750D01*
X407413750Y-179863750D02*
X421719375Y-179863750D01*
X388230000Y-163550000D02*
X391100000Y-163550000D01*
X364569375Y-84613750D02*
X364569375Y-103663750D01*
X369331875Y-149309375D02*
X361786250Y-141763750D01*
X374094375Y-122713750D02*
X374094375Y-129455625D01*
X369331875Y-160813750D02*
X385493750Y-160813750D01*
X391100000Y-163550000D02*
X407413750Y-179863750D01*
X385493750Y-160813750D02*
X388230000Y-163550000D01*
X369331875Y-160813750D02*
X369331875Y-149309375D01*
X364569375Y-113188750D02*
X374094375Y-122713750D01*
X374094375Y-129455625D02*
X361786250Y-141763750D01*
%TO.N,col 14*%
X388381875Y-160813750D02*
X388381875Y-149159375D01*
X388381875Y-160813750D02*
X411653750Y-160813750D01*
X388381875Y-149159375D02*
X380986250Y-141763750D01*
X413610000Y-162770000D02*
X423675625Y-162770000D01*
X383619375Y-113188750D02*
X393144375Y-122713750D01*
X393144375Y-129605625D02*
X380986250Y-141763750D01*
X411653750Y-160813750D02*
X413610000Y-162770000D01*
X383619375Y-103663750D02*
X383619375Y-113188750D01*
X393144375Y-122713750D02*
X393144375Y-129605625D01*
X380986250Y-141763750D02*
X378856875Y-141763750D01*
X423675625Y-162770000D02*
X440769375Y-179863750D01*
X383619375Y-84613750D02*
X383619375Y-103663750D01*
%TO.N,col 15*%
X414575625Y-160813750D02*
X423373750Y-160813750D01*
X423373750Y-160813750D02*
X431640000Y-169080000D01*
D22*
X104120000Y-78550000D02*
X105670000Y-77000000D01*
D21*
X399786250Y-144450713D02*
X399786250Y-141763750D01*
D22*
X105670000Y-77000000D02*
X393940000Y-77000000D01*
D21*
X399786250Y-141763750D02*
X397906875Y-141763750D01*
X402669370Y-84613750D02*
X402669370Y-103663745D01*
X412194375Y-122713750D02*
X412194375Y-129355625D01*
X414575625Y-159240088D02*
X399786250Y-144450713D01*
X414575625Y-160813750D02*
X414575625Y-159240088D01*
X402669370Y-103663745D02*
X402669375Y-103663750D01*
X402669375Y-103663750D02*
X402669375Y-113188750D01*
D22*
X393940000Y-77000000D02*
X393950000Y-76990000D01*
D21*
X431640000Y-169080000D02*
X449035625Y-169080000D01*
X402669375Y-113188750D02*
X412194375Y-122713750D01*
X449035625Y-169080000D02*
X459819375Y-179863750D01*
D22*
X393950000Y-76990000D02*
X394320000Y-76990000D01*
D21*
X412194375Y-129355625D02*
X399786250Y-141763750D01*
%TO.N,col 2*%
X107394375Y-103663750D02*
X107394375Y-122713750D01*
X126444375Y-122713750D02*
X126444375Y-160813750D01*
X107394375Y-122713750D02*
X126444375Y-122713750D01*
X99040000Y-97750000D02*
X99040000Y-96330000D01*
X104953750Y-103663750D02*
X99040000Y-97750000D01*
X107394375Y-103663750D02*
X104953750Y-103663750D01*
D22*
%TO.N,data*%
X101600000Y-75990000D02*
X402421875Y-75990000D01*
X402421875Y-75990000D02*
X411803750Y-85371875D01*
X99040000Y-78550000D02*
X101600000Y-75990000D01*
D21*
%TO.N,row 1*%
X394200000Y-96170000D02*
X391840000Y-93810000D01*
X152230000Y-101200000D02*
X160510000Y-92920000D01*
X391840000Y-93810000D02*
X391840000Y-93790000D01*
X160510000Y-92920000D02*
X160780000Y-92920000D01*
X118291562Y-103561562D02*
X118291563Y-103561562D01*
X118291563Y-103561562D02*
X120650000Y-101203125D01*
X447680000Y-97180000D02*
X447060000Y-96560000D01*
X447060000Y-96560000D02*
X443880000Y-96560000D01*
%TO.N,row 2*%
X92430000Y-105310000D02*
X86340000Y-99220000D01*
X86340000Y-99220000D02*
X86340000Y-96330000D01*
X92440000Y-121800000D02*
X92440000Y-111910000D01*
X92430000Y-111900000D02*
X92430000Y-105310000D01*
X92450000Y-121820000D02*
X92450000Y-121810000D01*
X92440000Y-111910000D02*
X92430000Y-111900000D01*
X92450000Y-121810000D02*
X92440000Y-121800000D01*
%TO.N,row 3*%
X88880000Y-97750000D02*
X93670000Y-102540000D01*
X88880000Y-96330000D02*
X88880000Y-97750000D01*
X93670000Y-102540000D02*
X93670000Y-130968750D01*
%TO.N,row 4*%
X91420000Y-97750000D02*
X95646875Y-101976875D01*
X95646875Y-101976875D02*
X95646875Y-150018750D01*
X91420000Y-96330000D02*
X91420000Y-97750000D01*
%TO.N,row 5*%
X96670000Y-167880000D02*
X96670000Y-96500000D01*
X96670000Y-96500000D02*
X96500000Y-96330000D01*
D24*
%TO.N,encB*%
X445681875Y-86678125D02*
X449950000Y-86678125D01*
X433770000Y-98590000D02*
X445681875Y-86678125D01*
%TD*%
M02*
