%TF.GenerationSoftware,KiCad,Pcbnew,8.0.8*%
%TF.CreationDate,2025-04-09T15:43:05-07:00*%
%TF.ProjectId,hackboard,6861636b-626f-4617-9264-2e6b69636164,rev?*%
%TF.SameCoordinates,Original*%
%TF.FileFunction,Copper,L2,Bot*%
%TF.FilePolarity,Positive*%
%FSLAX46Y46*%
G04 Gerber Fmt 4.6, Leading zero omitted, Abs format (unit mm)*
G04 Created by KiCad (PCBNEW 8.0.8) date 2025-04-09 15:43:05*
%MOMM*%
%LPD*%
G01*
G04 APERTURE LIST*
G04 Aperture macros list*
%AMRoundRect*
0 Rectangle with rounded corners*
0 $1 Rounding radius*
0 $2 $3 $4 $5 $6 $7 $8 $9 X,Y pos of 4 corners*
0 Add a 4 corners polygon primitive as box body*
4,1,4,$2,$3,$4,$5,$6,$7,$8,$9,$2,$3,0*
0 Add four circle primitives for the rounded corners*
1,1,$1+$1,$2,$3*
1,1,$1+$1,$4,$5*
1,1,$1+$1,$6,$7*
1,1,$1+$1,$8,$9*
0 Add four rect primitives between the rounded corners*
20,1,$1+$1,$2,$3,$4,$5,0*
20,1,$1+$1,$4,$5,$6,$7,0*
20,1,$1+$1,$6,$7,$8,$9,0*
20,1,$1+$1,$8,$9,$2,$3,0*%
%AMFreePoly0*
4,1,28,0.605014,0.794986,0.644504,0.794986,0.724698,0.756366,0.780194,0.686777,0.800000,0.600000,0.800000,-0.600000,0.780194,-0.686777,0.724698,-0.756366,0.644504,-0.794986,0.605014,-0.794986,0.600000,-0.800000,0.000000,-0.800000,-0.178017,-0.779942,-0.347107,-0.720775,-0.498792,-0.625465,-0.625465,-0.498792,-0.720775,-0.347107,-0.779942,-0.178017,-0.800000,0.000000,-0.779942,0.178017,
-0.720775,0.347107,-0.625465,0.498792,-0.498792,0.625465,-0.347107,0.720775,-0.178017,0.779942,0.000000,0.800000,0.600000,0.800000,0.605014,0.794986,0.605014,0.794986,$1*%
%AMFreePoly1*
4,1,28,0.178017,0.779942,0.347107,0.720775,0.498792,0.625465,0.625465,0.498792,0.720775,0.347107,0.779942,0.178017,0.800000,0.000000,0.779942,-0.178017,0.720775,-0.347107,0.625465,-0.498792,0.498792,-0.625465,0.347107,-0.720775,0.178017,-0.779942,0.000000,-0.800000,-0.600000,-0.800000,-0.605014,-0.794986,-0.644504,-0.794986,-0.724698,-0.756366,-0.780194,-0.686777,-0.800000,-0.600000,
-0.800000,0.600000,-0.780194,0.686777,-0.724698,0.756366,-0.644504,0.794986,-0.605014,0.794986,-0.600000,0.800000,0.000000,0.800000,0.178017,0.779942,0.178017,0.779942,$1*%
G04 Aperture macros list end*
%TA.AperFunction,ComponentPad*%
%ADD10C,2.200000*%
%TD*%
%TA.AperFunction,ComponentPad*%
%ADD11R,1.700000X1.700000*%
%TD*%
%TA.AperFunction,ComponentPad*%
%ADD12O,1.700000X1.700000*%
%TD*%
%TA.AperFunction,ComponentPad*%
%ADD13RoundRect,0.200000X0.600000X-0.600000X0.600000X0.600000X-0.600000X0.600000X-0.600000X-0.600000X0*%
%TD*%
%TA.AperFunction,ComponentPad*%
%ADD14C,1.600000*%
%TD*%
%TA.AperFunction,ComponentPad*%
%ADD15FreePoly0,90.000000*%
%TD*%
%TA.AperFunction,ComponentPad*%
%ADD16FreePoly1,90.000000*%
%TD*%
%TA.AperFunction,ComponentPad*%
%ADD17R,2.000000X2.000000*%
%TD*%
%TA.AperFunction,ComponentPad*%
%ADD18C,2.000000*%
%TD*%
%TA.AperFunction,ComponentPad*%
%ADD19R,3.200000X2.000000*%
%TD*%
%TA.AperFunction,SMDPad,CuDef*%
%ADD20RoundRect,0.225000X0.375000X-0.225000X0.375000X0.225000X-0.375000X0.225000X-0.375000X-0.225000X0*%
%TD*%
%TA.AperFunction,ViaPad*%
%ADD21C,0.600000*%
%TD*%
%TA.AperFunction,Conductor*%
%ADD22C,0.250000*%
%TD*%
%TA.AperFunction,Conductor*%
%ADD23C,0.500000*%
%TD*%
%TA.AperFunction,Conductor*%
%ADD24C,0.400000*%
%TD*%
%TA.AperFunction,Conductor*%
%ADD25C,0.300000*%
%TD*%
G04 APERTURE END LIST*
D10*
%TO.P,SW74,1,1*%
%TO.N,col 10*%
X312181875Y-160813750D03*
%TO.P,SW74,2,2*%
%TO.N,Net-(D74-A)*%
X305831875Y-163353750D03*
%TD*%
%TO.P,SW13,1,1*%
%TO.N,col 12*%
X345519375Y-84613750D03*
%TO.P,SW13,2,2*%
%TO.N,Net-(D13-A)*%
X339169375Y-87153750D03*
%TD*%
%TO.P,SW53,1,1*%
%TO.N,col 5*%
X207406875Y-141763750D03*
%TO.P,SW53,2,2*%
%TO.N,Net-(D53-A)*%
X201056875Y-144303750D03*
%TD*%
%TO.P,SW72,1,1*%
%TO.N,col 8*%
X274081875Y-160813750D03*
%TO.P,SW72,2,2*%
%TO.N,Net-(D72-A)*%
X267731875Y-163353750D03*
%TD*%
%TO.P,SW3,1,1*%
%TO.N,col 2*%
X107394375Y-103663750D03*
%TO.P,SW3,2,2*%
%TO.N,Net-(D3-A)*%
X101044375Y-106203750D03*
%TD*%
%TO.P,SW50,1,1*%
%TO.N,col 2*%
X126444375Y-141763750D03*
%TO.P,SW50,2,2*%
%TO.N,Net-(D50-A)*%
X120094375Y-144303750D03*
%TD*%
%TO.P,SW75,1,1*%
%TO.N,col 11*%
X331231875Y-160813750D03*
%TO.P,SW75,2,2*%
%TO.N,Net-(D75-A)*%
X324881875Y-163353750D03*
%TD*%
%TO.P,SW61,1,1*%
%TO.N,col 13*%
X359806875Y-141763750D03*
%TO.P,SW61,2,2*%
%TO.N,Net-(D61-A)*%
X353456875Y-144303750D03*
%TD*%
%TO.P,SW14,1,1*%
%TO.N,col 13*%
X364569375Y-84613750D03*
%TO.P,SW14,2,2*%
%TO.N,Net-(D14-A)*%
X358219375Y-87153750D03*
%TD*%
%TO.P,SW47,1,1*%
%TO.N,col 15*%
X412194375Y-122713750D03*
%TO.P,SW47,2,2*%
%TO.N,Net-(D47-A)*%
X405844375Y-125253750D03*
%TD*%
%TO.P,SW25,1,1*%
%TO.N,col 9*%
X288369375Y-103663750D03*
%TO.P,SW25,2,2*%
%TO.N,Net-(D25-A)*%
X282019375Y-106203750D03*
%TD*%
%TO.P,SW79,1,1*%
%TO.N,col 15*%
X414575625Y-160813750D03*
%TO.P,SW79,2,2*%
%TO.N,Net-(D79-A)*%
X408225625Y-163353750D03*
%TD*%
D11*
%TO.P,Brd1,1,GND*%
%TO.N,GND*%
X411803750Y-92991875D03*
D12*
%TO.P,Brd1,2,VCC*%
%TO.N,+5V*%
X411803750Y-90451875D03*
%TO.P,Brd1,3,SCL*%
%TO.N,clock*%
X411803750Y-87911875D03*
%TO.P,Brd1,4,SDA*%
%TO.N,data*%
X411803750Y-85371875D03*
%TD*%
D10*
%TO.P,SW32,1,1*%
%TO.N,col 16*%
X431244375Y-103663750D03*
%TO.P,SW32,2,2*%
%TO.N,Net-(D32-A)*%
X424894375Y-106203750D03*
%TD*%
%TO.P,SW90,1,1*%
%TO.N,col 11*%
X376475625Y-179863750D03*
%TO.P,SW90,2,2*%
%TO.N,Net-(D90-A)*%
X370125625Y-182403750D03*
%TD*%
%TO.P,SW68,1,1*%
%TO.N,col 4*%
X185975625Y-160813750D03*
%TO.P,SW68,2,2*%
%TO.N,Net-(D68-A)*%
X179625625Y-163353750D03*
%TD*%
%TO.P,SW49,1,1*%
%TO.N,col 1*%
X107394375Y-141763750D03*
%TO.P,SW49,2,2*%
%TO.N,Net-(D49-A)*%
X101044375Y-144303750D03*
%TD*%
%TO.P,SW11,1,1*%
%TO.N,col 10*%
X307419375Y-84613750D03*
%TO.P,SW11,2,2*%
%TO.N,Net-(D11-A)*%
X301069375Y-87153750D03*
%TD*%
%TO.P,SW81,1,1*%
%TO.N,col 1*%
X97869375Y-179863750D03*
%TO.P,SW81,2,2*%
%TO.N,Net-(D81-A)*%
X91519375Y-182403750D03*
%TD*%
%TO.P,SW58,1,1*%
%TO.N,col 10*%
X302656875Y-141763750D03*
%TO.P,SW58,2,2*%
%TO.N,Net-(D58-A)*%
X296306875Y-144303750D03*
%TD*%
%TO.P,SW56,1,1*%
%TO.N,col 8*%
X264556875Y-141763750D03*
%TO.P,SW56,2,2*%
%TO.N,Net-(D56-A)*%
X258206875Y-144303750D03*
%TD*%
%TO.P,SW80,1,1*%
%TO.N,col 16*%
X440769375Y-160813750D03*
%TO.P,SW80,2,2*%
%TO.N,Net-(D80-A)*%
X434419375Y-163353750D03*
%TD*%
%TO.P,SW7,1,1*%
%TO.N,col 6*%
X231219375Y-84613750D03*
%TO.P,SW7,2,2*%
%TO.N,Net-(D7-A)*%
X224869375Y-87153750D03*
%TD*%
%TO.P,SW51,1,1*%
%TO.N,col 3*%
X145494375Y-132238750D03*
%TO.P,SW51,2,2*%
%TO.N,Net-(D51-A)*%
X139144375Y-134778750D03*
%TD*%
%TO.P,SW54,1,1*%
%TO.N,col 6*%
X226456875Y-141763750D03*
%TO.P,SW54,2,2*%
%TO.N,Net-(D54-A)*%
X220106875Y-144303750D03*
%TD*%
%TO.P,SW30,1,1*%
%TO.N,col 14*%
X383619375Y-103663750D03*
%TO.P,SW30,2,2*%
%TO.N,Net-(D30-A)*%
X377269375Y-106203750D03*
%TD*%
%TO.P,SW40,1,1*%
%TO.N,col 8*%
X278844375Y-122713750D03*
%TO.P,SW40,2,2*%
%TO.N,Net-(D40-A)*%
X272494375Y-125253750D03*
%TD*%
%TO.P,SW27,1,1*%
%TO.N,col 11*%
X326469375Y-103663750D03*
%TO.P,SW27,2,2*%
%TO.N,Net-(D27-A)*%
X320119375Y-106203750D03*
%TD*%
%TO.P,SW83,1,1*%
%TO.N,col 3*%
X126444375Y-179863750D03*
%TO.P,SW83,2,2*%
%TO.N,Net-(D83-A)*%
X120094375Y-182403750D03*
%TD*%
%TO.P,SW38,1,1*%
%TO.N,col 6*%
X240744375Y-122713750D03*
%TO.P,SW38,2,2*%
%TO.N,Net-(D38-A)*%
X234394375Y-125253750D03*
%TD*%
%TO.P,SW85,1,1*%
%TO.N,col 5*%
X176450625Y-179863750D03*
%TO.P,SW85,2,2*%
%TO.N,Net-(D85-A)*%
X170100625Y-182403750D03*
%TD*%
%TO.P,SW8,1,1*%
%TO.N,col 7*%
X250269375Y-84613750D03*
%TO.P,SW8,2,2*%
%TO.N,Net-(D8-A)*%
X243919375Y-87153750D03*
%TD*%
%TO.P,SW93,1,1*%
%TO.N,col 14*%
X440769375Y-179863750D03*
%TO.P,SW93,2,2*%
%TO.N,Net-(D93-A)*%
X434419375Y-182403750D03*
%TD*%
%TO.P,SW22,1,1*%
%TO.N,col 6*%
X231219375Y-103663750D03*
%TO.P,SW22,2,2*%
%TO.N,Net-(D22-A)*%
X224869375Y-106203750D03*
%TD*%
%TO.P,SW62,1,1*%
%TO.N,col 14*%
X378856875Y-141763750D03*
%TO.P,SW62,2,2*%
%TO.N,Net-(D62-A)*%
X372506875Y-144303750D03*
%TD*%
%TO.P,SW67,1,1*%
%TO.N,col 3*%
X107394375Y-160813750D03*
%TO.P,SW67,2,2*%
%TO.N,Net-(D67-A)*%
X101044375Y-163353750D03*
%TD*%
%TO.P,SW59,1,1*%
%TO.N,col 11*%
X321706875Y-141763750D03*
%TO.P,SW59,2,2*%
%TO.N,Net-(D59-A)*%
X315356875Y-144303750D03*
%TD*%
%TO.P,SW44,1,1*%
%TO.N,col 12*%
X355044375Y-122713750D03*
%TO.P,SW44,2,2*%
%TO.N,Net-(D44-A)*%
X348694375Y-125253750D03*
%TD*%
%TO.P,SW37,1,1*%
%TO.N,col 5*%
X221694375Y-122713750D03*
%TO.P,SW37,2,2*%
%TO.N,Net-(D37-A)*%
X215344375Y-125253750D03*
%TD*%
%TO.P,SW26,1,1*%
%TO.N,col 10*%
X307419375Y-103663750D03*
%TO.P,SW26,2,2*%
%TO.N,Net-(D26-A)*%
X301069375Y-106203750D03*
%TD*%
%TO.P,SW94,1,1*%
%TO.N,col 15*%
X459819375Y-179863750D03*
%TO.P,SW94,2,2*%
%TO.N,Net-(D94-A)*%
X453469375Y-182403750D03*
%TD*%
%TO.P,SW55,1,1*%
%TO.N,col 7*%
X245506875Y-141763750D03*
%TO.P,SW55,2,2*%
%TO.N,Net-(D55-A)*%
X239156875Y-144303750D03*
%TD*%
D13*
%TO.P,U1,1,GPIO0*%
%TO.N,row 6*%
X76180000Y-96330000D03*
D14*
%TO.P,U1,2,GPIO1*%
%TO.N,col 1*%
X78720000Y-96330000D03*
D15*
%TO.P,U1,3,GND*%
%TO.N,unconnected-(U1-GND-Pad3)*%
X81260000Y-96330000D03*
D14*
%TO.P,U1,4,GPIO2*%
%TO.N,row 1*%
X83800000Y-96330000D03*
%TO.P,U1,5,GPIO3*%
%TO.N,row 2*%
X86340000Y-96330000D03*
%TO.P,U1,6,GPIO4*%
%TO.N,row 3*%
X88880000Y-96330000D03*
%TO.P,U1,7,GPIO5*%
%TO.N,row 4*%
X91420000Y-96330000D03*
D15*
%TO.P,U1,8,GND*%
%TO.N,unconnected-(U1-GND-Pad8)*%
X93960000Y-96330000D03*
D14*
%TO.P,U1,9,GPIO6*%
%TO.N,row 5*%
X96500000Y-96330000D03*
%TO.P,U1,10,GPIO7*%
%TO.N,col 2*%
X99040000Y-96330000D03*
%TO.P,U1,11,GPIO8*%
%TO.N,col 10*%
X101580000Y-96330000D03*
%TO.P,U1,12,GPIO9*%
%TO.N,col 11*%
X104120000Y-96330000D03*
D15*
%TO.P,U1,13,GND*%
%TO.N,unconnected-(U1-GND-Pad13)*%
X106660000Y-96330000D03*
D14*
%TO.P,U1,14,GPIO10*%
%TO.N,col 4*%
X109200000Y-96330000D03*
%TO.P,U1,15,GPIO11*%
%TO.N,col 5*%
X111740000Y-96330000D03*
%TO.P,U1,16,GPIO12*%
%TO.N,col 6*%
X114280000Y-96330000D03*
%TO.P,U1,17,GPIO13*%
%TO.N,col 7*%
X116820000Y-96330000D03*
D15*
%TO.P,U1,18,GND*%
%TO.N,unconnected-(U1-GND-Pad18)*%
X119360000Y-96330000D03*
D14*
%TO.P,U1,19,GPIO14*%
%TO.N,col 8*%
X121900000Y-96330000D03*
%TO.P,U1,20,GPIO15*%
%TO.N,col 9*%
X124440000Y-96330000D03*
%TO.P,U1,21,GPIO16*%
%TO.N,encA*%
X124440000Y-78550000D03*
%TO.P,U1,22,GPIO17*%
%TO.N,encB*%
X121900000Y-78550000D03*
D16*
%TO.P,U1,23,GND*%
%TO.N,GND*%
X119360000Y-78550000D03*
D14*
%TO.P,U1,24,GPIO18*%
%TO.N,col 3*%
X116820000Y-78550000D03*
%TO.P,U1,25,GPIO19*%
%TO.N,col 12*%
X114280000Y-78550000D03*
%TO.P,U1,26,GPIO20*%
%TO.N,col 13*%
X111740000Y-78550000D03*
%TO.P,U1,27,GPIO21*%
%TO.N,col 14*%
X109200000Y-78550000D03*
D16*
%TO.P,U1,28,GND*%
%TO.N,unconnected-(U1-GND-Pad28)*%
X106660000Y-78550000D03*
D14*
%TO.P,U1,29,GPIO22*%
%TO.N,col 15*%
X104120000Y-78550000D03*
%TO.P,U1,30,RUN*%
%TO.N,unconnected-(U1-RUN-Pad30)*%
X101580000Y-78550000D03*
%TO.P,U1,31,GPIO26_ADC0*%
%TO.N,data*%
X99040000Y-78550000D03*
%TO.P,U1,32,GPIO27_ADC1*%
%TO.N,clock*%
X96500000Y-78550000D03*
D16*
%TO.P,U1,33,AGND*%
%TO.N,unconnected-(U1-AGND-Pad33)*%
X93960000Y-78550000D03*
D14*
%TO.P,U1,34,GPIO28_ADC2*%
%TO.N,col 16*%
X91420000Y-78550000D03*
%TO.P,U1,35,ADC_VREF*%
%TO.N,unconnected-(U1-ADC_VREF-Pad35)*%
X88880000Y-78550000D03*
%TO.P,U1,36,3V3*%
%TO.N,unconnected-(U1-3V3-Pad36)*%
X86340000Y-78550000D03*
%TO.P,U1,37,3V3_EN*%
%TO.N,unconnected-(U1-3V3_EN-Pad37)*%
X83800000Y-78550000D03*
D16*
%TO.P,U1,38,GND*%
%TO.N,unconnected-(U1-GND-Pad38)*%
X81260000Y-78550000D03*
D14*
%TO.P,U1,39,VSYS*%
%TO.N,unconnected-(U1-VSYS-Pad39)*%
X78720000Y-78550000D03*
%TO.P,U1,40,VBUS*%
%TO.N,+5V*%
X76180000Y-78550000D03*
%TD*%
D10*
%TO.P,SW63,1,1*%
%TO.N,col 15*%
X397906875Y-141763750D03*
%TO.P,SW63,2,2*%
%TO.N,Net-(D63-A)*%
X391556875Y-144303750D03*
%TD*%
%TO.P,SW9,1,1*%
%TO.N,col 8*%
X269319375Y-84613750D03*
%TO.P,SW9,2,2*%
%TO.N,Net-(D9-A)*%
X262969375Y-87153750D03*
%TD*%
%TO.P,SW5,1,1*%
%TO.N,col 4*%
X193119375Y-84613750D03*
%TO.P,SW5,2,2*%
%TO.N,Net-(D5-A)*%
X186769375Y-87153750D03*
%TD*%
%TO.P,SW2,1,1*%
%TO.N,col 1*%
X88344375Y-103663750D03*
%TO.P,SW2,2,2*%
%TO.N,Net-(D2-A)*%
X81994375Y-106203750D03*
%TD*%
%TO.P,SW84,1,1*%
%TO.N,col 4*%
X145494375Y-170338750D03*
%TO.P,SW84,2,2*%
%TO.N,Net-(D84-A)*%
X139144375Y-172878750D03*
%TD*%
%TO.P,SW18,1,1*%
%TO.N,col 2*%
X126444375Y-122713750D03*
%TO.P,SW18,2,2*%
%TO.N,Net-(D18-A)*%
X120094375Y-125253750D03*
%TD*%
%TO.P,SW41,1,1*%
%TO.N,col 9*%
X297894375Y-122713750D03*
%TO.P,SW41,2,2*%
%TO.N,Net-(D41-A)*%
X291544375Y-125253750D03*
%TD*%
%TO.P,SW21,1,1*%
%TO.N,col 5*%
X212169375Y-103663750D03*
%TO.P,SW21,2,2*%
%TO.N,Net-(D21-A)*%
X205819375Y-106203750D03*
%TD*%
%TO.P,SW28,1,1*%
%TO.N,col 12*%
X345519375Y-103663750D03*
%TO.P,SW28,2,2*%
%TO.N,Net-(D28-A)*%
X339169375Y-106203750D03*
%TD*%
%TO.P,SW45,1,1*%
%TO.N,col 13*%
X374094375Y-122713750D03*
%TO.P,SW45,2,2*%
%TO.N,Net-(D45-A)*%
X367744375Y-125253750D03*
%TD*%
%TO.P,SW6,1,1*%
%TO.N,col 5*%
X212169375Y-84613750D03*
%TO.P,SW6,2,2*%
%TO.N,Net-(D6-A)*%
X205819375Y-87153750D03*
%TD*%
%TO.P,SW91,1,1*%
%TO.N,col 12*%
X400288125Y-179863750D03*
%TO.P,SW91,2,2*%
%TO.N,Net-(D91-A)*%
X393938125Y-182403750D03*
%TD*%
%TO.P,SW92,1,1*%
%TO.N,col 13*%
X421719375Y-179863750D03*
%TO.P,SW92,2,2*%
%TO.N,Net-(D92-A)*%
X415369375Y-182403750D03*
%TD*%
%TO.P,SW73,1,1*%
%TO.N,col 9*%
X293131875Y-160813750D03*
%TO.P,SW73,2,2*%
%TO.N,Net-(D73-A)*%
X286781875Y-163353750D03*
%TD*%
%TO.P,SW29,1,1*%
%TO.N,col 13*%
X364569375Y-103663750D03*
%TO.P,SW29,2,2*%
%TO.N,Net-(D29-A)*%
X358219375Y-106203750D03*
%TD*%
D17*
%TO.P,SW1,A,A*%
%TO.N,encB*%
X449950000Y-86678125D03*
D18*
%TO.P,SW1,B,B*%
%TO.N,encA*%
X449950000Y-91678125D03*
%TO.P,SW1,C,C*%
%TO.N,GND*%
X449950000Y-89178125D03*
D19*
%TO.P,SW1,MP*%
%TO.N,N/C*%
X457450000Y-83578125D03*
X457450000Y-94778125D03*
D18*
%TO.P,SW1,S1,S1*%
%TO.N,Net-(D1-A)*%
X464450000Y-91678125D03*
%TO.P,SW1,S2,S2*%
%TO.N,col 16*%
X464450000Y-86678125D03*
%TD*%
D10*
%TO.P,SW88,1,1*%
%TO.N,col 8*%
X235981875Y-179863750D03*
%TO.P,SW88,2,2*%
%TO.N,Net-(D88-A)*%
X229631875Y-182403750D03*
%TD*%
%TO.P,SW89,1,1*%
%TO.N,col 10*%
X305038125Y-179863750D03*
%TO.P,SW89,2,2*%
%TO.N,Net-(D89-A)*%
X298688125Y-182403750D03*
%TD*%
%TO.P,SW82,1,1*%
%TO.N,col 2*%
X126444375Y-160813750D03*
%TO.P,SW82,2,2*%
%TO.N,Net-(D82-A)*%
X120094375Y-163353750D03*
%TD*%
%TO.P,SW12,1,1*%
%TO.N,col 11*%
X326469375Y-84613750D03*
%TO.P,SW12,2,2*%
%TO.N,Net-(D12-A)*%
X320119375Y-87153750D03*
%TD*%
%TO.P,SW24,1,1*%
%TO.N,col 8*%
X269319375Y-103663750D03*
%TO.P,SW24,2,2*%
%TO.N,Net-(D24-A)*%
X262969375Y-106203750D03*
%TD*%
%TO.P,SW52,1,1*%
%TO.N,col 4*%
X181213125Y-141763750D03*
%TO.P,SW52,2,2*%
%TO.N,Net-(D52-A)*%
X174863125Y-144303750D03*
%TD*%
%TO.P,SW15,1,1*%
%TO.N,col 14*%
X383619375Y-84613750D03*
%TO.P,SW15,2,2*%
%TO.N,Net-(D15-A)*%
X377269375Y-87153750D03*
%TD*%
%TO.P,SW23,1,1*%
%TO.N,col 7*%
X250269375Y-103663750D03*
%TO.P,SW23,2,2*%
%TO.N,Net-(D23-A)*%
X243919375Y-106203750D03*
%TD*%
%TO.P,SW4,1,1*%
%TO.N,col 3*%
X174069375Y-84613750D03*
%TO.P,SW4,2,2*%
%TO.N,Net-(D4-A)*%
X167719375Y-87153750D03*
%TD*%
%TO.P,SW19,1,1*%
%TO.N,col 3*%
X174069375Y-103663750D03*
%TO.P,SW19,2,2*%
%TO.N,Net-(D19-A)*%
X167719375Y-106203750D03*
%TD*%
%TO.P,SW46,1,1*%
%TO.N,col 14*%
X393144375Y-122713750D03*
%TO.P,SW46,2,2*%
%TO.N,Net-(D46-A)*%
X386794375Y-125253750D03*
%TD*%
%TO.P,SW16,1,1*%
%TO.N,col 15*%
X402669370Y-84613750D03*
%TO.P,SW16,2,2*%
%TO.N,Net-(D16-A)*%
X396319370Y-87153750D03*
%TD*%
%TO.P,SW65,1,1*%
%TO.N,col 1*%
X88344375Y-141763750D03*
%TO.P,SW65,2,2*%
%TO.N,Net-(D65-A)*%
X81994375Y-144303750D03*
%TD*%
%TO.P,SW48,1,1*%
%TO.N,col 16*%
X436006875Y-122713750D03*
%TO.P,SW48,2,2*%
%TO.N,Net-(D48-A)*%
X429656875Y-125253750D03*
%TD*%
%TO.P,SW43,1,1*%
%TO.N,col 11*%
X335994375Y-122713750D03*
%TO.P,SW43,2,2*%
%TO.N,Net-(D43-A)*%
X329644375Y-125253750D03*
%TD*%
%TO.P,SW70,1,1*%
%TO.N,col 6*%
X235981875Y-160813750D03*
%TO.P,SW70,2,2*%
%TO.N,Net-(D70-A)*%
X229631875Y-163353750D03*
%TD*%
%TO.P,SW57,1,1*%
%TO.N,col 9*%
X283606875Y-141763750D03*
%TO.P,SW57,2,2*%
%TO.N,Net-(D57-A)*%
X277256875Y-144303750D03*
%TD*%
%TO.P,SW35,1,1*%
%TO.N,col 3*%
X178831875Y-122713750D03*
%TO.P,SW35,2,2*%
%TO.N,Net-(D35-A)*%
X172481875Y-125253750D03*
%TD*%
%TO.P,SW34,1,1*%
%TO.N,col 2*%
X107394375Y-122713750D03*
%TO.P,SW34,2,2*%
%TO.N,Net-(D34-A)*%
X101044375Y-125253750D03*
%TD*%
%TO.P,SW77,1,1*%
%TO.N,col 13*%
X369331875Y-160813750D03*
%TO.P,SW77,2,2*%
%TO.N,Net-(D77-A)*%
X362981875Y-163353750D03*
%TD*%
%TO.P,SW10,1,1*%
%TO.N,col 9*%
X288369375Y-84613750D03*
%TO.P,SW10,2,2*%
%TO.N,Net-(D10-A)*%
X282019375Y-87153750D03*
%TD*%
%TO.P,SW71,1,1*%
%TO.N,col 7*%
X255031875Y-160813750D03*
%TO.P,SW71,2,2*%
%TO.N,Net-(D71-A)*%
X248681875Y-163353750D03*
%TD*%
%TO.P,SW64,1,1*%
%TO.N,col 16*%
X428863125Y-141763750D03*
%TO.P,SW64,2,2*%
%TO.N,Net-(D64-A)*%
X422513125Y-144303750D03*
%TD*%
%TO.P,SW66,1,1*%
%TO.N,col 2*%
X88344375Y-160813750D03*
%TO.P,SW66,2,2*%
%TO.N,Net-(D66-A)*%
X81994375Y-163353750D03*
%TD*%
%TO.P,SW33,1,1*%
%TO.N,col 1*%
X88344375Y-122713750D03*
%TO.P,SW33,2,2*%
%TO.N,Net-(D33-A)*%
X81994375Y-125253750D03*
%TD*%
%TO.P,SW39,1,1*%
%TO.N,col 7*%
X259794375Y-122713750D03*
%TO.P,SW39,2,2*%
%TO.N,Net-(D39-A)*%
X253444375Y-125253750D03*
%TD*%
%TO.P,SW36,1,1*%
%TO.N,col 4*%
X202644375Y-122713750D03*
%TO.P,SW36,2,2*%
%TO.N,Net-(D36-A)*%
X196294375Y-125253750D03*
%TD*%
%TO.P,SW42,1,1*%
%TO.N,col 10*%
X316944375Y-122713750D03*
%TO.P,SW42,2,2*%
%TO.N,Net-(D42-A)*%
X310594375Y-125253750D03*
%TD*%
%TO.P,SW20,1,1*%
%TO.N,col 4*%
X193119375Y-103663750D03*
%TO.P,SW20,2,2*%
%TO.N,Net-(D20-A)*%
X186769375Y-106203750D03*
%TD*%
%TO.P,SW76,1,1*%
%TO.N,col 12*%
X350281875Y-160813750D03*
%TO.P,SW76,2,2*%
%TO.N,Net-(D76-A)*%
X343931875Y-163353750D03*
%TD*%
%TO.P,SW86,1,1*%
%TO.N,col 6*%
X197881875Y-179863750D03*
%TO.P,SW86,2,2*%
%TO.N,Net-(D86-A)*%
X191531875Y-182403750D03*
%TD*%
%TO.P,SW69,1,1*%
%TO.N,col 5*%
X216931875Y-160813750D03*
%TO.P,SW69,2,2*%
%TO.N,Net-(D69-A)*%
X210581875Y-163353750D03*
%TD*%
%TO.P,SW87,1,1*%
%TO.N,col 7*%
X216931875Y-179863750D03*
%TO.P,SW87,2,2*%
%TO.N,Net-(D87-A)*%
X210581875Y-182403750D03*
%TD*%
%TO.P,SW17,1,1*%
%TO.N,col 1*%
X126444375Y-103663750D03*
%TO.P,SW17,2,2*%
%TO.N,Net-(D17-A)*%
X120094375Y-106203750D03*
%TD*%
%TO.P,SW95,1,1*%
%TO.N,col 16*%
X459819375Y-160813750D03*
%TO.P,SW95,2,2*%
%TO.N,Net-(D95-A)*%
X453469375Y-163353750D03*
%TD*%
%TO.P,SW60,1,1*%
%TO.N,col 12*%
X340756875Y-141763750D03*
%TO.P,SW60,2,2*%
%TO.N,Net-(D60-A)*%
X334406875Y-144303750D03*
%TD*%
%TO.P,SW78,1,1*%
%TO.N,col 14*%
X388381875Y-160813750D03*
%TO.P,SW78,2,2*%
%TO.N,Net-(D78-A)*%
X382031875Y-163353750D03*
%TD*%
%TO.P,SW31,1,1*%
%TO.N,col 15*%
X402669375Y-103663750D03*
%TO.P,SW31,2,2*%
%TO.N,Net-(D31-A)*%
X396319375Y-106203750D03*
%TD*%
D20*
%TO.P,D31,1,K*%
%TO.N,row 2*%
X390921875Y-111918750D03*
%TO.P,D31,2,A*%
%TO.N,Net-(D31-A)*%
X390921875Y-108618750D03*
%TD*%
%TO.P,D21,1,K*%
%TO.N,row 2*%
X200421875Y-111918750D03*
%TO.P,D21,2,A*%
%TO.N,Net-(D21-A)*%
X200421875Y-108618750D03*
%TD*%
%TO.P,D8,1,K*%
%TO.N,row 1*%
X238521875Y-92868750D03*
%TO.P,D8,2,A*%
%TO.N,Net-(D8-A)*%
X238521875Y-89568750D03*
%TD*%
%TO.P,D23,1,K*%
%TO.N,row 2*%
X238521875Y-111918750D03*
%TO.P,D23,2,A*%
%TO.N,Net-(D23-A)*%
X238521875Y-108618750D03*
%TD*%
%TO.P,D45,1,K*%
%TO.N,row 3*%
X362346875Y-130968750D03*
%TO.P,D45,2,A*%
%TO.N,Net-(D45-A)*%
X362346875Y-127668750D03*
%TD*%
%TO.P,D1,1,K*%
%TO.N,row 1*%
X467121875Y-97234375D03*
%TO.P,D1,2,A*%
%TO.N,Net-(D1-A)*%
X467121875Y-93934375D03*
%TD*%
%TO.P,D71,1,K*%
%TO.N,row 5*%
X243284375Y-169068750D03*
%TO.P,D71,2,A*%
%TO.N,Net-(D71-A)*%
X243284375Y-165768750D03*
%TD*%
%TO.P,D74,1,K*%
%TO.N,row 5*%
X300434375Y-169068750D03*
%TO.P,D74,2,A*%
%TO.N,Net-(D74-A)*%
X300434375Y-165768750D03*
%TD*%
%TO.P,D57,1,K*%
%TO.N,row 4*%
X271859375Y-150018750D03*
%TO.P,D57,2,A*%
%TO.N,Net-(D57-A)*%
X271859375Y-146718750D03*
%TD*%
%TO.P,D41,1,K*%
%TO.N,row 3*%
X286146875Y-130968750D03*
%TO.P,D41,2,A*%
%TO.N,Net-(D41-A)*%
X286146875Y-127668750D03*
%TD*%
%TO.P,D81,1,K*%
%TO.N,row 6*%
X79596875Y-191118750D03*
%TO.P,D81,2,A*%
%TO.N,Net-(D81-A)*%
X79596875Y-187818750D03*
%TD*%
%TO.P,D84,1,K*%
%TO.N,row 6*%
X133746875Y-178593750D03*
%TO.P,D84,2,A*%
%TO.N,Net-(D84-A)*%
X133746875Y-175293750D03*
%TD*%
%TO.P,D90,1,K*%
%TO.N,row 6*%
X362346875Y-188118750D03*
%TO.P,D90,2,A*%
%TO.N,Net-(D90-A)*%
X362346875Y-184818750D03*
%TD*%
%TO.P,D35,1,K*%
%TO.N,row 3*%
X162321875Y-130968750D03*
%TO.P,D35,2,A*%
%TO.N,Net-(D35-A)*%
X162321875Y-127668750D03*
%TD*%
%TO.P,D51,1,K*%
%TO.N,row 4*%
X133746875Y-140493750D03*
%TO.P,D51,2,A*%
%TO.N,Net-(D51-A)*%
X133746875Y-137193750D03*
%TD*%
%TO.P,D17,1,K*%
%TO.N,row 2*%
X114696875Y-111918750D03*
%TO.P,D17,2,A*%
%TO.N,Net-(D17-A)*%
X114696875Y-108618750D03*
%TD*%
%TO.P,D44,1,K*%
%TO.N,row 3*%
X343296875Y-130968750D03*
%TO.P,D44,2,A*%
%TO.N,Net-(D44-A)*%
X343296875Y-127668750D03*
%TD*%
%TO.P,D26,1,K*%
%TO.N,row 2*%
X295671875Y-111918750D03*
%TO.P,D26,2,A*%
%TO.N,Net-(D26-A)*%
X295671875Y-108618750D03*
%TD*%
%TO.P,D6,1,K*%
%TO.N,row 1*%
X200421875Y-92868750D03*
%TO.P,D6,2,A*%
%TO.N,Net-(D6-A)*%
X200421875Y-89568750D03*
%TD*%
%TO.P,D3,1,K*%
%TO.N,row 1*%
X95646875Y-111584375D03*
%TO.P,D3,2,A*%
%TO.N,Net-(D3-A)*%
X95646875Y-108284375D03*
%TD*%
%TO.P,D65,1,K*%
%TO.N,row 5*%
X79596875Y-153018750D03*
%TO.P,D65,2,A*%
%TO.N,Net-(D65-A)*%
X79596875Y-149718750D03*
%TD*%
%TO.P,D11,1,K*%
%TO.N,row 1*%
X295671875Y-92868750D03*
%TO.P,D11,2,A*%
%TO.N,Net-(D11-A)*%
X295671875Y-89568750D03*
%TD*%
%TO.P,D87,1,K*%
%TO.N,row 6*%
X205184375Y-188118750D03*
%TO.P,D87,2,A*%
%TO.N,Net-(D87-A)*%
X205184375Y-184818750D03*
%TD*%
%TO.P,D73,1,K*%
%TO.N,row 5*%
X281384375Y-169068750D03*
%TO.P,D73,2,A*%
%TO.N,Net-(D73-A)*%
X281384375Y-165768750D03*
%TD*%
%TO.P,D19,1,K*%
%TO.N,row 2*%
X162321875Y-111918750D03*
%TO.P,D19,2,A*%
%TO.N,Net-(D19-A)*%
X162321875Y-108618750D03*
%TD*%
%TO.P,D28,1,K*%
%TO.N,row 2*%
X333771875Y-111918750D03*
%TO.P,D28,2,A*%
%TO.N,Net-(D28-A)*%
X333771875Y-108618750D03*
%TD*%
%TO.P,D56,1,K*%
%TO.N,row 4*%
X252809375Y-150018750D03*
%TO.P,D56,2,A*%
%TO.N,Net-(D56-A)*%
X252809375Y-146718750D03*
%TD*%
%TO.P,D24,1,K*%
%TO.N,row 2*%
X257571875Y-111918750D03*
%TO.P,D24,2,A*%
%TO.N,Net-(D24-A)*%
X257571875Y-108618750D03*
%TD*%
%TO.P,D89,1,K*%
%TO.N,row 6*%
X243284375Y-188118750D03*
%TO.P,D89,2,A*%
%TO.N,Net-(D89-A)*%
X243284375Y-184818750D03*
%TD*%
%TO.P,D76,1,K*%
%TO.N,row 5*%
X338534375Y-169068750D03*
%TO.P,D76,2,A*%
%TO.N,Net-(D76-A)*%
X338534375Y-165768750D03*
%TD*%
%TO.P,D58,1,K*%
%TO.N,row 4*%
X290909375Y-150018750D03*
%TO.P,D58,2,A*%
%TO.N,Net-(D58-A)*%
X290909375Y-146718750D03*
%TD*%
%TO.P,D91,1,K*%
%TO.N,row 6*%
X386159375Y-188118750D03*
%TO.P,D91,2,A*%
%TO.N,Net-(D91-A)*%
X386159375Y-184818750D03*
%TD*%
%TO.P,D42,1,K*%
%TO.N,row 3*%
X305196875Y-130968750D03*
%TO.P,D42,2,A*%
%TO.N,Net-(D42-A)*%
X305196875Y-127668750D03*
%TD*%
%TO.P,D5,1,K*%
%TO.N,row 1*%
X181371875Y-92868750D03*
%TO.P,D5,2,A*%
%TO.N,Net-(D5-A)*%
X181371875Y-89568750D03*
%TD*%
%TO.P,D77,1,K*%
%TO.N,row 5*%
X357584375Y-169068750D03*
%TO.P,D77,2,A*%
%TO.N,Net-(D77-A)*%
X357584375Y-165768750D03*
%TD*%
%TO.P,D39,1,K*%
%TO.N,row 3*%
X248046875Y-130968750D03*
%TO.P,D39,2,A*%
%TO.N,Net-(D39-A)*%
X248046875Y-127668750D03*
%TD*%
%TO.P,D61,1,K*%
%TO.N,row 4*%
X348059375Y-150018750D03*
%TO.P,D61,2,A*%
%TO.N,Net-(D61-A)*%
X348059375Y-146718750D03*
%TD*%
%TO.P,D12,1,K*%
%TO.N,row 1*%
X314721875Y-92868750D03*
%TO.P,D12,2,A*%
%TO.N,Net-(D12-A)*%
X314721875Y-89568750D03*
%TD*%
%TO.P,D30,1,K*%
%TO.N,row 2*%
X371871875Y-111918750D03*
%TO.P,D30,2,A*%
%TO.N,Net-(D30-A)*%
X371871875Y-108618750D03*
%TD*%
%TO.P,D34,1,K*%
%TO.N,row 3*%
X95646875Y-130968750D03*
%TO.P,D34,2,A*%
%TO.N,Net-(D34-A)*%
X95646875Y-127668750D03*
%TD*%
%TO.P,D27,1,K*%
%TO.N,row 2*%
X314721875Y-111918750D03*
%TO.P,D27,2,A*%
%TO.N,Net-(D27-A)*%
X314721875Y-108618750D03*
%TD*%
%TO.P,D69,1,K*%
%TO.N,row 5*%
X205184375Y-169068750D03*
%TO.P,D69,2,A*%
%TO.N,Net-(D69-A)*%
X205184375Y-165768750D03*
%TD*%
%TO.P,D82,1,K*%
%TO.N,row 6*%
X114696875Y-169068750D03*
%TO.P,D82,2,A*%
%TO.N,Net-(D82-A)*%
X114696875Y-165768750D03*
%TD*%
%TO.P,D47,1,K*%
%TO.N,row 3*%
X400446875Y-130968750D03*
%TO.P,D47,2,A*%
%TO.N,Net-(D47-A)*%
X400446875Y-127668750D03*
%TD*%
%TO.P,D32,1,K*%
%TO.N,row 2*%
X409971875Y-111918750D03*
%TO.P,D32,2,A*%
%TO.N,Net-(D32-A)*%
X409971875Y-108618750D03*
%TD*%
%TO.P,D49,1,K*%
%TO.N,row 4*%
X95646875Y-150018750D03*
%TO.P,D49,2,A*%
%TO.N,Net-(D49-A)*%
X95646875Y-146718750D03*
%TD*%
%TO.P,D83,1,K*%
%TO.N,row 6*%
X114696875Y-188118750D03*
%TO.P,D83,2,A*%
%TO.N,Net-(D83-A)*%
X114696875Y-184818750D03*
%TD*%
%TO.P,D79,1,K*%
%TO.N,row 5*%
X395684375Y-169068750D03*
%TO.P,D79,2,A*%
%TO.N,Net-(D79-A)*%
X395684375Y-165768750D03*
%TD*%
%TO.P,D10,1,K*%
%TO.N,row 1*%
X276621875Y-92868750D03*
%TO.P,D10,2,A*%
%TO.N,Net-(D10-A)*%
X276621875Y-89568750D03*
%TD*%
%TO.P,D18,1,K*%
%TO.N,row 2*%
X114696875Y-130968750D03*
%TO.P,D18,2,A*%
%TO.N,Net-(D18-A)*%
X114696875Y-127668750D03*
%TD*%
%TO.P,D67,1,K*%
%TO.N,row 5*%
X95646875Y-169068750D03*
%TO.P,D67,2,A*%
%TO.N,Net-(D67-A)*%
X95646875Y-165768750D03*
%TD*%
%TO.P,D78,1,K*%
%TO.N,row 5*%
X376634375Y-169068750D03*
%TO.P,D78,2,A*%
%TO.N,Net-(D78-A)*%
X376634375Y-165768750D03*
%TD*%
%TO.P,D14,1,K*%
%TO.N,row 1*%
X352821875Y-92868750D03*
%TO.P,D14,2,A*%
%TO.N,Net-(D14-A)*%
X352821875Y-89568750D03*
%TD*%
%TO.P,D93,1,K*%
%TO.N,row 6*%
X429021875Y-188118750D03*
%TO.P,D93,2,A*%
%TO.N,Net-(D93-A)*%
X429021875Y-184818750D03*
%TD*%
%TO.P,D80,1,K*%
%TO.N,row 5*%
X429021875Y-169068750D03*
%TO.P,D80,2,A*%
%TO.N,Net-(D80-A)*%
X429021875Y-165768750D03*
%TD*%
%TO.P,D16,1,K*%
%TO.N,row 1*%
X390921875Y-92868750D03*
%TO.P,D16,2,A*%
%TO.N,Net-(D16-A)*%
X390921875Y-89568750D03*
%TD*%
%TO.P,D20,1,K*%
%TO.N,row 2*%
X181371875Y-111918750D03*
%TO.P,D20,2,A*%
%TO.N,Net-(D20-A)*%
X181371875Y-108618750D03*
%TD*%
%TO.P,D53,1,K*%
%TO.N,row 4*%
X195659375Y-150018750D03*
%TO.P,D53,2,A*%
%TO.N,Net-(D53-A)*%
X195659375Y-146718750D03*
%TD*%
%TO.P,D43,1,K*%
%TO.N,row 3*%
X324246875Y-130968750D03*
%TO.P,D43,2,A*%
%TO.N,Net-(D43-A)*%
X324246875Y-127668750D03*
%TD*%
%TO.P,D25,1,K*%
%TO.N,row 2*%
X276621875Y-111918750D03*
%TO.P,D25,2,A*%
%TO.N,Net-(D25-A)*%
X276621875Y-108618750D03*
%TD*%
%TO.P,D13,1,K*%
%TO.N,row 1*%
X333771875Y-92868750D03*
%TO.P,D13,2,A*%
%TO.N,Net-(D13-A)*%
X333771875Y-89568750D03*
%TD*%
%TO.P,D85,1,K*%
%TO.N,row 6*%
X162321875Y-188118750D03*
%TO.P,D85,2,A*%
%TO.N,Net-(D85-A)*%
X162321875Y-184818750D03*
%TD*%
%TO.P,D86,1,K*%
%TO.N,row 6*%
X186134375Y-188118750D03*
%TO.P,D86,2,A*%
%TO.N,Net-(D86-A)*%
X186134375Y-184818750D03*
%TD*%
%TO.P,D22,1,K*%
%TO.N,row 2*%
X219471875Y-111918750D03*
%TO.P,D22,2,A*%
%TO.N,Net-(D22-A)*%
X219471875Y-108618750D03*
%TD*%
%TO.P,D33,1,K*%
%TO.N,row 3*%
X79596875Y-133968750D03*
%TO.P,D33,2,A*%
%TO.N,Net-(D33-A)*%
X79596875Y-130668750D03*
%TD*%
%TO.P,D2,1,K*%
%TO.N,row 1*%
X79596875Y-114584375D03*
%TO.P,D2,2,A*%
%TO.N,Net-(D2-A)*%
X79596875Y-111284375D03*
%TD*%
%TO.P,D62,1,K*%
%TO.N,row 4*%
X367109375Y-150018750D03*
%TO.P,D62,2,A*%
%TO.N,Net-(D62-A)*%
X367109375Y-146718750D03*
%TD*%
%TO.P,D88,1,K*%
%TO.N,row 6*%
X224234375Y-188118750D03*
%TO.P,D88,2,A*%
%TO.N,Net-(D88-A)*%
X224234375Y-184818750D03*
%TD*%
%TO.P,D55,1,K*%
%TO.N,row 4*%
X233759375Y-150018750D03*
%TO.P,D55,2,A*%
%TO.N,Net-(D55-A)*%
X233759375Y-146718750D03*
%TD*%
%TO.P,D75,1,K*%
%TO.N,row 5*%
X319484375Y-169068750D03*
%TO.P,D75,2,A*%
%TO.N,Net-(D75-A)*%
X319484375Y-165768750D03*
%TD*%
%TO.P,D72,1,K*%
%TO.N,row 5*%
X262334375Y-169068750D03*
%TO.P,D72,2,A*%
%TO.N,Net-(D72-A)*%
X262334375Y-165768750D03*
%TD*%
%TO.P,D70,1,K*%
%TO.N,row 5*%
X224234375Y-169068750D03*
%TO.P,D70,2,A*%
%TO.N,Net-(D70-A)*%
X224234375Y-165768750D03*
%TD*%
%TO.P,D36,1,K*%
%TO.N,row 3*%
X190896875Y-130968750D03*
%TO.P,D36,2,A*%
%TO.N,Net-(D36-A)*%
X190896875Y-127668750D03*
%TD*%
%TO.P,D29,1,K*%
%TO.N,row 2*%
X352821875Y-111918750D03*
%TO.P,D29,2,A*%
%TO.N,Net-(D29-A)*%
X352821875Y-108618750D03*
%TD*%
%TO.P,D9,1,K*%
%TO.N,row 1*%
X257571875Y-92868750D03*
%TO.P,D9,2,A*%
%TO.N,Net-(D9-A)*%
X257571875Y-89568750D03*
%TD*%
%TO.P,D63,1,K*%
%TO.N,row 4*%
X386159375Y-150018750D03*
%TO.P,D63,2,A*%
%TO.N,Net-(D63-A)*%
X386159375Y-146718750D03*
%TD*%
%TO.P,D40,1,K*%
%TO.N,row 3*%
X267096875Y-130968750D03*
%TO.P,D40,2,A*%
%TO.N,Net-(D40-A)*%
X267096875Y-127668750D03*
%TD*%
%TO.P,D60,1,K*%
%TO.N,row 4*%
X329009375Y-150018750D03*
%TO.P,D60,2,A*%
%TO.N,Net-(D60-A)*%
X329009375Y-146718750D03*
%TD*%
%TO.P,D54,1,K*%
%TO.N,row 4*%
X214709375Y-150018750D03*
%TO.P,D54,2,A*%
%TO.N,Net-(D54-A)*%
X214709375Y-146718750D03*
%TD*%
%TO.P,D46,1,K*%
%TO.N,row 3*%
X381396875Y-130968750D03*
%TO.P,D46,2,A*%
%TO.N,Net-(D46-A)*%
X381396875Y-127668750D03*
%TD*%
%TO.P,D50,1,K*%
%TO.N,row 4*%
X114696875Y-150018750D03*
%TO.P,D50,2,A*%
%TO.N,Net-(D50-A)*%
X114696875Y-146718750D03*
%TD*%
%TO.P,D38,1,K*%
%TO.N,row 3*%
X228996875Y-130968750D03*
%TO.P,D38,2,A*%
%TO.N,Net-(D38-A)*%
X228996875Y-127668750D03*
%TD*%
%TO.P,D66,1,K*%
%TO.N,row 5*%
X79596875Y-172068750D03*
%TO.P,D66,2,A*%
%TO.N,Net-(D66-A)*%
X79596875Y-168768750D03*
%TD*%
%TO.P,D59,1,K*%
%TO.N,row 4*%
X309959375Y-150018750D03*
%TO.P,D59,2,A*%
%TO.N,Net-(D59-A)*%
X309959375Y-146718750D03*
%TD*%
%TO.P,D94,1,K*%
%TO.N,row 6*%
X448071875Y-188118750D03*
%TO.P,D94,2,A*%
%TO.N,Net-(D94-A)*%
X448071875Y-184818750D03*
%TD*%
%TO.P,D95,1,K*%
%TO.N,row 6*%
X448071875Y-169068750D03*
%TO.P,D95,2,A*%
%TO.N,Net-(D95-A)*%
X448071875Y-165768750D03*
%TD*%
%TO.P,D7,1,K*%
%TO.N,row 1*%
X219471875Y-92868750D03*
%TO.P,D7,2,A*%
%TO.N,Net-(D7-A)*%
X219471875Y-89568750D03*
%TD*%
%TO.P,D64,1,K*%
%TO.N,row 4*%
X405209375Y-150018750D03*
%TO.P,D64,2,A*%
%TO.N,Net-(D64-A)*%
X405209375Y-146718750D03*
%TD*%
%TO.P,D48,1,K*%
%TO.N,row 3*%
X419496875Y-130968750D03*
%TO.P,D48,2,A*%
%TO.N,Net-(D48-A)*%
X419496875Y-127668750D03*
%TD*%
%TO.P,D15,1,K*%
%TO.N,row 1*%
X371871875Y-92868750D03*
%TO.P,D15,2,A*%
%TO.N,Net-(D15-A)*%
X371871875Y-89568750D03*
%TD*%
%TO.P,D4,1,K*%
%TO.N,row 1*%
X162321875Y-92868750D03*
%TO.P,D4,2,A*%
%TO.N,Net-(D4-A)*%
X162321875Y-89568750D03*
%TD*%
%TO.P,D52,1,K*%
%TO.N,row 4*%
X162321875Y-150018750D03*
%TO.P,D52,2,A*%
%TO.N,Net-(D52-A)*%
X162321875Y-146718750D03*
%TD*%
%TO.P,D92,1,K*%
%TO.N,row 6*%
X409971875Y-188118750D03*
%TO.P,D92,2,A*%
%TO.N,Net-(D92-A)*%
X409971875Y-184818750D03*
%TD*%
%TO.P,D37,1,K*%
%TO.N,row 3*%
X209946875Y-130968750D03*
%TO.P,D37,2,A*%
%TO.N,Net-(D37-A)*%
X209946875Y-127668750D03*
%TD*%
%TO.P,D68,1,K*%
%TO.N,row 5*%
X162321875Y-169068750D03*
%TO.P,D68,2,A*%
%TO.N,Net-(D68-A)*%
X162321875Y-165768750D03*
%TD*%
D21*
%TO.N,row 6*%
X113771875Y-187193750D03*
X113750000Y-170020000D03*
X79596875Y-191118750D03*
%TO.N,col 4*%
X162010000Y-120300000D03*
%TO.N,col 5*%
X217830313Y-118849687D03*
X161960000Y-118910000D03*
%TO.N,col 6*%
X161990000Y-117760000D03*
X240744375Y-117660000D03*
%TO.N,col 7*%
X161920000Y-116240000D03*
X253160313Y-116079687D03*
%TO.N,col 8*%
X270870312Y-114739688D03*
X162000000Y-114770000D03*
%TO.N,col 9*%
X162070000Y-113600000D03*
X288735312Y-113554688D03*
%TO.N,col 15*%
X394320000Y-76990000D03*
%TO.N,row 1*%
X394200000Y-96170000D03*
X118291562Y-103561562D03*
X443880000Y-96560000D03*
X160780000Y-92920000D03*
X391840000Y-93790000D03*
X447680000Y-97180000D03*
X152230000Y-101200000D03*
X120650000Y-101203125D03*
%TO.N,row 2*%
X92450000Y-121820000D03*
%TO.N,row 3*%
X93670000Y-130968750D03*
%TO.N,row 4*%
X95646875Y-150018750D03*
%TO.N,row 5*%
X96670000Y-167880000D03*
%TO.N,encB*%
X433770000Y-98590000D03*
%TD*%
D22*
%TO.N,col 16*%
X440769375Y-160813750D02*
X459819375Y-160813750D01*
%TO.N,Net-(D1-A)*%
X464450000Y-91678125D02*
X466706250Y-93934375D01*
X466706250Y-93934375D02*
X467121875Y-93934375D01*
%TO.N,Net-(D2-A)*%
X79916162Y-111284375D02*
X81994375Y-109206162D01*
X81994375Y-109206162D02*
X81994375Y-106203750D01*
X79596875Y-111284375D02*
X79916162Y-111284375D01*
%TO.N,Net-(D3-A)*%
X95646875Y-108284375D02*
X97727500Y-106203750D01*
X97727500Y-106203750D02*
X101044375Y-106203750D01*
%TO.N,Net-(D4-A)*%
X164736875Y-87153750D02*
X167719375Y-87153750D01*
X162321875Y-89568750D02*
X164736875Y-87153750D01*
%TO.N,Net-(D5-A)*%
X183786875Y-87153750D02*
X186769375Y-87153750D01*
X181371875Y-89568750D02*
X183786875Y-87153750D01*
%TO.N,Net-(D6-A)*%
X200421875Y-89568750D02*
X202836875Y-87153750D01*
X202836875Y-87153750D02*
X205819375Y-87153750D01*
%TO.N,Net-(D7-A)*%
X219471875Y-89568750D02*
X221886875Y-87153750D01*
X221886875Y-87153750D02*
X224869375Y-87153750D01*
%TO.N,Net-(D8-A)*%
X240936875Y-87153750D02*
X243919375Y-87153750D01*
X238521875Y-89568750D02*
X240936875Y-87153750D01*
%TO.N,Net-(D9-A)*%
X259986875Y-87153750D02*
X262969375Y-87153750D01*
X257571875Y-89568750D02*
X259986875Y-87153750D01*
%TO.N,Net-(D10-A)*%
X279036875Y-87153750D02*
X282019375Y-87153750D01*
X276621875Y-89568750D02*
X279036875Y-87153750D01*
%TO.N,Net-(D11-A)*%
X298086875Y-87153750D02*
X301069375Y-87153750D01*
X295671875Y-89568750D02*
X298086875Y-87153750D01*
%TO.N,Net-(D12-A)*%
X317136875Y-87153750D02*
X320119375Y-87153750D01*
X314721875Y-89568750D02*
X317136875Y-87153750D01*
%TO.N,Net-(D13-A)*%
X333771875Y-89568750D02*
X336186875Y-87153750D01*
X336186875Y-87153750D02*
X339169375Y-87153750D01*
D23*
%TO.N,GND*%
X120960000Y-76950000D02*
X125080000Y-76950000D01*
X125080000Y-76950000D02*
X132620000Y-84490000D01*
X446136250Y-92991875D02*
X449950000Y-89178125D01*
X135710000Y-94790000D02*
X410005625Y-94790000D01*
X132620000Y-91700000D02*
X135710000Y-94790000D01*
X132620000Y-84490000D02*
X132620000Y-91700000D01*
X410005625Y-94790000D02*
X411803750Y-92991875D01*
X119360000Y-78550000D02*
X120960000Y-76950000D01*
X411803750Y-92991875D02*
X446136250Y-92991875D01*
D22*
%TO.N,Net-(D17-A)*%
X114696875Y-108618750D02*
X117111875Y-106203750D01*
X117111875Y-106203750D02*
X120094375Y-106203750D01*
%TO.N,Net-(D18-A)*%
X117111875Y-125253750D02*
X120094375Y-125253750D01*
X114696875Y-127668750D02*
X117111875Y-125253750D01*
%TO.N,Net-(D19-A)*%
X164736875Y-106203750D02*
X167719375Y-106203750D01*
X162321875Y-108618750D02*
X164736875Y-106203750D01*
%TO.N,Net-(D20-A)*%
X183786875Y-106203750D02*
X186769375Y-106203750D01*
X181371875Y-108618750D02*
X183786875Y-106203750D01*
%TO.N,Net-(D21-A)*%
X200421875Y-108618750D02*
X202836875Y-106203750D01*
X202836875Y-106203750D02*
X205819375Y-106203750D01*
%TO.N,Net-(D22-A)*%
X221886875Y-106203750D02*
X224869375Y-106203750D01*
X219471875Y-108618750D02*
X221886875Y-106203750D01*
%TO.N,Net-(D23-A)*%
X238521875Y-108618750D02*
X240936875Y-106203750D01*
X240936875Y-106203750D02*
X243919375Y-106203750D01*
%TO.N,Net-(D24-A)*%
X259986875Y-106203750D02*
X262969375Y-106203750D01*
X257571875Y-108618750D02*
X259986875Y-106203750D01*
%TO.N,Net-(D25-A)*%
X276621875Y-108618750D02*
X279036875Y-106203750D01*
X279036875Y-106203750D02*
X282019375Y-106203750D01*
%TO.N,Net-(D26-A)*%
X298086875Y-106203750D02*
X301069375Y-106203750D01*
X295671875Y-108618750D02*
X298086875Y-106203750D01*
%TO.N,Net-(D27-A)*%
X314721875Y-108618750D02*
X317136875Y-106203750D01*
X317136875Y-106203750D02*
X320119375Y-106203750D01*
%TO.N,Net-(D28-A)*%
X336186875Y-106203750D02*
X339169375Y-106203750D01*
X333771875Y-108618750D02*
X336186875Y-106203750D01*
%TO.N,Net-(D29-A)*%
X358219375Y-106203750D02*
X355236875Y-106203750D01*
X355236875Y-106203750D02*
X352821875Y-108618750D01*
%TO.N,Net-(D30-A)*%
X374286875Y-106203750D02*
X371871875Y-108618750D01*
X377269375Y-106203750D02*
X374286875Y-106203750D01*
%TO.N,Net-(D31-A)*%
X393336875Y-106203750D02*
X390921875Y-108618750D01*
X396319375Y-106203750D02*
X393336875Y-106203750D01*
%TO.N,Net-(D32-A)*%
X424894375Y-106203750D02*
X412386875Y-106203750D01*
X412386875Y-106203750D02*
X409971875Y-108618750D01*
%TO.N,Net-(D33-A)*%
X79596875Y-130668750D02*
X81994375Y-128271250D01*
X81994375Y-128271250D02*
X81994375Y-125253750D01*
%TO.N,Net-(D34-A)*%
X95646875Y-127668750D02*
X98061875Y-125253750D01*
X98061875Y-125253750D02*
X101044375Y-125253750D01*
%TO.N,Net-(D35-A)*%
X164736875Y-125253750D02*
X172481875Y-125253750D01*
X162321875Y-127668750D02*
X164736875Y-125253750D01*
%TO.N,Net-(D36-A)*%
X190896875Y-127668750D02*
X193311875Y-125253750D01*
X193311875Y-125253750D02*
X196294375Y-125253750D01*
%TO.N,Net-(D37-A)*%
X212361875Y-125253750D02*
X215344375Y-125253750D01*
X209946875Y-127668750D02*
X212361875Y-125253750D01*
%TO.N,Net-(D38-A)*%
X228996875Y-127668750D02*
X231411875Y-125253750D01*
X231411875Y-125253750D02*
X234394375Y-125253750D01*
%TO.N,Net-(D39-A)*%
X250461875Y-125253750D02*
X253444375Y-125253750D01*
X248046875Y-127668750D02*
X250461875Y-125253750D01*
%TO.N,Net-(D40-A)*%
X269511875Y-125253750D02*
X272494375Y-125253750D01*
X267096875Y-127668750D02*
X269511875Y-125253750D01*
%TO.N,Net-(D41-A)*%
X286146875Y-127668750D02*
X288561875Y-125253750D01*
X288561875Y-125253750D02*
X291544375Y-125253750D01*
%TO.N,Net-(D42-A)*%
X305196875Y-127668750D02*
X307611875Y-125253750D01*
X307611875Y-125253750D02*
X310594375Y-125253750D01*
%TO.N,Net-(D43-A)*%
X329644375Y-125253750D02*
X326661875Y-125253750D01*
X326661875Y-125253750D02*
X324246875Y-127668750D01*
%TO.N,Net-(D44-A)*%
X345711875Y-125253750D02*
X348694375Y-125253750D01*
X343296875Y-127668750D02*
X345711875Y-125253750D01*
%TO.N,Net-(D45-A)*%
X364761875Y-125253750D02*
X362346875Y-127668750D01*
X367744375Y-125253750D02*
X364761875Y-125253750D01*
%TO.N,Net-(D46-A)*%
X383811875Y-125253750D02*
X381396875Y-127668750D01*
X386794375Y-125253750D02*
X383811875Y-125253750D01*
%TO.N,Net-(D47-A)*%
X405844375Y-125253750D02*
X402861875Y-125253750D01*
X402861875Y-125253750D02*
X400446875Y-127668750D01*
%TO.N,Net-(D48-A)*%
X421911875Y-125253750D02*
X419496875Y-127668750D01*
X429656875Y-125253750D02*
X421911875Y-125253750D01*
%TO.N,Net-(D49-A)*%
X95646875Y-146718750D02*
X98061875Y-144303750D01*
X98061875Y-144303750D02*
X101044375Y-144303750D01*
%TO.N,Net-(D50-A)*%
X114696875Y-146718750D02*
X117111875Y-144303750D01*
X117111875Y-144303750D02*
X120094375Y-144303750D01*
%TO.N,Net-(D51-A)*%
X136161875Y-134778750D02*
X139144375Y-134778750D01*
X133746875Y-137193750D02*
X136161875Y-134778750D01*
%TO.N,Net-(D52-A)*%
X164736875Y-144303750D02*
X174863125Y-144303750D01*
X162321875Y-146718750D02*
X164736875Y-144303750D01*
%TO.N,Net-(D53-A)*%
X198074375Y-144303750D02*
X201056875Y-144303750D01*
X195659375Y-146718750D02*
X198074375Y-144303750D01*
%TO.N,Net-(D54-A)*%
X214709375Y-146718750D02*
X217124375Y-144303750D01*
X217124375Y-144303750D02*
X220106875Y-144303750D01*
%TO.N,Net-(D58-A)*%
X290909375Y-146718750D02*
X293324375Y-144303750D01*
X293324375Y-144303750D02*
X296306875Y-144303750D01*
%TO.N,Net-(D59-A)*%
X309959375Y-146718750D02*
X312374375Y-144303750D01*
X312374375Y-144303750D02*
X315356875Y-144303750D01*
%TO.N,Net-(D60-A)*%
X334406875Y-144303750D02*
X331424375Y-144303750D01*
X331424375Y-144303750D02*
X329009375Y-146718750D01*
%TO.N,Net-(D61-A)*%
X348059375Y-146718750D02*
X350474375Y-144303750D01*
X350474375Y-144303750D02*
X353456875Y-144303750D01*
%TO.N,Net-(D62-A)*%
X372506875Y-144303750D02*
X369524375Y-144303750D01*
X369524375Y-144303750D02*
X367109375Y-146718750D01*
%TO.N,Net-(D63-A)*%
X391556875Y-144303750D02*
X388574375Y-144303750D01*
X388574375Y-144303750D02*
X386159375Y-146718750D01*
%TO.N,Net-(D64-A)*%
X422513125Y-144303750D02*
X407624375Y-144303750D01*
X407624375Y-144303750D02*
X405209375Y-146718750D01*
%TO.N,Net-(D65-A)*%
X81994375Y-147321250D02*
X81994375Y-144303750D01*
X79596875Y-149718750D02*
X81994375Y-147321250D01*
%TO.N,Net-(D66-A)*%
X81994375Y-166371250D02*
X81994375Y-163353750D01*
X79596875Y-168768750D02*
X81994375Y-166371250D01*
%TO.N,Net-(D67-A)*%
X98061875Y-163353750D02*
X101044375Y-163353750D01*
X95646875Y-165768750D02*
X98061875Y-163353750D01*
%TO.N,Net-(D68-A)*%
X164736875Y-163353750D02*
X179625625Y-163353750D01*
X162321875Y-165768750D02*
X164736875Y-163353750D01*
%TO.N,Net-(D69-A)*%
X205184375Y-165768750D02*
X207599375Y-163353750D01*
X207599375Y-163353750D02*
X210581875Y-163353750D01*
%TO.N,Net-(D70-A)*%
X226649375Y-163353750D02*
X229631875Y-163353750D01*
X224234375Y-165768750D02*
X226649375Y-163353750D01*
%TO.N,Net-(D71-A)*%
X245699375Y-163353750D02*
X248681875Y-163353750D01*
X243284375Y-165768750D02*
X245699375Y-163353750D01*
%TO.N,Net-(D72-A)*%
X262334375Y-165768750D02*
X264749375Y-163353750D01*
X264749375Y-163353750D02*
X267731875Y-163353750D01*
%TO.N,Net-(D73-A)*%
X281384375Y-165768750D02*
X283799375Y-163353750D01*
X283799375Y-163353750D02*
X286781875Y-163353750D01*
%TO.N,Net-(D74-A)*%
X300434375Y-165768750D02*
X302849375Y-163353750D01*
X302849375Y-163353750D02*
X305831875Y-163353750D01*
%TO.N,Net-(D75-A)*%
X319484375Y-165768750D02*
X321899375Y-163353750D01*
X321899375Y-163353750D02*
X324881875Y-163353750D01*
%TO.N,Net-(D76-A)*%
X340949375Y-163353750D02*
X338534375Y-165768750D01*
X343931875Y-163353750D02*
X340949375Y-163353750D01*
%TO.N,Net-(D77-A)*%
X359999375Y-163353750D02*
X357584375Y-165768750D01*
X362981875Y-163353750D02*
X359999375Y-163353750D01*
%TO.N,Net-(D78-A)*%
X382031875Y-163353750D02*
X379049375Y-163353750D01*
X379049375Y-163353750D02*
X376634375Y-165768750D01*
%TO.N,Net-(D79-A)*%
X408225625Y-163353750D02*
X398099375Y-163353750D01*
X398099375Y-163353750D02*
X395684375Y-165768750D01*
%TO.N,Net-(D80-A)*%
X434419375Y-163353750D02*
X431436875Y-163353750D01*
X431436875Y-163353750D02*
X429021875Y-165768750D01*
%TO.N,Net-(D81-A)*%
X79596875Y-187818750D02*
X85011875Y-182403750D01*
X85011875Y-182403750D02*
X91519375Y-182403750D01*
%TO.N,Net-(D82-A)*%
X117111875Y-163353750D02*
X120094375Y-163353750D01*
X114696875Y-165768750D02*
X117111875Y-163353750D01*
%TO.N,Net-(D83-A)*%
X114696875Y-184818750D02*
X117111875Y-182403750D01*
X117111875Y-182403750D02*
X120094375Y-182403750D01*
%TO.N,Net-(D84-A)*%
X133746875Y-175293750D02*
X136161875Y-172878750D01*
X136161875Y-172878750D02*
X139144375Y-172878750D01*
%TO.N,Net-(D85-A)*%
X170100625Y-182403750D02*
X164736875Y-182403750D01*
X164736875Y-182403750D02*
X162321875Y-184818750D01*
%TO.N,Net-(D86-A)*%
X191531875Y-182403750D02*
X188549375Y-182403750D01*
X188549375Y-182403750D02*
X186134375Y-184818750D01*
%TO.N,Net-(D87-A)*%
X207599375Y-182403750D02*
X205184375Y-184818750D01*
X210581875Y-182403750D02*
X207599375Y-182403750D01*
%TO.N,Net-(D88-A)*%
X226649375Y-182403750D02*
X224234375Y-184818750D01*
X229631875Y-182403750D02*
X226649375Y-182403750D01*
%TO.N,Net-(D89-A)*%
X298688125Y-182403750D02*
X245699375Y-182403750D01*
X245699375Y-182403750D02*
X243284375Y-184818750D01*
%TO.N,Net-(D90-A)*%
X370125625Y-182403750D02*
X364761875Y-182403750D01*
X364761875Y-182403750D02*
X362346875Y-184818750D01*
%TO.N,Net-(D91-A)*%
X393938125Y-182403750D02*
X388574375Y-182403750D01*
X388574375Y-182403750D02*
X386159375Y-184818750D01*
%TO.N,row 6*%
X113771875Y-169993750D02*
X113771875Y-169998125D01*
X155971875Y-181768750D02*
X162321875Y-188118750D01*
X113771875Y-169998125D02*
X113750000Y-170020000D01*
X79596875Y-191118750D02*
X82596875Y-188118750D01*
X127541787Y-188118750D02*
X133746875Y-181913662D01*
X114696875Y-188118750D02*
X127541787Y-188118750D01*
X448071875Y-188118750D02*
X447146875Y-187193750D01*
X133746875Y-181768750D02*
X133746875Y-178593750D01*
X447146875Y-187193750D02*
X447146875Y-169993750D01*
X82596875Y-188118750D02*
X114696875Y-188118750D01*
X133746875Y-181768750D02*
X155971875Y-181768750D01*
X133746875Y-181913662D02*
X133746875Y-181768750D01*
X114696875Y-188118750D02*
X113771875Y-187193750D01*
X113771875Y-169993750D02*
X114696875Y-169068750D01*
X162321875Y-188118750D02*
X448071875Y-188118750D01*
X447146875Y-169993750D02*
X448071875Y-169068750D01*
%TO.N,Net-(D92-A)*%
X412386875Y-182403750D02*
X409971875Y-184818750D01*
X415369375Y-182403750D02*
X412386875Y-182403750D01*
%TO.N,Net-(D93-A)*%
X434419375Y-182403750D02*
X431436875Y-182403750D01*
X431436875Y-182403750D02*
X429021875Y-184818750D01*
%TO.N,Net-(D94-A)*%
X450486875Y-182403750D02*
X448071875Y-184818750D01*
X453469375Y-182403750D02*
X450486875Y-182403750D01*
%TO.N,Net-(D14-A)*%
X355236875Y-87153750D02*
X352821875Y-89568750D01*
X358219375Y-87153750D02*
X355236875Y-87153750D01*
%TO.N,Net-(D15-A)*%
X377269375Y-87153750D02*
X374286875Y-87153750D01*
X374286875Y-87153750D02*
X371871875Y-89568750D01*
%TO.N,Net-(D16-A)*%
X396319370Y-87153750D02*
X393336875Y-87153750D01*
X393336875Y-87153750D02*
X390921875Y-89568750D01*
%TO.N,col 1*%
X88344375Y-141763750D02*
X107394375Y-141763750D01*
X126444375Y-103663750D02*
X124777500Y-101996875D01*
X90011250Y-101996875D02*
X88344375Y-103663750D01*
X124777500Y-101996875D02*
X90011250Y-101996875D01*
D24*
%TO.N,col 3*%
X116820000Y-78550000D02*
X119390000Y-75980000D01*
X165435625Y-75980000D02*
X174069375Y-84613750D01*
X119390000Y-75980000D02*
X165435625Y-75980000D01*
D25*
%TO.N,col 4*%
X162010000Y-120300000D02*
X200230625Y-120300000D01*
X200230625Y-120300000D02*
X202644375Y-122713750D01*
%TO.N,col 5*%
X217770000Y-118910000D02*
X217830313Y-118849687D01*
X161960000Y-118910000D02*
X217770000Y-118910000D01*
%TO.N,col 6*%
X240644375Y-117760000D02*
X240744375Y-117660000D01*
X161990000Y-117760000D02*
X240644375Y-117760000D01*
%TO.N,col 7*%
X161920000Y-116240000D02*
X253000000Y-116240000D01*
X253000000Y-116240000D02*
X253160313Y-116079687D01*
%TO.N,col 8*%
X162000000Y-114770000D02*
X270840000Y-114770000D01*
X270840000Y-114770000D02*
X270870312Y-114739688D01*
%TO.N,col 9*%
X162070000Y-113600000D02*
X288690000Y-113600000D01*
X288690000Y-113600000D02*
X288735312Y-113554688D01*
%TO.N,col 10*%
X101580000Y-96330000D02*
X105640000Y-100390000D01*
X105640000Y-100390000D02*
X299440000Y-100390000D01*
X299440000Y-100390000D02*
X302713750Y-103663750D01*
X302713750Y-103663750D02*
X307419375Y-103663750D01*
%TO.N,col 11*%
X107340000Y-99550000D02*
X322355625Y-99550000D01*
X104120000Y-96330000D02*
X107340000Y-99550000D01*
X322355625Y-99550000D02*
X326469375Y-103663750D01*
D24*
%TO.N,col 12*%
X114280000Y-78550000D02*
X118000000Y-74830000D01*
X335735625Y-74830000D02*
X343625625Y-82720000D01*
X118000000Y-74830000D02*
X335735625Y-74830000D01*
D25*
X343625625Y-82720000D02*
X345519375Y-84613750D01*
D24*
%TO.N,col 13*%
X116590000Y-73700000D02*
X353655625Y-73700000D01*
X353655625Y-73700000D02*
X361685625Y-81730000D01*
X111740000Y-78550000D02*
X116590000Y-73700000D01*
D25*
X361685625Y-81730000D02*
X364569375Y-84613750D01*
D24*
%TO.N,col 14*%
X115070000Y-72680000D02*
X371685625Y-72680000D01*
X109200000Y-78550000D02*
X115070000Y-72680000D01*
X371685625Y-72680000D02*
X383619375Y-84613750D01*
%TO.N,col 15*%
X394320000Y-76990000D02*
X395045620Y-76990000D01*
X395045620Y-76990000D02*
X402669370Y-84613750D01*
D22*
%TO.N,col 2*%
X126444375Y-160813750D02*
X111998125Y-160813750D01*
X109537500Y-158353125D02*
X90805000Y-158353125D01*
X111998125Y-160813750D02*
X109537500Y-158353125D01*
X90805000Y-158353125D02*
X88344375Y-160813750D01*
%TO.N,Net-(D55-A)*%
X233759375Y-146718750D02*
X236174375Y-144303750D01*
X236174375Y-144303750D02*
X239156875Y-144303750D01*
%TO.N,Net-(D56-A)*%
X252809375Y-146718750D02*
X255224375Y-144303750D01*
X255224375Y-144303750D02*
X258206875Y-144303750D01*
%TO.N,Net-(D57-A)*%
X274274375Y-144303750D02*
X277256875Y-144303750D01*
X271859375Y-146718750D02*
X274274375Y-144303750D01*
%TO.N,row 1*%
X120650000Y-101203125D02*
X151960000Y-101203125D01*
X467121875Y-97234375D02*
X447734375Y-97234375D01*
X79596875Y-114584375D02*
X86070000Y-114584375D01*
X160780000Y-92920000D02*
X162270625Y-92920000D01*
X447734375Y-97234375D02*
X447680000Y-97180000D01*
X110268749Y-111584375D02*
X95646875Y-111584375D01*
X162321875Y-92868750D02*
X390921875Y-92868750D01*
X151960000Y-101203125D02*
X152226875Y-101203125D01*
X83800000Y-96330000D02*
X83800000Y-102070000D01*
X391840000Y-93790000D02*
X391840000Y-93786875D01*
X118291562Y-103561562D02*
X110268749Y-111584375D01*
X86070000Y-114584375D02*
X89070000Y-111584375D01*
X89070000Y-107340000D02*
X89070000Y-111584375D01*
X394590000Y-96560000D02*
X394200000Y-96170000D01*
X83800000Y-102070000D02*
X89070000Y-107340000D01*
X152226875Y-101203125D02*
X152230000Y-101200000D01*
X391840000Y-93786875D02*
X390921875Y-92868750D01*
X162270625Y-92920000D02*
X162321875Y-92868750D01*
X443880000Y-96560000D02*
X394590000Y-96560000D01*
X89070000Y-111584375D02*
X95646875Y-111584375D01*
%TO.N,row 2*%
X103260000Y-121820000D02*
X105880000Y-124440000D01*
X92450000Y-121820000D02*
X103260000Y-121820000D01*
X113170000Y-129441875D02*
X114696875Y-130968750D01*
X113170000Y-124440000D02*
X113170000Y-129441875D01*
X113170000Y-113445625D02*
X113170000Y-124440000D01*
X181371875Y-111918750D02*
X409971875Y-111918750D01*
X114696875Y-111918750D02*
X181371875Y-111918750D01*
X105880000Y-124440000D02*
X113170000Y-124440000D01*
X114696875Y-111918750D02*
X113170000Y-113445625D01*
%TO.N,row 3*%
X98425000Y-133746875D02*
X131365625Y-133746875D01*
X134540625Y-130571875D02*
X161925000Y-130571875D01*
X131365625Y-133746875D02*
X134540625Y-130571875D01*
X79596875Y-133968750D02*
X90670000Y-133968750D01*
X161925000Y-130571875D02*
X162321875Y-130968750D01*
X162321875Y-130968750D02*
X419496875Y-130968750D01*
X93670000Y-130968750D02*
X95646875Y-130968750D01*
X90670000Y-133968750D02*
X93670000Y-130968750D01*
X95646875Y-130968750D02*
X98425000Y-133746875D01*
%TO.N,row 4*%
X133746875Y-145653125D02*
X157956250Y-145653125D01*
X162321875Y-150018750D02*
X405209375Y-150018750D01*
X157956250Y-145653125D02*
X162321875Y-150018750D01*
X129381250Y-150018750D02*
X133746875Y-145653125D01*
X114696875Y-150018750D02*
X129381250Y-150018750D01*
X133746875Y-145653125D02*
X133746875Y-140493750D01*
X95646875Y-150018750D02*
X114696875Y-150018750D01*
%TO.N,row 5*%
X162166875Y-168913750D02*
X116976250Y-168913750D01*
X162321875Y-169068750D02*
X429021875Y-169068750D01*
X92646875Y-172068750D02*
X95646875Y-169068750D01*
X115140000Y-170750000D02*
X97328125Y-170750000D01*
D25*
X78646875Y-153968750D02*
X78646875Y-171118750D01*
D22*
X96670000Y-167880000D02*
X96670000Y-168045625D01*
D25*
X78646875Y-171118750D02*
X79596875Y-172068750D01*
D22*
X97328125Y-170750000D02*
X95646875Y-169068750D01*
X79596875Y-172068750D02*
X92646875Y-172068750D01*
X116976250Y-168913750D02*
X115140000Y-170750000D01*
X96670000Y-168045625D02*
X95646875Y-169068750D01*
D25*
X79596875Y-153018750D02*
X78646875Y-153968750D01*
D22*
X162321875Y-169068750D02*
X162166875Y-168913750D01*
%TO.N,Net-(D95-A)*%
X453469375Y-163353750D02*
X450486875Y-163353750D01*
X450486875Y-163353750D02*
X448071875Y-165768750D01*
D25*
%TO.N,encA*%
X443858125Y-97770000D02*
X135820000Y-97770000D01*
X124440000Y-78550000D02*
X131190000Y-85300000D01*
X131190000Y-85300000D02*
X131190000Y-93140000D01*
X449950000Y-91678125D02*
X443858125Y-97770000D01*
X131190000Y-93140000D02*
X135820000Y-97770000D01*
%TO.N,encB*%
X417680000Y-98750000D02*
X134550000Y-98750000D01*
X433770000Y-98590000D02*
X433620000Y-98740000D01*
X123320000Y-79970000D02*
X121900000Y-78550000D01*
X417690000Y-98740000D02*
X417680000Y-98750000D01*
X130090000Y-85470000D02*
X124590000Y-79970000D01*
X134550000Y-98750000D02*
X130090000Y-94290000D01*
X124590000Y-79970000D02*
X123320000Y-79970000D01*
X130090000Y-94290000D02*
X130090000Y-85470000D01*
X433620000Y-98740000D02*
X417690000Y-98740000D01*
%TD*%
M02*
