%TF.GenerationSoftware,KiCad,Pcbnew,8.0.8*%
%TF.CreationDate,2025-04-09T15:43:05-07:00*%
%TF.ProjectId,hackboard,6861636b-626f-4617-9264-2e6b69636164,rev?*%
%TF.SameCoordinates,Original*%
%TF.FileFunction,Soldermask,Bot*%
%TF.FilePolarity,Negative*%
%FSLAX46Y46*%
G04 Gerber Fmt 4.6, Leading zero omitted, Abs format (unit mm)*
G04 Created by KiCad (PCBNEW 8.0.8) date 2025-04-09 15:43:05*
%MOMM*%
%LPD*%
G01*
G04 APERTURE LIST*
G04 Aperture macros list*
%AMRoundRect*
0 Rectangle with rounded corners*
0 $1 Rounding radius*
0 $2 $3 $4 $5 $6 $7 $8 $9 X,Y pos of 4 corners*
0 Add a 4 corners polygon primitive as box body*
4,1,4,$2,$3,$4,$5,$6,$7,$8,$9,$2,$3,0*
0 Add four circle primitives for the rounded corners*
1,1,$1+$1,$2,$3*
1,1,$1+$1,$4,$5*
1,1,$1+$1,$6,$7*
1,1,$1+$1,$8,$9*
0 Add four rect primitives between the rounded corners*
20,1,$1+$1,$2,$3,$4,$5,0*
20,1,$1+$1,$4,$5,$6,$7,0*
20,1,$1+$1,$6,$7,$8,$9,0*
20,1,$1+$1,$8,$9,$2,$3,0*%
%AMFreePoly0*
4,1,28,0.605014,0.794986,0.644504,0.794986,0.724698,0.756366,0.780194,0.686777,0.800000,0.600000,0.800000,-0.600000,0.780194,-0.686777,0.724698,-0.756366,0.644504,-0.794986,0.605014,-0.794986,0.600000,-0.800000,0.000000,-0.800000,-0.178017,-0.779942,-0.347107,-0.720775,-0.498792,-0.625465,-0.625465,-0.498792,-0.720775,-0.347107,-0.779942,-0.178017,-0.800000,0.000000,-0.779942,0.178017,
-0.720775,0.347107,-0.625465,0.498792,-0.498792,0.625465,-0.347107,0.720775,-0.178017,0.779942,0.000000,0.800000,0.600000,0.800000,0.605014,0.794986,0.605014,0.794986,$1*%
%AMFreePoly1*
4,1,28,0.178017,0.779942,0.347107,0.720775,0.498792,0.625465,0.625465,0.498792,0.720775,0.347107,0.779942,0.178017,0.800000,0.000000,0.779942,-0.178017,0.720775,-0.347107,0.625465,-0.498792,0.498792,-0.625465,0.347107,-0.720775,0.178017,-0.779942,0.000000,-0.800000,-0.600000,-0.800000,-0.605014,-0.794986,-0.644504,-0.794986,-0.724698,-0.756366,-0.780194,-0.686777,-0.800000,-0.600000,
-0.800000,0.600000,-0.780194,0.686777,-0.724698,0.756366,-0.644504,0.794986,-0.605014,0.794986,-0.600000,0.800000,0.000000,0.800000,0.178017,0.779942,0.178017,0.779942,$1*%
G04 Aperture macros list end*
%ADD10C,1.700000*%
%ADD11C,4.000000*%
%ADD12C,2.200000*%
%ADD13R,1.700000X1.700000*%
%ADD14O,1.700000X1.700000*%
%ADD15C,3.050000*%
%ADD16RoundRect,0.200000X0.600000X-0.600000X0.600000X0.600000X-0.600000X0.600000X-0.600000X-0.600000X0*%
%ADD17C,1.600000*%
%ADD18FreePoly0,90.000000*%
%ADD19FreePoly1,90.000000*%
%ADD20R,2.000000X2.000000*%
%ADD21C,2.000000*%
%ADD22R,3.200000X2.000000*%
%ADD23RoundRect,0.225000X0.375000X-0.225000X0.375000X0.225000X-0.375000X0.225000X-0.375000X-0.225000X0*%
G04 APERTURE END LIST*
D10*
%TO.C,SW74*%
X304561875Y-165893750D03*
D11*
X309641875Y-165893750D03*
D10*
X314721875Y-165893750D03*
D12*
X312181875Y-160813750D03*
X305831875Y-163353750D03*
%TD*%
D10*
%TO.C,SW13*%
X337899375Y-89693750D03*
D11*
X342979375Y-89693750D03*
D10*
X348059375Y-89693750D03*
D12*
X345519375Y-84613750D03*
X339169375Y-87153750D03*
%TD*%
D10*
%TO.C,SW53*%
X199786875Y-146843750D03*
D11*
X204866875Y-146843750D03*
D10*
X209946875Y-146843750D03*
D12*
X207406875Y-141763750D03*
X201056875Y-144303750D03*
%TD*%
D10*
%TO.C,SW72*%
X266461875Y-165893750D03*
D11*
X271541875Y-165893750D03*
D10*
X276621875Y-165893750D03*
D12*
X274081875Y-160813750D03*
X267731875Y-163353750D03*
%TD*%
D10*
%TO.C,SW3*%
X99774375Y-108743750D03*
D11*
X104854375Y-108743750D03*
D10*
X109934375Y-108743750D03*
D12*
X107394375Y-103663750D03*
X101044375Y-106203750D03*
%TD*%
D10*
%TO.C,SW50*%
X118824375Y-146843750D03*
D11*
X123904375Y-146843750D03*
D10*
X128984375Y-146843750D03*
D12*
X126444375Y-141763750D03*
X120094375Y-144303750D03*
%TD*%
D10*
%TO.C,SW75*%
X323611875Y-165893750D03*
D11*
X328691875Y-165893750D03*
D10*
X333771875Y-165893750D03*
D12*
X331231875Y-160813750D03*
X324881875Y-163353750D03*
%TD*%
D10*
%TO.C,SW61*%
X352186875Y-146843750D03*
D11*
X357266875Y-146843750D03*
D10*
X362346875Y-146843750D03*
D12*
X359806875Y-141763750D03*
X353456875Y-144303750D03*
%TD*%
D10*
%TO.C,SW14*%
X356949375Y-89693750D03*
D11*
X362029375Y-89693750D03*
D10*
X367109375Y-89693750D03*
D12*
X364569375Y-84613750D03*
X358219375Y-87153750D03*
%TD*%
D10*
%TO.C,SW47*%
X404574375Y-127793750D03*
D11*
X409654375Y-127793750D03*
D10*
X414734375Y-127793750D03*
D12*
X412194375Y-122713750D03*
X405844375Y-125253750D03*
%TD*%
D10*
%TO.C,SW25*%
X280749375Y-108743750D03*
D11*
X285829375Y-108743750D03*
D10*
X290909375Y-108743750D03*
D12*
X288369375Y-103663750D03*
X282019375Y-106203750D03*
%TD*%
D10*
%TO.C,SW79*%
X406955625Y-165893750D03*
D11*
X412035625Y-165893750D03*
D10*
X417115625Y-165893750D03*
D12*
X414575625Y-160813750D03*
X408225625Y-163353750D03*
%TD*%
D13*
%TO.C,Brd1*%
X411803750Y-92991875D03*
D14*
X411803750Y-90451875D03*
X411803750Y-87911875D03*
X411803750Y-85371875D03*
%TD*%
D15*
%TO.C,SW32*%
X416804375Y-101743750D03*
D11*
X416804375Y-116983750D03*
D10*
X423624375Y-108743750D03*
D11*
X428704375Y-108743750D03*
D10*
X433784375Y-108743750D03*
D15*
X440604375Y-101743750D03*
D11*
X440604375Y-116983750D03*
D12*
X431244375Y-103663750D03*
X424894375Y-106203750D03*
%TD*%
D10*
%TO.C,SW90*%
X368855625Y-184943750D03*
D11*
X373935625Y-184943750D03*
D10*
X379015625Y-184943750D03*
D12*
X376475625Y-179863750D03*
X370125625Y-182403750D03*
%TD*%
D15*
%TO.C,SW68*%
X171535625Y-158893750D03*
D11*
X171535625Y-174133750D03*
D10*
X178355625Y-165893750D03*
D11*
X183435625Y-165893750D03*
D10*
X188515625Y-165893750D03*
D15*
X195335625Y-158893750D03*
D11*
X195335625Y-174133750D03*
D12*
X185975625Y-160813750D03*
X179625625Y-163353750D03*
%TD*%
D10*
%TO.C,SW49*%
X99774375Y-146843750D03*
D11*
X104854375Y-146843750D03*
D10*
X109934375Y-146843750D03*
D12*
X107394375Y-141763750D03*
X101044375Y-144303750D03*
%TD*%
D10*
%TO.C,SW11*%
X299799375Y-89693750D03*
D11*
X304879375Y-89693750D03*
D10*
X309959375Y-89693750D03*
D12*
X307419375Y-84613750D03*
X301069375Y-87153750D03*
%TD*%
D15*
%TO.C,SW81*%
X83429375Y-177943750D03*
D11*
X83429375Y-193183750D03*
D10*
X90249375Y-184943750D03*
D11*
X95329375Y-184943750D03*
D10*
X100409375Y-184943750D03*
D15*
X107229375Y-177943750D03*
D11*
X107229375Y-193183750D03*
D12*
X97869375Y-179863750D03*
X91519375Y-182403750D03*
%TD*%
D10*
%TO.C,SW58*%
X295036875Y-146843750D03*
D11*
X300116875Y-146843750D03*
D10*
X305196875Y-146843750D03*
D12*
X302656875Y-141763750D03*
X296306875Y-144303750D03*
%TD*%
D10*
%TO.C,SW56*%
X256936875Y-146843750D03*
D11*
X262016875Y-146843750D03*
D10*
X267096875Y-146843750D03*
D12*
X264556875Y-141763750D03*
X258206875Y-144303750D03*
%TD*%
D10*
%TO.C,SW80*%
X433149375Y-165893750D03*
D11*
X438229375Y-165893750D03*
D10*
X443309375Y-165893750D03*
D12*
X440769375Y-160813750D03*
X434419375Y-163353750D03*
%TD*%
D10*
%TO.C,SW7*%
X223599375Y-89693750D03*
D11*
X228679375Y-89693750D03*
D10*
X233759375Y-89693750D03*
D12*
X231219375Y-84613750D03*
X224869375Y-87153750D03*
%TD*%
D15*
%TO.C,SW51*%
X135954375Y-125418750D03*
X135954375Y-149218750D03*
D10*
X137874375Y-137318750D03*
D11*
X142954375Y-137318750D03*
D10*
X148034375Y-137318750D03*
D11*
X151194375Y-125418750D03*
X151194375Y-149218750D03*
D12*
X145494375Y-132238750D03*
X139144375Y-134778750D03*
%TD*%
D10*
%TO.C,SW54*%
X218836875Y-146843750D03*
D11*
X223916875Y-146843750D03*
D10*
X228996875Y-146843750D03*
D12*
X226456875Y-141763750D03*
X220106875Y-144303750D03*
%TD*%
D10*
%TO.C,SW30*%
X375999375Y-108743750D03*
D11*
X381079375Y-108743750D03*
D10*
X386159375Y-108743750D03*
D12*
X383619375Y-103663750D03*
X377269375Y-106203750D03*
%TD*%
D10*
%TO.C,SW40*%
X271224375Y-127793750D03*
D11*
X276304375Y-127793750D03*
D10*
X281384375Y-127793750D03*
D12*
X278844375Y-122713750D03*
X272494375Y-125253750D03*
%TD*%
D10*
%TO.C,SW27*%
X318849375Y-108743750D03*
D11*
X323929375Y-108743750D03*
D10*
X329009375Y-108743750D03*
D12*
X326469375Y-103663750D03*
X320119375Y-106203750D03*
%TD*%
D10*
%TO.C,SW83*%
X118824375Y-184943750D03*
D11*
X123904375Y-184943750D03*
D10*
X128984375Y-184943750D03*
D12*
X126444375Y-179863750D03*
X120094375Y-182403750D03*
%TD*%
D10*
%TO.C,SW38*%
X233124375Y-127793750D03*
D11*
X238204375Y-127793750D03*
D10*
X243284375Y-127793750D03*
D12*
X240744375Y-122713750D03*
X234394375Y-125253750D03*
%TD*%
D10*
%TO.C,SW85*%
X168830625Y-184943750D03*
D11*
X173910625Y-184943750D03*
D10*
X178990625Y-184943750D03*
D12*
X176450625Y-179863750D03*
X170100625Y-182403750D03*
%TD*%
D10*
%TO.C,SW8*%
X242649375Y-89693750D03*
D11*
X247729375Y-89693750D03*
D10*
X252809375Y-89693750D03*
D12*
X250269375Y-84613750D03*
X243919375Y-87153750D03*
%TD*%
D10*
%TO.C,SW93*%
X433149375Y-184943750D03*
D11*
X438229375Y-184943750D03*
D10*
X443309375Y-184943750D03*
D12*
X440769375Y-179863750D03*
X434419375Y-182403750D03*
%TD*%
D10*
%TO.C,SW22*%
X223599375Y-108743750D03*
D11*
X228679375Y-108743750D03*
D10*
X233759375Y-108743750D03*
D12*
X231219375Y-103663750D03*
X224869375Y-106203750D03*
%TD*%
D10*
%TO.C,SW62*%
X371236875Y-146843750D03*
D11*
X376316875Y-146843750D03*
D10*
X381396875Y-146843750D03*
D12*
X378856875Y-141763750D03*
X372506875Y-144303750D03*
%TD*%
D10*
%TO.C,SW67*%
X99774375Y-165893750D03*
D11*
X104854375Y-165893750D03*
D10*
X109934375Y-165893750D03*
D12*
X107394375Y-160813750D03*
X101044375Y-163353750D03*
%TD*%
D10*
%TO.C,SW59*%
X314086875Y-146843750D03*
D11*
X319166875Y-146843750D03*
D10*
X324246875Y-146843750D03*
D12*
X321706875Y-141763750D03*
X315356875Y-144303750D03*
%TD*%
D10*
%TO.C,SW44*%
X347424375Y-127793750D03*
D11*
X352504375Y-127793750D03*
D10*
X357584375Y-127793750D03*
D12*
X355044375Y-122713750D03*
X348694375Y-125253750D03*
%TD*%
D10*
%TO.C,SW37*%
X214074375Y-127793750D03*
D11*
X219154375Y-127793750D03*
D10*
X224234375Y-127793750D03*
D12*
X221694375Y-122713750D03*
X215344375Y-125253750D03*
%TD*%
D10*
%TO.C,SW26*%
X299799375Y-108743750D03*
D11*
X304879375Y-108743750D03*
D10*
X309959375Y-108743750D03*
D12*
X307419375Y-103663750D03*
X301069375Y-106203750D03*
%TD*%
D10*
%TO.C,SW94*%
X452199375Y-184943750D03*
D11*
X457279375Y-184943750D03*
D10*
X462359375Y-184943750D03*
D12*
X459819375Y-179863750D03*
X453469375Y-182403750D03*
%TD*%
D10*
%TO.C,SW55*%
X237886875Y-146843750D03*
D11*
X242966875Y-146843750D03*
D10*
X248046875Y-146843750D03*
D12*
X245506875Y-141763750D03*
X239156875Y-144303750D03*
%TD*%
D16*
%TO.C,U1*%
X76180000Y-96330000D03*
D17*
X78720000Y-96330000D03*
D18*
X81260000Y-96330000D03*
D17*
X83800000Y-96330000D03*
X86340000Y-96330000D03*
X88880000Y-96330000D03*
X91420000Y-96330000D03*
D18*
X93960000Y-96330000D03*
D17*
X96500000Y-96330000D03*
X99040000Y-96330000D03*
X101580000Y-96330000D03*
X104120000Y-96330000D03*
D18*
X106660000Y-96330000D03*
D17*
X109200000Y-96330000D03*
X111740000Y-96330000D03*
X114280000Y-96330000D03*
X116820000Y-96330000D03*
D18*
X119360000Y-96330000D03*
D17*
X121900000Y-96330000D03*
X124440000Y-96330000D03*
X124440000Y-78550000D03*
X121900000Y-78550000D03*
D19*
X119360000Y-78550000D03*
D17*
X116820000Y-78550000D03*
X114280000Y-78550000D03*
X111740000Y-78550000D03*
X109200000Y-78550000D03*
D19*
X106660000Y-78550000D03*
D17*
X104120000Y-78550000D03*
X101580000Y-78550000D03*
X99040000Y-78550000D03*
X96500000Y-78550000D03*
D19*
X93960000Y-78550000D03*
D17*
X91420000Y-78550000D03*
X88880000Y-78550000D03*
X86340000Y-78550000D03*
X83800000Y-78550000D03*
D19*
X81260000Y-78550000D03*
D17*
X78720000Y-78550000D03*
X76180000Y-78550000D03*
%TD*%
D12*
%TO.C,H2*%
X76810000Y-93130000D03*
%TD*%
D10*
%TO.C,SW63*%
X390286875Y-146843750D03*
D11*
X395366875Y-146843750D03*
D10*
X400446875Y-146843750D03*
D12*
X397906875Y-141763750D03*
X391556875Y-144303750D03*
%TD*%
D10*
%TO.C,SW9*%
X261699375Y-89693750D03*
D11*
X266779375Y-89693750D03*
D10*
X271859375Y-89693750D03*
D12*
X269319375Y-84613750D03*
X262969375Y-87153750D03*
%TD*%
D10*
%TO.C,SW5*%
X185499375Y-89693750D03*
D11*
X190579375Y-89693750D03*
D10*
X195659375Y-89693750D03*
D12*
X193119375Y-84613750D03*
X186769375Y-87153750D03*
%TD*%
D10*
%TO.C,SW2*%
X80724375Y-108743750D03*
D11*
X85804375Y-108743750D03*
D10*
X90884375Y-108743750D03*
D12*
X88344375Y-103663750D03*
X81994375Y-106203750D03*
%TD*%
D15*
%TO.C,SW84*%
X135954375Y-163518750D03*
X135954375Y-187318750D03*
D10*
X137874375Y-175418750D03*
D11*
X142954375Y-175418750D03*
D10*
X148034375Y-175418750D03*
D11*
X151194375Y-163518750D03*
X151194375Y-187318750D03*
D12*
X145494375Y-170338750D03*
X139144375Y-172878750D03*
%TD*%
D10*
%TO.C,SW18*%
X118824375Y-127793750D03*
D11*
X123904375Y-127793750D03*
D10*
X128984375Y-127793750D03*
D12*
X126444375Y-122713750D03*
X120094375Y-125253750D03*
%TD*%
D10*
%TO.C,SW41*%
X290274375Y-127793750D03*
D11*
X295354375Y-127793750D03*
D10*
X300434375Y-127793750D03*
D12*
X297894375Y-122713750D03*
X291544375Y-125253750D03*
%TD*%
D10*
%TO.C,SW21*%
X204549375Y-108743750D03*
D11*
X209629375Y-108743750D03*
D10*
X214709375Y-108743750D03*
D12*
X212169375Y-103663750D03*
X205819375Y-106203750D03*
%TD*%
D10*
%TO.C,SW28*%
X337899375Y-108743750D03*
D11*
X342979375Y-108743750D03*
D10*
X348059375Y-108743750D03*
D12*
X345519375Y-103663750D03*
X339169375Y-106203750D03*
%TD*%
D10*
%TO.C,SW45*%
X366474375Y-127793750D03*
D11*
X371554375Y-127793750D03*
D10*
X376634375Y-127793750D03*
D12*
X374094375Y-122713750D03*
X367744375Y-125253750D03*
%TD*%
D10*
%TO.C,SW6*%
X204549375Y-89693750D03*
D11*
X209629375Y-89693750D03*
D10*
X214709375Y-89693750D03*
D12*
X212169375Y-84613750D03*
X205819375Y-87153750D03*
%TD*%
D10*
%TO.C,SW91*%
X392668125Y-184943750D03*
D11*
X397748125Y-184943750D03*
D10*
X402828125Y-184943750D03*
D12*
X400288125Y-179863750D03*
X393938125Y-182403750D03*
%TD*%
D10*
%TO.C,SW92*%
X414099375Y-184943750D03*
D11*
X419179375Y-184943750D03*
D10*
X424259375Y-184943750D03*
D12*
X421719375Y-179863750D03*
X415369375Y-182403750D03*
%TD*%
D10*
%TO.C,SW73*%
X285511875Y-165893750D03*
D11*
X290591875Y-165893750D03*
D10*
X295671875Y-165893750D03*
D12*
X293131875Y-160813750D03*
X286781875Y-163353750D03*
%TD*%
D10*
%TO.C,SW29*%
X356949375Y-108743750D03*
D11*
X362029375Y-108743750D03*
D10*
X367109375Y-108743750D03*
D12*
X364569375Y-103663750D03*
X358219375Y-106203750D03*
%TD*%
D20*
%TO.C,SW1*%
X449950000Y-86678125D03*
D21*
X449950000Y-91678125D03*
X449950000Y-89178125D03*
D22*
X457450000Y-83578125D03*
X457450000Y-94778125D03*
D21*
X464450000Y-91678125D03*
X464450000Y-86678125D03*
%TD*%
D10*
%TO.C,SW88*%
X228361875Y-184943750D03*
D11*
X233441875Y-184943750D03*
D10*
X238521875Y-184943750D03*
D12*
X235981875Y-179863750D03*
X229631875Y-182403750D03*
%TD*%
D15*
%TO.C,SW89*%
X252498125Y-177943750D03*
D11*
X252498125Y-193183750D03*
D10*
X297418125Y-184943750D03*
D11*
X302498125Y-184943750D03*
D10*
X307578125Y-184943750D03*
D15*
X352498125Y-177943750D03*
D11*
X352498125Y-193183750D03*
D12*
X305038125Y-179863750D03*
X298688125Y-182403750D03*
%TD*%
D10*
%TO.C,SW82*%
X118824375Y-165893750D03*
D11*
X123904375Y-165893750D03*
D10*
X128984375Y-165893750D03*
D12*
X126444375Y-160813750D03*
X120094375Y-163353750D03*
%TD*%
D10*
%TO.C,SW12*%
X318849375Y-89693750D03*
D11*
X323929375Y-89693750D03*
D10*
X329009375Y-89693750D03*
D12*
X326469375Y-84613750D03*
X320119375Y-87153750D03*
%TD*%
D10*
%TO.C,SW24*%
X261699375Y-108743750D03*
D11*
X266779375Y-108743750D03*
D10*
X271859375Y-108743750D03*
D12*
X269319375Y-103663750D03*
X262969375Y-106203750D03*
%TD*%
%TO.C,H3*%
X123810000Y-93130000D03*
%TD*%
D10*
%TO.C,SW52*%
X173593125Y-146843750D03*
D11*
X178673125Y-146843750D03*
D10*
X183753125Y-146843750D03*
D12*
X181213125Y-141763750D03*
X174863125Y-144303750D03*
%TD*%
D10*
%TO.C,SW15*%
X375999375Y-89693750D03*
D11*
X381079375Y-89693750D03*
D10*
X386159375Y-89693750D03*
D12*
X383619375Y-84613750D03*
X377269375Y-87153750D03*
%TD*%
D10*
%TO.C,SW23*%
X242649375Y-108743750D03*
D11*
X247729375Y-108743750D03*
D10*
X252809375Y-108743750D03*
D12*
X250269375Y-103663750D03*
X243919375Y-106203750D03*
%TD*%
D10*
%TO.C,SW4*%
X166449375Y-89693750D03*
D11*
X171529375Y-89693750D03*
D10*
X176609375Y-89693750D03*
D12*
X174069375Y-84613750D03*
X167719375Y-87153750D03*
%TD*%
D10*
%TO.C,SW19*%
X166449375Y-108743750D03*
D11*
X171529375Y-108743750D03*
D10*
X176609375Y-108743750D03*
D12*
X174069375Y-103663750D03*
X167719375Y-106203750D03*
%TD*%
D10*
%TO.C,SW46*%
X385524375Y-127793750D03*
D11*
X390604375Y-127793750D03*
D10*
X395684375Y-127793750D03*
D12*
X393144375Y-122713750D03*
X386794375Y-125253750D03*
%TD*%
D10*
%TO.C,SW16*%
X395049370Y-89693750D03*
D11*
X400129370Y-89693750D03*
D10*
X405209370Y-89693750D03*
D12*
X402669370Y-84613750D03*
X396319370Y-87153750D03*
%TD*%
D10*
%TO.C,SW65*%
X80724375Y-146843750D03*
D11*
X85804375Y-146843750D03*
D10*
X90884375Y-146843750D03*
D12*
X88344375Y-141763750D03*
X81994375Y-144303750D03*
%TD*%
D10*
%TO.C,SW48*%
X428386875Y-127793750D03*
D11*
X433466875Y-127793750D03*
D10*
X438546875Y-127793750D03*
D12*
X436006875Y-122713750D03*
X429656875Y-125253750D03*
%TD*%
D10*
%TO.C,SW43*%
X328374375Y-127793750D03*
D11*
X333454375Y-127793750D03*
D10*
X338534375Y-127793750D03*
D12*
X335994375Y-122713750D03*
X329644375Y-125253750D03*
%TD*%
D10*
%TO.C,SW70*%
X228361875Y-165893750D03*
D11*
X233441875Y-165893750D03*
D10*
X238521875Y-165893750D03*
D12*
X235981875Y-160813750D03*
X229631875Y-163353750D03*
%TD*%
D10*
%TO.C,SW57*%
X275986875Y-146843750D03*
D11*
X281066875Y-146843750D03*
D10*
X286146875Y-146843750D03*
D12*
X283606875Y-141763750D03*
X277256875Y-144303750D03*
%TD*%
D10*
%TO.C,SW35*%
X171211875Y-127793750D03*
D11*
X176291875Y-127793750D03*
D10*
X181371875Y-127793750D03*
D12*
X178831875Y-122713750D03*
X172481875Y-125253750D03*
%TD*%
D10*
%TO.C,SW34*%
X99774375Y-127793750D03*
D11*
X104854375Y-127793750D03*
D10*
X109934375Y-127793750D03*
D12*
X107394375Y-122713750D03*
X101044375Y-125253750D03*
%TD*%
D10*
%TO.C,SW77*%
X361711875Y-165893750D03*
D11*
X366791875Y-165893750D03*
D10*
X371871875Y-165893750D03*
D12*
X369331875Y-160813750D03*
X362981875Y-163353750D03*
%TD*%
D10*
%TO.C,SW10*%
X280749375Y-89693750D03*
D11*
X285829375Y-89693750D03*
D10*
X290909375Y-89693750D03*
D12*
X288369375Y-84613750D03*
X282019375Y-87153750D03*
%TD*%
D10*
%TO.C,SW71*%
X247411875Y-165893750D03*
D11*
X252491875Y-165893750D03*
D10*
X257571875Y-165893750D03*
D12*
X255031875Y-160813750D03*
X248681875Y-163353750D03*
%TD*%
D15*
%TO.C,SW64*%
X414423125Y-139843750D03*
D11*
X414423125Y-155083750D03*
D10*
X421243125Y-146843750D03*
D11*
X426323125Y-146843750D03*
D10*
X431403125Y-146843750D03*
D15*
X438223125Y-139843750D03*
D11*
X438223125Y-155083750D03*
D12*
X428863125Y-141763750D03*
X422513125Y-144303750D03*
%TD*%
D10*
%TO.C,SW66*%
X80724375Y-165893750D03*
D11*
X85804375Y-165893750D03*
D10*
X90884375Y-165893750D03*
D12*
X88344375Y-160813750D03*
X81994375Y-163353750D03*
%TD*%
%TO.C,H1*%
X76810000Y-81730000D03*
%TD*%
D10*
%TO.C,SW33*%
X80724375Y-127793750D03*
D11*
X85804375Y-127793750D03*
D10*
X90884375Y-127793750D03*
D12*
X88344375Y-122713750D03*
X81994375Y-125253750D03*
%TD*%
D10*
%TO.C,SW39*%
X252174375Y-127793750D03*
D11*
X257254375Y-127793750D03*
D10*
X262334375Y-127793750D03*
D12*
X259794375Y-122713750D03*
X253444375Y-125253750D03*
%TD*%
D10*
%TO.C,SW36*%
X195024375Y-127793750D03*
D11*
X200104375Y-127793750D03*
D10*
X205184375Y-127793750D03*
D12*
X202644375Y-122713750D03*
X196294375Y-125253750D03*
%TD*%
D10*
%TO.C,SW42*%
X309324375Y-127793750D03*
D11*
X314404375Y-127793750D03*
D10*
X319484375Y-127793750D03*
D12*
X316944375Y-122713750D03*
X310594375Y-125253750D03*
%TD*%
D10*
%TO.C,SW20*%
X185499375Y-108743750D03*
D11*
X190579375Y-108743750D03*
D10*
X195659375Y-108743750D03*
D12*
X193119375Y-103663750D03*
X186769375Y-106203750D03*
%TD*%
D10*
%TO.C,SW76*%
X342661875Y-165893750D03*
D11*
X347741875Y-165893750D03*
D10*
X352821875Y-165893750D03*
D12*
X350281875Y-160813750D03*
X343931875Y-163353750D03*
%TD*%
D10*
%TO.C,SW86*%
X190261875Y-184943750D03*
D11*
X195341875Y-184943750D03*
D10*
X200421875Y-184943750D03*
D12*
X197881875Y-179863750D03*
X191531875Y-182403750D03*
%TD*%
D10*
%TO.C,SW69*%
X209311875Y-165893750D03*
D11*
X214391875Y-165893750D03*
D10*
X219471875Y-165893750D03*
D12*
X216931875Y-160813750D03*
X210581875Y-163353750D03*
%TD*%
D10*
%TO.C,SW87*%
X209311875Y-184943750D03*
D11*
X214391875Y-184943750D03*
D10*
X219471875Y-184943750D03*
D12*
X216931875Y-179863750D03*
X210581875Y-182403750D03*
%TD*%
D10*
%TO.C,SW17*%
X118824375Y-108743750D03*
D11*
X123904375Y-108743750D03*
D10*
X128984375Y-108743750D03*
D12*
X126444375Y-103663750D03*
X120094375Y-106203750D03*
%TD*%
D10*
%TO.C,SW95*%
X452199375Y-165893750D03*
D11*
X457279375Y-165893750D03*
D10*
X462359375Y-165893750D03*
D12*
X459819375Y-160813750D03*
X453469375Y-163353750D03*
%TD*%
D10*
%TO.C,SW60*%
X333136875Y-146843750D03*
D11*
X338216875Y-146843750D03*
D10*
X343296875Y-146843750D03*
D12*
X340756875Y-141763750D03*
X334406875Y-144303750D03*
%TD*%
D10*
%TO.C,SW78*%
X380761875Y-165893750D03*
D11*
X385841875Y-165893750D03*
D10*
X390921875Y-165893750D03*
D12*
X388381875Y-160813750D03*
X382031875Y-163353750D03*
%TD*%
D10*
%TO.C,SW31*%
X395049375Y-108743750D03*
D11*
X400129375Y-108743750D03*
D10*
X405209375Y-108743750D03*
D12*
X402669375Y-103663750D03*
X396319375Y-106203750D03*
%TD*%
D23*
%TO.C,D31*%
X390921875Y-111918750D03*
X390921875Y-108618750D03*
%TD*%
%TO.C,D21*%
X200421875Y-111918750D03*
X200421875Y-108618750D03*
%TD*%
%TO.C,D8*%
X238521875Y-92868750D03*
X238521875Y-89568750D03*
%TD*%
%TO.C,D23*%
X238521875Y-111918750D03*
X238521875Y-108618750D03*
%TD*%
%TO.C,D45*%
X362346875Y-130968750D03*
X362346875Y-127668750D03*
%TD*%
%TO.C,D1*%
X467121875Y-97234375D03*
X467121875Y-93934375D03*
%TD*%
%TO.C,D71*%
X243284375Y-169068750D03*
X243284375Y-165768750D03*
%TD*%
%TO.C,D74*%
X300434375Y-169068750D03*
X300434375Y-165768750D03*
%TD*%
%TO.C,D57*%
X271859375Y-150018750D03*
X271859375Y-146718750D03*
%TD*%
%TO.C,D41*%
X286146875Y-130968750D03*
X286146875Y-127668750D03*
%TD*%
%TO.C,D81*%
X79596875Y-191118750D03*
X79596875Y-187818750D03*
%TD*%
%TO.C,D84*%
X133746875Y-178593750D03*
X133746875Y-175293750D03*
%TD*%
%TO.C,D90*%
X362346875Y-188118750D03*
X362346875Y-184818750D03*
%TD*%
%TO.C,D35*%
X162321875Y-130968750D03*
X162321875Y-127668750D03*
%TD*%
%TO.C,D51*%
X133746875Y-140493750D03*
X133746875Y-137193750D03*
%TD*%
%TO.C,D17*%
X114696875Y-111918750D03*
X114696875Y-108618750D03*
%TD*%
%TO.C,D44*%
X343296875Y-130968750D03*
X343296875Y-127668750D03*
%TD*%
%TO.C,D26*%
X295671875Y-111918750D03*
X295671875Y-108618750D03*
%TD*%
%TO.C,D6*%
X200421875Y-92868750D03*
X200421875Y-89568750D03*
%TD*%
%TO.C,D3*%
X95646875Y-111584375D03*
X95646875Y-108284375D03*
%TD*%
%TO.C,D65*%
X79596875Y-153018750D03*
X79596875Y-149718750D03*
%TD*%
%TO.C,D11*%
X295671875Y-92868750D03*
X295671875Y-89568750D03*
%TD*%
%TO.C,D87*%
X205184375Y-188118750D03*
X205184375Y-184818750D03*
%TD*%
%TO.C,D73*%
X281384375Y-169068750D03*
X281384375Y-165768750D03*
%TD*%
%TO.C,D19*%
X162321875Y-111918750D03*
X162321875Y-108618750D03*
%TD*%
%TO.C,D28*%
X333771875Y-111918750D03*
X333771875Y-108618750D03*
%TD*%
%TO.C,D56*%
X252809375Y-150018750D03*
X252809375Y-146718750D03*
%TD*%
%TO.C,D24*%
X257571875Y-111918750D03*
X257571875Y-108618750D03*
%TD*%
%TO.C,D89*%
X243284375Y-188118750D03*
X243284375Y-184818750D03*
%TD*%
%TO.C,D76*%
X338534375Y-169068750D03*
X338534375Y-165768750D03*
%TD*%
%TO.C,D58*%
X290909375Y-150018750D03*
X290909375Y-146718750D03*
%TD*%
%TO.C,D91*%
X386159375Y-188118750D03*
X386159375Y-184818750D03*
%TD*%
%TO.C,D42*%
X305196875Y-130968750D03*
X305196875Y-127668750D03*
%TD*%
%TO.C,D5*%
X181371875Y-92868750D03*
X181371875Y-89568750D03*
%TD*%
%TO.C,D77*%
X357584375Y-169068750D03*
X357584375Y-165768750D03*
%TD*%
%TO.C,D39*%
X248046875Y-130968750D03*
X248046875Y-127668750D03*
%TD*%
%TO.C,D61*%
X348059375Y-150018750D03*
X348059375Y-146718750D03*
%TD*%
%TO.C,D12*%
X314721875Y-92868750D03*
X314721875Y-89568750D03*
%TD*%
%TO.C,D30*%
X371871875Y-111918750D03*
X371871875Y-108618750D03*
%TD*%
%TO.C,D34*%
X95646875Y-130968750D03*
X95646875Y-127668750D03*
%TD*%
%TO.C,D27*%
X314721875Y-111918750D03*
X314721875Y-108618750D03*
%TD*%
%TO.C,D69*%
X205184375Y-169068750D03*
X205184375Y-165768750D03*
%TD*%
%TO.C,D82*%
X114696875Y-169068750D03*
X114696875Y-165768750D03*
%TD*%
%TO.C,D47*%
X400446875Y-130968750D03*
X400446875Y-127668750D03*
%TD*%
%TO.C,D32*%
X409971875Y-111918750D03*
X409971875Y-108618750D03*
%TD*%
%TO.C,D49*%
X95646875Y-150018750D03*
X95646875Y-146718750D03*
%TD*%
%TO.C,D83*%
X114696875Y-188118750D03*
X114696875Y-184818750D03*
%TD*%
%TO.C,D79*%
X395684375Y-169068750D03*
X395684375Y-165768750D03*
%TD*%
%TO.C,D10*%
X276621875Y-92868750D03*
X276621875Y-89568750D03*
%TD*%
%TO.C,D18*%
X114696875Y-130968750D03*
X114696875Y-127668750D03*
%TD*%
%TO.C,D67*%
X95646875Y-169068750D03*
X95646875Y-165768750D03*
%TD*%
%TO.C,D78*%
X376634375Y-169068750D03*
X376634375Y-165768750D03*
%TD*%
%TO.C,D14*%
X352821875Y-92868750D03*
X352821875Y-89568750D03*
%TD*%
%TO.C,D93*%
X429021875Y-188118750D03*
X429021875Y-184818750D03*
%TD*%
%TO.C,D80*%
X429021875Y-169068750D03*
X429021875Y-165768750D03*
%TD*%
%TO.C,D16*%
X390921875Y-92868750D03*
X390921875Y-89568750D03*
%TD*%
%TO.C,D20*%
X181371875Y-111918750D03*
X181371875Y-108618750D03*
%TD*%
%TO.C,D53*%
X195659375Y-150018750D03*
X195659375Y-146718750D03*
%TD*%
%TO.C,D43*%
X324246875Y-130968750D03*
X324246875Y-127668750D03*
%TD*%
%TO.C,D25*%
X276621875Y-111918750D03*
X276621875Y-108618750D03*
%TD*%
%TO.C,D13*%
X333771875Y-92868750D03*
X333771875Y-89568750D03*
%TD*%
%TO.C,D85*%
X162321875Y-188118750D03*
X162321875Y-184818750D03*
%TD*%
%TO.C,D86*%
X186134375Y-188118750D03*
X186134375Y-184818750D03*
%TD*%
%TO.C,D22*%
X219471875Y-111918750D03*
X219471875Y-108618750D03*
%TD*%
%TO.C,D33*%
X79596875Y-133968750D03*
X79596875Y-130668750D03*
%TD*%
%TO.C,D2*%
X79596875Y-114584375D03*
X79596875Y-111284375D03*
%TD*%
%TO.C,D62*%
X367109375Y-150018750D03*
X367109375Y-146718750D03*
%TD*%
%TO.C,D88*%
X224234375Y-188118750D03*
X224234375Y-184818750D03*
%TD*%
%TO.C,D55*%
X233759375Y-150018750D03*
X233759375Y-146718750D03*
%TD*%
%TO.C,D75*%
X319484375Y-169068750D03*
X319484375Y-165768750D03*
%TD*%
%TO.C,D72*%
X262334375Y-169068750D03*
X262334375Y-165768750D03*
%TD*%
%TO.C,D70*%
X224234375Y-169068750D03*
X224234375Y-165768750D03*
%TD*%
%TO.C,D36*%
X190896875Y-130968750D03*
X190896875Y-127668750D03*
%TD*%
%TO.C,D29*%
X352821875Y-111918750D03*
X352821875Y-108618750D03*
%TD*%
%TO.C,D9*%
X257571875Y-92868750D03*
X257571875Y-89568750D03*
%TD*%
%TO.C,D63*%
X386159375Y-150018750D03*
X386159375Y-146718750D03*
%TD*%
%TO.C,D40*%
X267096875Y-130968750D03*
X267096875Y-127668750D03*
%TD*%
%TO.C,D60*%
X329009375Y-150018750D03*
X329009375Y-146718750D03*
%TD*%
%TO.C,D54*%
X214709375Y-150018750D03*
X214709375Y-146718750D03*
%TD*%
%TO.C,D46*%
X381396875Y-130968750D03*
X381396875Y-127668750D03*
%TD*%
%TO.C,D50*%
X114696875Y-150018750D03*
X114696875Y-146718750D03*
%TD*%
%TO.C,D38*%
X228996875Y-130968750D03*
X228996875Y-127668750D03*
%TD*%
%TO.C,D66*%
X79596875Y-172068750D03*
X79596875Y-168768750D03*
%TD*%
%TO.C,D59*%
X309959375Y-150018750D03*
X309959375Y-146718750D03*
%TD*%
%TO.C,D94*%
X448071875Y-188118750D03*
X448071875Y-184818750D03*
%TD*%
%TO.C,D95*%
X448071875Y-169068750D03*
X448071875Y-165768750D03*
%TD*%
%TO.C,D7*%
X219471875Y-92868750D03*
X219471875Y-89568750D03*
%TD*%
%TO.C,D64*%
X405209375Y-150018750D03*
X405209375Y-146718750D03*
%TD*%
%TO.C,D48*%
X419496875Y-130968750D03*
X419496875Y-127668750D03*
%TD*%
%TO.C,D15*%
X371871875Y-92868750D03*
X371871875Y-89568750D03*
%TD*%
%TO.C,D4*%
X162321875Y-92868750D03*
X162321875Y-89568750D03*
%TD*%
%TO.C,D52*%
X162321875Y-150018750D03*
X162321875Y-146718750D03*
%TD*%
%TO.C,D92*%
X409971875Y-188118750D03*
X409971875Y-184818750D03*
%TD*%
%TO.C,D37*%
X209946875Y-130968750D03*
X209946875Y-127668750D03*
%TD*%
%TO.C,D68*%
X162321875Y-169068750D03*
X162321875Y-165768750D03*
%TD*%
M02*
